<?xml version="1.0" encoding="UTF-8"?>
<svg width="97px" height="56px" viewBox="0 0 97 56" version="1.1" xmlns="http://www.w3.org/2000/svg" xmlns:xlink="http://www.w3.org/1999/xlink">
    <title>14_cuotas_fijas</title>
    <defs>
        <path d="M62,0 C73.045695,-2.02906125e-15 82,8.954305 82,20 C82,31.045695 73.045695,40 62,40 L48.523,40 L41.5694444,46.1066017 L34.615,40 L20,40 C8.954305,40 1.3527075e-15,31.045695 0,20 C-1.3527075e-15,8.954305 8.954305,2.02906125e-15 20,0 L62,0 Z" id="path-1"></path>
        <filter x="-5.9%" y="-10.4%" width="111.7%" height="121.0%" filterUnits="objectBoundingBox" id="filter-2">
            <feMorphology radius="0.299999982" operator="dilate" in="SourceAlpha" result="shadowSpreadOuter1"></feMorphology>
            <feOffset dx="0" dy="0" in="shadowSpreadOuter1" result="shadowOffsetOuter1"></feOffset>
            <feGaussianBlur stdDeviation="1.5" in="shadowOffsetOuter1" result="shadowBlurOuter1"></feGaussianBlur>
            <feComposite in="shadowBlurOuter1" in2="SourceAlpha" operator="out" result="shadowBlurOuter1"></feComposite>
            <feColorMatrix values="0 0 0 0 0   0 0 0 0 0   0 0 0 0 0  0 0 0 0.3 0" type="matrix" in="shadowBlurOuter1"></feColorMatrix>
        </filter>
    </defs>
    <g id="Icons-old" stroke="none" stroke-width="1" fill="none" fill-rule="evenodd">
        <g id="Group-7-Copy-17" transform="translate(1.000000, 0.000000)">
            <g id="Group-3-Copy-4" transform="translate(6.000000, 6.000000)">
                <g id="Combined-Shape">
                    <use fill="black" fill-opacity="1" filter="url(#filter-2)" xlink:href="#path-1"></use>
                    <use stroke="#AAAAAA" stroke-width="0.599999964" fill="#FFFFFF" fill-rule="evenodd" xlink:href="#path-1"></use>
                </g>
                <path d="M19.751172,18 L19.751172,9.43945312 L19.5695313,9.43945312 L16.2414063,10.6640625 L16.2414063,11.8652344 L18.3332032,11.1503906 L18.3332032,18 L19.751172,18 Z M27.4657553,18 L27.4657553,16.1015625 L28.5263022,16.1015625 L28.5263022,14.9589844 L27.4657553,14.9589844 L27.4657553,9.46875 L25.9950522,9.46875 L22.3153647,15.234375 L22.3563803,16.1015625 L26.0419272,16.1015625 L26.0419272,18 L27.4657553,18 Z M26.0419272,14.9589844 L23.8095053,14.9589844 L25.9364584,11.5839844 L26.0419272,11.3964844 L26.0419272,14.9589844 Z M35.0375,18.1171875 C35.4945313,18.1171875 35.9203125,18.0175781 36.3148438,17.8183594 C36.709375,17.6191406 37.021875,17.3486328 37.2523438,17.0068359 C37.4828125,16.6650391 37.6058594,16.296875 37.6214844,15.9023438 L37.6214844,15.9023438 L36.2796875,15.9023438 C36.2640625,16.2070312 36.1390625,16.4628906 35.9046875,16.6699219 C35.6703125,16.8769531 35.3753907,16.9804688 35.0199219,16.9804688 C34.5511719,16.9804688 34.1927735,16.8115234 33.9447266,16.4736328 C33.6966797,16.1357422 33.5726563,15.6230469 33.5726563,14.9355469 L33.5726563,14.9355469 L33.5726563,14.7070312 C33.5765625,14.0273438 33.7035157,13.5205078 33.9535157,13.1865234 C34.2035157,12.8525391 34.5589844,12.6855469 35.0199219,12.6855469 C35.3792969,12.6855469 35.6751953,12.8027344 35.9076172,13.0371094 C36.1400391,13.2714844 36.2640625,13.5703125 36.2796875,13.9335938 L36.2796875,13.9335938 L37.6214844,13.9335938 C37.5980469,13.21875 37.3490235,12.6416016 36.8744141,12.2021484 C36.3998047,11.7626953 35.7855469,11.5429688 35.0316407,11.5429688 C34.1410157,11.5429688 33.4378907,11.8330078 32.9222657,12.4130859 C32.4066407,12.9931641 32.1488282,13.765625 32.1488282,14.7304688 L32.1488282,14.7304688 L32.1488282,14.8769531 C32.1488282,15.8886719 32.4085938,16.6816406 32.928125,17.2558594 C33.4476563,17.8300781 34.1507813,18.1171875 35.0375,18.1171875 Z M40.6895833,18.1171875 C41.4591146,18.1171875 42.0528646,17.8710938 42.4708333,17.3789062 L42.4708333,17.3789062 L42.5059896,18 L43.8477865,18 L43.8477865,11.6601562 L42.4239583,11.6601562 L42.4239583,16.2128906 C42.1817708,16.7089844 41.714974,16.9570312 41.0235677,16.9570312 C40.355599,16.9570312 40.0216146,16.5546875 40.0216146,15.75 L40.0216146,15.75 L40.0216146,11.6601562 L38.5977865,11.6601562 L38.5977865,15.7675781 C38.5977865,16.5292969 38.7745443,17.1113281 39.1280599,17.5136719 C39.4815755,17.9160156 40.0020833,18.1171875 40.6895833,18.1171875 Z M47.9178385,18.1171875 C48.503776,18.1171875 49.0203776,17.9824219 49.4676432,17.7128906 C49.9149088,17.4433594 50.2586588,17.0625 50.4988932,16.5703125 C50.7391276,16.078125 50.8592448,15.5195312 50.8592448,14.8945312 L50.8592448,14.8945312 L50.8533854,14.5605469 C50.8104167,13.6503906 50.5223307,12.9199219 49.9891276,12.3691406 C49.4559245,11.8183594 48.7615885,11.5429688 47.9061198,11.5429688 C47.3279948,11.5429688 46.816276,11.6767578 46.3709635,11.9443359 C45.925651,12.2119141 45.5799479,12.5947266 45.3338542,13.0927734 C45.0877604,13.5908203 44.9647135,14.1503906 44.9647135,14.7714844 L44.9647135,14.7714844 L44.9647135,14.8417969 C44.9647135,15.8339844 45.2332682,16.6279297 45.7703776,17.2236328 C46.307487,17.8193359 47.0233073,18.1171875 47.9178385,18.1171875 Z M47.9178385,16.9804688 C47.4373698,16.9804688 47.0623698,16.7958984 46.7928385,16.4267578 C46.5233073,16.0576172 46.3885417,15.546875 46.3885417,14.8945312 C46.3885417,14.1601562 46.5252604,13.6083984 46.7986979,13.2392578 C47.0721354,12.8701172 47.441276,12.6855469 47.9061198,12.6855469 C48.378776,12.6855469 48.7527995,12.8730469 49.0281901,13.2480469 C49.3035807,13.6230469 49.441276,14.1308594 49.441276,14.7714844 C49.441276,15.4941406 49.307487,16.0429688 49.0399088,16.4179688 C48.7723307,16.7929688 48.3983073,16.9804688 47.9178385,16.9804688 Z M53.9976562,18.1171875 C54.2984375,18.1171875 54.6109375,18.0722656 54.9351562,17.9824219 L54.9351562,17.9824219 L54.9351562,16.8808594 C54.7671875,16.9199219 54.6011718,16.9394531 54.4371093,16.9394531 C54.1910156,16.9394531 54.0201172,16.8857422 53.924414,16.7783203 C53.8287109,16.6708984 53.7808593,16.4960938 53.7808593,16.2539062 L53.7808593,16.2539062 L53.7808593,12.7148438 L54.9,12.7148438 L54.9,11.6601562 L53.7808593,11.6601562 L53.7808593,10.1191406 L52.3570312,10.1191406 L52.3570312,11.6601562 L51.3140625,11.6601562 L51.3140625,12.7148438 L52.3570312,12.7148438 L52.3570312,16.3066406 C52.3570312,17.5136719 52.9039062,18.1171875 53.9976562,18.1171875 Z M57.8802083,18.1171875 C58.5364583,18.1171875 59.0911458,17.8808594 59.5442708,17.4082031 C59.5911458,17.6816406 59.6458333,17.8789062 59.7083333,18 L59.7083333,18 L61.1614583,18 L61.1614583,17.9003906 C61.001302,17.5605469 60.9212239,17.1054688 60.9212239,16.5351562 L60.9212239,16.5351562 L60.9212239,13.6757812 C60.9095052,13 60.6829427,12.4755859 60.2415364,12.1025391 C59.8001302,11.7294922 59.2083333,11.5429688 58.4661458,11.5429688 C57.9778645,11.5429688 57.5354817,11.6289062 57.1389973,11.8007812 C56.742513,11.9726562 56.4290364,12.2099609 56.1985677,12.5126953 C55.9680989,12.8154297 55.8528645,13.140625 55.8528645,13.4882812 L55.8528645,13.4882812 L57.2766927,13.4882812 C57.2766927,13.2382812 57.3802083,13.0322266 57.5872395,12.8701172 C57.7942708,12.7080078 58.0598958,12.6269531 58.3841145,12.6269531 C58.7591145,12.6269531 59.0384114,12.7255859 59.2220052,12.9228516 C59.4055989,13.1201172 59.4973958,13.3828125 59.4973958,13.7109375 L59.4973958,13.7109375 L59.4973958,14.1269531 L58.6243489,14.1269531 C57.6907552,14.1269531 56.9729817,14.3076172 56.4710286,14.6689453 C55.9690755,15.0302734 55.7180989,15.5488281 55.7180989,16.2246094 C55.7180989,16.7597656 55.9192708,17.2089844 56.3216145,17.5722656 C56.7239583,17.9355469 57.2434895,18.1171875 57.8802083,18.1171875 Z M58.1438802,16.9746094 C57.8391927,16.9746094 57.5960286,16.8935547 57.414388,16.7314453 C57.2327473,16.5693359 57.141927,16.3515625 57.141927,16.078125 C57.141927,15.7421875 57.2747395,15.4824219 57.5403645,15.2988281 C57.8059895,15.1152344 58.2024739,15.0234375 58.7298177,15.0234375 L58.7298177,15.0234375 L59.4973958,15.0234375 L59.4973958,16.21875 C59.3723958,16.4492188 59.1858723,16.6328125 58.9378255,16.7695312 C58.6897786,16.90625 58.4251302,16.9746094 58.1438802,16.9746094 Z M64.7334635,18.1171875 C65.4990885,18.1171875 66.1182291,17.9404297 66.5908854,17.5869141 C67.0635416,17.2333984 67.2998697,16.7714844 67.2998697,16.2011719 C67.2998697,15.8613281 67.2227213,15.5722656 67.0684244,15.3339844 C66.9141275,15.0957031 66.6777994,14.8916016 66.35944,14.7216797 C66.0410807,14.5517578 65.6026041,14.4052734 65.0440104,14.2822266 C64.4854166,14.1591797 64.1143229,14.0371094 63.9307291,13.9160156 C63.7471354,13.7949219 63.6553385,13.625 63.6553385,13.40625 C63.6553385,13.1640625 63.7539713,12.9707031 63.9512369,12.8261719 C64.1485025,12.6816406 64.4033854,12.609375 64.7158854,12.609375 C65.0518229,12.609375 65.3213541,12.7001953 65.5244791,12.8818359 C65.7276041,13.0634766 65.8291666,13.2910156 65.8291666,13.5644531 L65.8291666,13.5644531 L67.2529947,13.5644531 C67.2529947,12.9667969 67.0195963,12.4804688 66.5527994,12.1054688 C66.0860025,11.7304688 65.4736979,11.5429688 64.7158854,11.5429688 C64.0049479,11.5429688 63.4190104,11.7265625 62.9580729,12.09375 C62.4971354,12.4609375 62.2666666,12.9179688 62.2666666,13.4648438 C62.2666666,14.1171875 62.6221354,14.6152344 63.3330729,14.9589844 C63.6572916,15.1152344 64.0615885,15.2441406 64.5459635,15.3457031 C65.0303385,15.4472656 65.3770182,15.5644531 65.5860025,15.6972656 C65.7949869,15.8300781 65.8994791,16.0234375 65.8994791,16.2773438 C65.8994791,16.5078125 65.8018229,16.6943359 65.6065104,16.8369141 C65.4111979,16.9794922 65.1260416,17.0507812 64.7510416,17.0507812 C64.3643229,17.0507812 64.053776,16.9599609 63.819401,16.7783203 C63.585026,16.5966797 63.4580729,16.3378906 63.4385416,16.0019531 L63.4385416,16.0019531 L62.0557291,16.0019531 C62.0557291,16.3808594 62.1690104,16.734375 62.3955729,17.0625 C62.6221354,17.390625 62.9385416,17.6484375 63.3447916,17.8359375 C63.7510416,18.0234375 64.2139322,18.1171875 64.7334635,18.1171875 Z M32.7944662,30 L32.7944662,24.4980469 L34.0893881,24.4980469 L34.0893881,23.6601562 L32.7944662,23.6601562 L32.7944662,23.109375 C32.7944662,22.6914062 32.8970052,22.3779297 33.1020834,22.1689453 C33.3071615,21.9599609 33.6421224,21.8554688 34.1069662,21.8554688 C34.5483724,21.8554688 35.0132162,21.953125 35.5014974,22.1484375 L35.5014974,22.1484375 L35.6831381,21.234375 C35.0151693,20.9960938 34.4624349,20.8769531 34.0249349,20.8769531 C33.2866537,20.8769531 32.7153646,21.0742188 32.3110677,21.46875 C31.9067709,21.8632812 31.7046224,22.4140625 31.7046224,23.1210938 L31.7046224,23.1210938 L31.7046224,23.6601562 L30.7026693,23.6601562 L30.7026693,24.4980469 L31.7046224,24.4980469 L31.7046224,30 L32.7944662,30 Z M36.2222006,30 L36.2222006,23.6601562 L35.1323568,23.6601562 L35.1323568,30 L36.2222006,30 Z M38.4758464,22.59375 C38.6867839,22.59375 38.8469401,22.5351562 38.9563151,22.4179688 C39.0656901,22.3007812 39.1203776,22.1542969 39.1203776,21.9785156 C39.1203776,21.8027344 39.0656901,21.6542969 38.9563151,21.5332031 C38.8469401,21.4121094 38.6867839,21.3515625 38.4758464,21.3515625 C38.2688151,21.3515625 38.1115886,21.4130859 38.0041667,21.5361328 C37.8967448,21.6591797 37.8430339,21.8066406 37.8430339,21.9785156 C37.8430339,22.1542969 37.8957682,22.3007812 38.001237,22.4179688 C38.1067057,22.5351562 38.2649089,22.59375 38.4758464,22.59375 Z M37.3801432,32.5605469 C38.485612,32.5605469 39.0383464,31.9511719 39.0383464,30.7324219 L39.0383464,30.7324219 L39.0383464,23.6601562 L37.954362,23.6601562 L37.954362,30.7558594 C37.954362,31.0800781 37.8908854,31.3076172 37.7639323,31.4384766 C37.6369792,31.5693359 37.4524089,31.6347656 37.2102214,31.6347656 C37.0070964,31.6347656 36.8430339,31.6191406 36.7180339,31.5878906 L36.7180339,31.5878906 L36.7180339,32.4550781 C36.9211589,32.5253906 37.141862,32.5605469 37.3801432,32.5605469 Z M42.6748047,30.1171875 C43.3740234,30.1171875 43.9755859,29.8554688 44.4794922,29.3320312 C44.5185547,29.6523438 44.5693359,29.875 44.6318359,30 L44.6318359,30 L45.7685547,30 L45.7685547,29.90625 C45.6201172,29.5625 45.5458984,29.0996094 45.5458984,28.5175781 L45.5458984,28.5175781 L45.5458984,25.5996094 C45.5302734,24.9589844 45.3154297,24.4560547 44.9013672,24.0908203 C44.4873047,23.7255859 43.9150391,23.5429688 43.1845703,23.5429688 C42.7236328,23.5429688 42.3007812,23.6289062 41.9160156,23.8007812 C41.53125,23.9726562 41.2265625,24.2060547 41.0019531,24.5009766 C40.7773438,24.7958984 40.6650391,25.1015625 40.6650391,25.4179688 L40.6650391,25.4179688 L41.7548828,25.4179688 C41.7548828,25.140625 41.8857422,24.9042969 42.1474609,24.7089844 C42.4091797,24.5136719 42.7333984,24.4160156 43.1201172,24.4160156 C43.5615234,24.4160156 43.8955078,24.5283203 44.1220703,24.7529297 C44.3486328,24.9775391 44.4619141,25.2792969 44.4619141,25.6582031 L44.4619141,25.6582031 L44.4619141,26.15625 L43.4072266,26.15625 C42.4970703,26.15625 41.7910156,26.3388672 41.2890625,26.7041016 C40.7871094,27.0693359 40.5361328,27.5820312 40.5361328,28.2421875 C40.5361328,28.7851562 40.7363281,29.2333984 41.1367188,29.5869141 C41.5371094,29.9404297 42.0498047,30.1171875 42.6748047,30.1171875 Z M42.8330078,29.1738281 C42.4775391,29.1738281 42.1865234,29.078125 41.9599609,28.8867188 C41.7333984,28.6953125 41.6201172,28.4296875 41.6201172,28.0898438 C41.6201172,27.3125 42.2841797,26.9238281 43.6123047,26.9238281 L43.6123047,26.9238281 L44.4619141,26.9238281 L44.4619141,28.2246094 C44.3251953,28.5058594 44.1044922,28.734375 43.7998047,28.9101562 C43.4951172,29.0859375 43.1728516,29.1738281 42.8330078,29.1738281 Z M49.5104818,30.1171875 C50.233138,30.1171875 50.8210286,29.9462891 51.2741536,29.6044922 C51.7272786,29.2626953 51.9538411,28.8085938 51.9538411,28.2421875 C51.9538411,27.9023438 51.8727864,27.6142578 51.7106771,27.3779297 C51.5485677,27.1416016 51.2995443,26.9394531 50.9636068,26.7714844 C50.6276693,26.6035156 50.1891927,26.4589844 49.6481771,26.3378906 C49.1071614,26.2167969 48.733138,26.0898438 48.5261068,25.9570312 C48.3190755,25.8242188 48.2155599,25.6269531 48.2155599,25.3652344 C48.2155599,25.0878906 48.326888,24.8632812 48.5495443,24.6914062 C48.7722005,24.5195312 49.0807943,24.4335938 49.4753255,24.4335938 C49.858138,24.4335938 50.1755208,24.5410156 50.4274739,24.7558594 C50.6794271,24.9707031 50.8054036,25.2265625 50.8054036,25.5234375 L50.8054036,25.5234375 L51.8952474,25.5234375 C51.8952474,24.9453125 51.6716146,24.4707031 51.2243489,24.0996094 C50.7770833,23.7285156 50.1940755,23.5429688 49.4753255,23.5429688 C48.7917318,23.5429688 48.2302083,23.7226562 47.7907552,24.0820312 C47.3513021,24.4414062 47.1315755,24.8808594 47.1315755,25.4003906 C47.1315755,25.7128906 47.2087239,25.9824219 47.3630208,26.2089844 C47.5173177,26.4355469 47.7555989,26.6308594 48.0778646,26.7949219 C48.4001302,26.9589844 48.8356771,27.0996094 49.3845052,27.2167969 C49.9333333,27.3339844 50.3180989,27.4736328 50.5388021,27.6357422 C50.7595052,27.7978516 50.8698568,28.0253906 50.8698568,28.3183594 C50.8698568,28.5957031 50.7458333,28.8173828 50.4977864,28.9833984 C50.2497396,29.1494141 49.920638,29.2324219 49.5104818,29.2324219 C49.0651693,29.2324219 48.7067708,29.1259766 48.4352864,28.9130859 C48.1638021,28.7001953 48.0182943,28.4121094 47.998763,28.0488281 L47.998763,28.0488281 L46.9147786,28.0488281 C46.9147786,28.4238281 47.0251302,28.7724609 47.2458333,29.0947266 C47.4665364,29.4169922 47.7722005,29.6679688 48.1628255,29.8476562 C48.5534505,30.0273438 49.0026693,30.1171875 49.5104818,30.1171875 Z" id="14cuotasfjas" fill="#FF5500" fill-rule="nonzero"></path>
            </g>
        </g>
    </g>
</svg>