<?xml version="1.0" encoding="UTF-8"?>
<svg width="97px" height="56px" viewBox="0 0 97 56" version="1.1" xmlns="http://www.w3.org/2000/svg" xmlns:xlink="http://www.w3.org/1999/xlink">
    <title>14_cuotas_cero_interes</title>
    <defs>
        <path d="M62,0 C73.045695,-2.02906125e-15 82,8.954305 82,20 C82,31.045695 73.045695,40 62,40 L48.523,40 L41.5694444,46.1066017 L34.615,40 L20,40 C8.954305,40 1.3527075e-15,31.045695 0,20 C-1.3527075e-15,8.954305 8.954305,2.02906125e-15 20,0 L62,0 Z" id="path-1"></path>
        <filter x="-5.9%" y="-10.4%" width="111.7%" height="121.0%" filterUnits="objectBoundingBox" id="filter-2">
            <feMorphology radius="0.299999982" operator="dilate" in="SourceAlpha" result="shadowSpreadOuter1"></feMorphology>
            <feOffset dx="0" dy="0" in="shadowSpreadOuter1" result="shadowOffsetOuter1"></feOffset>
            <feGaussianBlur stdDeviation="1.5" in="shadowOffsetOuter1" result="shadowBlurOuter1"></feGaussianBlur>
            <feComposite in="shadowBlurOuter1" in2="SourceAlpha" operator="out" result="shadowBlurOuter1"></feComposite>
            <feColorMatrix values="0 0 0 0 0   0 0 0 0 0   0 0 0 0 0  0 0 0 0.3 0" type="matrix" in="shadowBlurOuter1"></feColorMatrix>
        </filter>
    </defs>
    <g id="Icons-old" stroke="none" stroke-width="1" fill="none" fill-rule="evenodd">
        <g id="Group-7-Copy-7" transform="translate(1.000000, 0.000000)">
            <g id="Group-3-Copy-4" transform="translate(6.000000, 6.000000)">
                <g id="Combined-Shape">
                    <use fill="black" fill-opacity="1" filter="url(#filter-2)" xlink:href="#path-1"></use>
                    <use stroke="#AAAAAA" stroke-width="0.599999964" fill="#FFFFFF" fill-rule="evenodd" xlink:href="#path-1"></use>
                </g>
                <path d="M19.751172,18 L19.751172,9.43945312 L19.5695313,9.43945312 L16.2414063,10.6640625 L16.2414063,11.8652344 L18.3332032,11.1503906 L18.3332032,18 L19.751172,18 Z M27.4657553,18 L27.4657553,16.1015625 L28.5263022,16.1015625 L28.5263022,14.9589844 L27.4657553,14.9589844 L27.4657553,9.46875 L25.9950522,9.46875 L22.3153647,15.234375 L22.3563803,16.1015625 L26.0419272,16.1015625 L26.0419272,18 L27.4657553,18 Z M26.0419272,14.9589844 L23.8095053,14.9589844 L25.9364584,11.5839844 L26.0419272,11.3964844 L26.0419272,14.9589844 Z M35.0375,18.1171875 C35.4945313,18.1171875 35.9203125,18.0175781 36.3148438,17.8183594 C36.709375,17.6191406 37.021875,17.3486328 37.2523438,17.0068359 C37.4828125,16.6650391 37.6058594,16.296875 37.6214844,15.9023438 L37.6214844,15.9023438 L36.2796875,15.9023438 C36.2640625,16.2070312 36.1390625,16.4628906 35.9046875,16.6699219 C35.6703125,16.8769531 35.3753907,16.9804688 35.0199219,16.9804688 C34.5511719,16.9804688 34.1927735,16.8115234 33.9447266,16.4736328 C33.6966797,16.1357422 33.5726563,15.6230469 33.5726563,14.9355469 L33.5726563,14.9355469 L33.5726563,14.7070312 C33.5765625,14.0273438 33.7035157,13.5205078 33.9535157,13.1865234 C34.2035157,12.8525391 34.5589844,12.6855469 35.0199219,12.6855469 C35.3792969,12.6855469 35.6751953,12.8027344 35.9076172,13.0371094 C36.1400391,13.2714844 36.2640625,13.5703125 36.2796875,13.9335938 L36.2796875,13.9335938 L37.6214844,13.9335938 C37.5980469,13.21875 37.3490235,12.6416016 36.8744141,12.2021484 C36.3998047,11.7626953 35.7855469,11.5429688 35.0316407,11.5429688 C34.1410157,11.5429688 33.4378907,11.8330078 32.9222657,12.4130859 C32.4066407,12.9931641 32.1488282,13.765625 32.1488282,14.7304688 L32.1488282,14.7304688 L32.1488282,14.8769531 C32.1488282,15.8886719 32.4085938,16.6816406 32.928125,17.2558594 C33.4476563,17.8300781 34.1507813,18.1171875 35.0375,18.1171875 Z M40.6895833,18.1171875 C41.4591146,18.1171875 42.0528646,17.8710938 42.4708333,17.3789062 L42.4708333,17.3789062 L42.5059896,18 L43.8477865,18 L43.8477865,11.6601562 L42.4239583,11.6601562 L42.4239583,16.2128906 C42.1817708,16.7089844 41.714974,16.9570312 41.0235677,16.9570312 C40.355599,16.9570312 40.0216146,16.5546875 40.0216146,15.75 L40.0216146,15.75 L40.0216146,11.6601562 L38.5977865,11.6601562 L38.5977865,15.7675781 C38.5977865,16.5292969 38.7745443,17.1113281 39.1280599,17.5136719 C39.4815755,17.9160156 40.0020833,18.1171875 40.6895833,18.1171875 Z M47.9178385,18.1171875 C48.503776,18.1171875 49.0203776,17.9824219 49.4676432,17.7128906 C49.9149088,17.4433594 50.2586588,17.0625 50.4988932,16.5703125 C50.7391276,16.078125 50.8592448,15.5195312 50.8592448,14.8945312 L50.8592448,14.8945312 L50.8533854,14.5605469 C50.8104167,13.6503906 50.5223307,12.9199219 49.9891276,12.3691406 C49.4559245,11.8183594 48.7615885,11.5429688 47.9061198,11.5429688 C47.3279948,11.5429688 46.816276,11.6767578 46.3709635,11.9443359 C45.925651,12.2119141 45.5799479,12.5947266 45.3338542,13.0927734 C45.0877604,13.5908203 44.9647135,14.1503906 44.9647135,14.7714844 L44.9647135,14.7714844 L44.9647135,14.8417969 C44.9647135,15.8339844 45.2332682,16.6279297 45.7703776,17.2236328 C46.307487,17.8193359 47.0233073,18.1171875 47.9178385,18.1171875 Z M47.9178385,16.9804688 C47.4373698,16.9804688 47.0623698,16.7958984 46.7928385,16.4267578 C46.5233073,16.0576172 46.3885417,15.546875 46.3885417,14.8945312 C46.3885417,14.1601562 46.5252604,13.6083984 46.7986979,13.2392578 C47.0721354,12.8701172 47.441276,12.6855469 47.9061198,12.6855469 C48.378776,12.6855469 48.7527995,12.8730469 49.0281901,13.2480469 C49.3035807,13.6230469 49.441276,14.1308594 49.441276,14.7714844 C49.441276,15.4941406 49.307487,16.0429688 49.0399088,16.4179688 C48.7723307,16.7929688 48.3983073,16.9804688 47.9178385,16.9804688 Z M53.9976562,18.1171875 C54.2984375,18.1171875 54.6109375,18.0722656 54.9351562,17.9824219 L54.9351562,17.9824219 L54.9351562,16.8808594 C54.7671875,16.9199219 54.6011718,16.9394531 54.4371093,16.9394531 C54.1910156,16.9394531 54.0201172,16.8857422 53.924414,16.7783203 C53.8287109,16.6708984 53.7808593,16.4960938 53.7808593,16.2539062 L53.7808593,16.2539062 L53.7808593,12.7148438 L54.9,12.7148438 L54.9,11.6601562 L53.7808593,11.6601562 L53.7808593,10.1191406 L52.3570312,10.1191406 L52.3570312,11.6601562 L51.3140625,11.6601562 L51.3140625,12.7148438 L52.3570312,12.7148438 L52.3570312,16.3066406 C52.3570312,17.5136719 52.9039062,18.1171875 53.9976562,18.1171875 Z M57.8802083,18.1171875 C58.5364583,18.1171875 59.0911458,17.8808594 59.5442708,17.4082031 C59.5911458,17.6816406 59.6458333,17.8789062 59.7083333,18 L59.7083333,18 L61.1614583,18 L61.1614583,17.9003906 C61.001302,17.5605469 60.9212239,17.1054688 60.9212239,16.5351562 L60.9212239,16.5351562 L60.9212239,13.6757812 C60.9095052,13 60.6829427,12.4755859 60.2415364,12.1025391 C59.8001302,11.7294922 59.2083333,11.5429688 58.4661458,11.5429688 C57.9778645,11.5429688 57.5354817,11.6289062 57.1389973,11.8007812 C56.742513,11.9726562 56.4290364,12.2099609 56.1985677,12.5126953 C55.9680989,12.8154297 55.8528645,13.140625 55.8528645,13.4882812 L55.8528645,13.4882812 L57.2766927,13.4882812 C57.2766927,13.2382812 57.3802083,13.0322266 57.5872395,12.8701172 C57.7942708,12.7080078 58.0598958,12.6269531 58.3841145,12.6269531 C58.7591145,12.6269531 59.0384114,12.7255859 59.2220052,12.9228516 C59.4055989,13.1201172 59.4973958,13.3828125 59.4973958,13.7109375 L59.4973958,13.7109375 L59.4973958,14.1269531 L58.6243489,14.1269531 C57.6907552,14.1269531 56.9729817,14.3076172 56.4710286,14.6689453 C55.9690755,15.0302734 55.7180989,15.5488281 55.7180989,16.2246094 C55.7180989,16.7597656 55.9192708,17.2089844 56.3216145,17.5722656 C56.7239583,17.9355469 57.2434895,18.1171875 57.8802083,18.1171875 Z M58.1438802,16.9746094 C57.8391927,16.9746094 57.5960286,16.8935547 57.414388,16.7314453 C57.2327473,16.5693359 57.141927,16.3515625 57.141927,16.078125 C57.141927,15.7421875 57.2747395,15.4824219 57.5403645,15.2988281 C57.8059895,15.1152344 58.2024739,15.0234375 58.7298177,15.0234375 L58.7298177,15.0234375 L59.4973958,15.0234375 L59.4973958,16.21875 C59.3723958,16.4492188 59.1858723,16.6328125 58.9378255,16.7695312 C58.6897786,16.90625 58.4251302,16.9746094 58.1438802,16.9746094 Z M64.7334635,18.1171875 C65.4990885,18.1171875 66.1182291,17.9404297 66.5908854,17.5869141 C67.0635416,17.2333984 67.2998697,16.7714844 67.2998697,16.2011719 C67.2998697,15.8613281 67.2227213,15.5722656 67.0684244,15.3339844 C66.9141275,15.0957031 66.6777994,14.8916016 66.35944,14.7216797 C66.0410807,14.5517578 65.6026041,14.4052734 65.0440104,14.2822266 C64.4854166,14.1591797 64.1143229,14.0371094 63.9307291,13.9160156 C63.7471354,13.7949219 63.6553385,13.625 63.6553385,13.40625 C63.6553385,13.1640625 63.7539713,12.9707031 63.9512369,12.8261719 C64.1485025,12.6816406 64.4033854,12.609375 64.7158854,12.609375 C65.0518229,12.609375 65.3213541,12.7001953 65.5244791,12.8818359 C65.7276041,13.0634766 65.8291666,13.2910156 65.8291666,13.5644531 L65.8291666,13.5644531 L67.2529947,13.5644531 C67.2529947,12.9667969 67.0195963,12.4804688 66.5527994,12.1054688 C66.0860025,11.7304688 65.4736979,11.5429688 64.7158854,11.5429688 C64.0049479,11.5429688 63.4190104,11.7265625 62.9580729,12.09375 C62.4971354,12.4609375 62.2666666,12.9179688 62.2666666,13.4648438 C62.2666666,14.1171875 62.6221354,14.6152344 63.3330729,14.9589844 C63.6572916,15.1152344 64.0615885,15.2441406 64.5459635,15.3457031 C65.0303385,15.4472656 65.3770182,15.5644531 65.5860025,15.6972656 C65.7949869,15.8300781 65.8994791,16.0234375 65.8994791,16.2773438 C65.8994791,16.5078125 65.8018229,16.6943359 65.6065104,16.8369141 C65.4111979,16.9794922 65.1260416,17.0507812 64.7510416,17.0507812 C64.3643229,17.0507812 64.053776,16.9599609 63.819401,16.7783203 C63.585026,16.5966797 63.4580729,16.3378906 63.4385416,16.0019531 L63.4385416,16.0019531 L62.0557291,16.0019531 C62.0557291,16.3808594 62.1690104,16.734375 62.3955729,17.0625 C62.6221354,17.390625 62.9385416,17.6484375 63.3447916,17.8359375 C63.7510416,18.0234375 64.2139322,18.1171875 64.7334635,18.1171875 Z M13.9126954,30.1171875 C14.3423829,30.1171875 14.7496095,30.0195312 15.1343751,29.8242188 C15.5191407,29.6289062 15.8267579,29.3671875 16.0572267,29.0390625 C16.2876954,28.7109375 16.4126954,28.3652344 16.4322267,28.0019531 L16.4322267,28.0019531 L15.4068361,28.0019531 C15.3755861,28.3535156 15.2154298,28.6464844 14.9263673,28.8808594 C14.6373048,29.1152344 14.2994142,29.2324219 13.9126954,29.2324219 C13.3541017,29.2324219 12.9244142,29.0351562 12.6236329,28.640625 C12.3228517,28.2460938 12.1724611,27.6835938 12.1724611,26.953125 L12.1724611,26.953125 L12.1724611,26.7480469 C12.1724611,25.9980469 12.3238282,25.4248047 12.6265626,25.0283203 C12.929297,24.6318359 13.3560548,24.4335938 13.9068361,24.4335938 C14.3169923,24.4335938 14.6617189,24.5654297 14.9410157,24.8291016 C15.2203126,25.0927734 15.3755861,25.4296875 15.4068361,25.8398438 L15.4068361,25.8398438 L16.4322267,25.8398438 C16.4009767,25.1601562 16.1500001,24.6074219 15.679297,24.1816406 C15.2085939,23.7558594 14.6177736,23.5429688 13.9068361,23.5429688 C13.3287111,23.5429688 12.8277345,23.6757812 12.4039064,23.9414062 C11.9800782,24.2070312 11.6548829,24.5800781 11.4283204,25.0605469 C11.2017579,25.5410156 11.0884767,26.0898438 11.0884767,26.7070312 L11.0884767,26.7070312 L11.0884767,26.8886719 C11.0884767,27.8886719 11.3433595,28.6767578 11.8531251,29.2529297 C12.3628907,29.8291016 13.0494142,30.1171875 13.9126954,30.1171875 Z M20.2151694,30.1171875 C21.2776694,30.1171875 22.0745444,29.7089844 22.6057944,28.8925781 L22.6057944,28.8925781 L21.943685,28.3769531 C21.7444662,28.6347656 21.5120444,28.8417969 21.2464194,28.9980469 C20.9807944,29.1542969 20.6565756,29.2324219 20.2737631,29.2324219 C19.7347006,29.2324219 19.2903647,29.0400391 18.9407553,28.6552734 C18.5911459,28.2705078 18.4085287,27.765625 18.3929037,27.140625 L18.3929037,27.140625 L22.6878256,27.140625 L22.6878256,26.6894531 C22.6878256,25.6777344 22.45931,24.9003906 22.0022787,24.3574219 C21.5452475,23.8144531 20.9046225,23.5429688 20.0804037,23.5429688 C19.5764975,23.5429688 19.1087241,23.6826172 18.6770834,23.9619141 C18.2454428,24.2412109 17.9095053,24.6279297 17.6692709,25.1220703 C17.4290366,25.6162109 17.3089194,26.1777344 17.3089194,26.8066406 L17.3089194,26.8066406 L17.3089194,27.0058594 C17.3089194,27.9511719 17.5784506,28.7060547 18.1175131,29.2705078 C18.6565756,29.8349609 19.3557944,30.1171875 20.2151694,30.1171875 Z M21.6038412,26.25 L18.42806,26.25 C18.4983725,25.6757812 18.6819662,25.2294922 18.9788412,24.9111328 C19.2757162,24.5927734 19.6429037,24.4335938 20.0804037,24.4335938 C20.5335287,24.4335938 20.8929037,24.5849609 21.1585287,24.8876953 C21.4241537,25.1904297 21.5725912,25.6171875 21.6038412,26.1679688 L21.6038412,26.1679688 L21.6038412,26.25 Z M24.9590496,30 L24.9590496,25.5 C25.2129558,24.8945312 25.6953777,24.5917969 26.4063152,24.5917969 C26.5977214,24.5917969 26.7754558,24.6054688 26.9395183,24.6328125 L26.9395183,24.6328125 L26.9395183,23.625 C26.8301433,23.5703125 26.6699871,23.5429688 26.4590496,23.5429688 C25.8067058,23.5429688 25.3027996,23.8261719 24.9473308,24.3925781 L24.9473308,24.3925781 L24.9297527,23.6601562 L23.8750652,23.6601562 L23.8750652,30 L24.9590496,30 Z M30.3533204,30.1171875 C30.9236329,30.1171875 31.4285157,29.9804688 31.8679688,29.7070312 C32.3074219,29.4335938 32.6453126,29.0517578 32.8816407,28.5615234 C33.1179688,28.0712891 33.2361329,27.5175781 33.2361329,26.9003906 L33.2361329,26.9003906 L33.2361329,26.8242188 C33.2361329,25.8320312 32.9695313,25.0371094 32.4363282,24.4394531 C31.9031251,23.8417969 31.2048829,23.5429688 30.3416016,23.5429688 C29.7830079,23.5429688 29.2859376,23.6777344 28.8503907,23.9472656 C28.4148438,24.2167969 28.0750001,24.5996094 27.8308594,25.0957031 C27.5867188,25.5917969 27.4646485,26.1503906 27.4646485,26.7714844 L27.4646485,26.7714844 L27.4646485,26.8476562 C27.4646485,27.8320312 27.7312501,28.6230469 28.2644532,29.2207031 C28.7976563,29.8183594 29.4939454,30.1171875 30.3533204,30.1171875 Z M30.3533204,29.2324219 C29.8064454,29.2324219 29.3699219,29.0195312 29.0437501,28.59375 C28.7175782,28.1679688 28.5544922,27.6035156 28.5544922,26.9003906 C28.5544922,26.1074219 28.7185547,25.4980469 29.0466797,25.0722656 C29.3748047,24.6464844 29.8064454,24.4335938 30.3416016,24.4335938 C30.8884766,24.4335938 31.3269532,24.6494141 31.6570313,25.0810547 C31.9871094,25.5126953 32.1521485,26.0761719 32.1521485,26.7714844 C32.1521485,27.5488281 31.9900391,28.1533203 31.6658204,28.5849609 C31.3416016,29.0166016 30.9041016,29.2324219 30.3533204,29.2324219 Z M38.0774089,22.59375 C38.2883464,22.59375 38.4485026,22.5351562 38.5578776,22.4179688 C38.6672526,22.3007812 38.7219401,22.1542969 38.7219401,21.9785156 C38.7219401,21.8027344 38.6672526,21.6542969 38.5578776,21.5332031 C38.4485026,21.4121094 38.2883464,21.3515625 38.0774089,21.3515625 C37.8664714,21.3515625 37.7072917,21.4121094 37.5998698,21.5332031 C37.4924479,21.6542969 37.438737,21.8027344 37.438737,21.9785156 C37.438737,22.1542969 37.4924479,22.3007812 37.5998698,22.4179688 C37.7072917,22.5351562 37.8664714,22.59375 38.0774089,22.59375 Z M38.610612,30 L38.610612,23.6601562 L37.5266276,23.6601562 L37.5266276,30 L38.610612,30 Z M41.3623047,30 L41.3623047,25.4824219 C41.5107422,25.1777344 41.7177734,24.9316406 41.9833984,24.7441406 C42.2490234,24.5566406 42.5576172,24.4628906 42.9091797,24.4628906 C43.3427734,24.4628906 43.6621094,24.5722656 43.8671875,24.7910156 C44.0722656,25.0097656 44.1767578,25.3476562 44.1806641,25.8046875 L44.1806641,25.8046875 L44.1806641,30 L45.2646484,30 L45.2646484,25.8105469 C45.2529297,24.2988281 44.5771484,23.5429688 43.2373047,23.5429688 C42.4560547,23.5429688 41.8232422,23.8476562 41.3388672,24.4570312 L41.3388672,24.4570312 L41.3037109,23.6601562 L40.2783203,23.6601562 L40.2783203,30 L41.3623047,30 Z M48.6843099,30.1171875 C48.9538411,30.1171875 49.2311849,30.078125 49.5163411,30 L49.5163411,30 L49.5163411,29.1210938 C49.2975911,29.1679688 49.1257161,29.1914062 49.0007161,29.1914062 C48.7468099,29.1914062 48.5671224,29.1279297 48.4616536,29.0009766 C48.3561849,28.8740234 48.3034505,28.6835938 48.3034505,28.4296875 L48.3034505,28.4296875 L48.3034505,24.4980469 L49.4870443,24.4980469 L49.4870443,23.6601562 L48.3034505,23.6601562 L48.3034505,22.125 L47.2194661,22.125 L47.2194661,23.6601562 L46.0651693,23.6601562 L46.0651693,24.4980469 L47.2194661,24.4980469 L47.2194661,28.4296875 C47.2194661,28.96875 47.342513,29.3847656 47.5886068,29.6777344 C47.8347005,29.9707031 48.1999349,30.1171875 48.6843099,30.1171875 Z M53.3168619,30.1171875 C54.3793619,30.1171875 55.1762369,29.7089844 55.7074869,28.8925781 L55.7074869,28.8925781 L55.0453776,28.3769531 C54.8461588,28.6347656 54.6137369,28.8417969 54.3481119,28.9980469 C54.0824869,29.1542969 53.7582682,29.2324219 53.3754557,29.2324219 C52.8363932,29.2324219 52.3920573,29.0400391 52.0424479,28.6552734 C51.6928385,28.2705078 51.5102213,27.765625 51.4945963,27.140625 L51.4945963,27.140625 L55.7895182,27.140625 L55.7895182,26.6894531 C55.7895182,25.6777344 55.5610026,24.9003906 55.1039713,24.3574219 C54.6469401,23.8144531 54.0063151,23.5429688 53.1820963,23.5429688 C52.6781901,23.5429688 52.2104166,23.6826172 51.778776,23.9619141 C51.3471354,24.2412109 51.0111979,24.6279297 50.7709635,25.1220703 C50.5307291,25.6162109 50.4106119,26.1777344 50.4106119,26.8066406 L50.4106119,26.8066406 L50.4106119,27.0058594 C50.4106119,27.9511719 50.6801432,28.7060547 51.2192057,29.2705078 C51.7582682,29.8349609 52.4574869,30.1171875 53.3168619,30.1171875 Z M54.7055338,26.25 L51.5297526,26.25 C51.6000651,25.6757812 51.7836588,25.2294922 52.0805338,24.9111328 C52.3774088,24.5927734 52.7445963,24.4335938 53.1820963,24.4335938 C53.6352213,24.4335938 53.9945963,24.5849609 54.2602213,24.8876953 C54.5258463,25.1904297 54.6742838,25.6171875 54.7055338,26.1679688 L54.7055338,26.1679688 L54.7055338,26.25 Z M58.0607421,30 L58.0607421,25.5 C58.3146484,24.8945312 58.7970703,24.5917969 59.5080078,24.5917969 C59.699414,24.5917969 59.8771484,24.6054688 60.0412109,24.6328125 L60.0412109,24.6328125 L60.0412109,23.625 C59.9318359,23.5703125 59.7716796,23.5429688 59.5607421,23.5429688 C58.9083984,23.5429688 58.4044921,23.8261719 58.0490234,24.3925781 L58.0490234,24.3925781 L58.0314453,23.6601562 L56.9767578,23.6601562 L56.9767578,30 L58.0607421,30 Z M63.6249348,22.7226562 L65.1952473,21 L63.8827473,21 L62.7518879,22.7226562 L63.6249348,22.7226562 Z M63.4901692,30.1171875 C64.5526692,30.1171875 65.3495442,29.7089844 65.8807942,28.8925781 L65.8807942,28.8925781 L65.2186848,28.3769531 C65.0194661,28.6347656 64.7870442,28.8417969 64.5214192,28.9980469 C64.2557942,29.1542969 63.9315754,29.2324219 63.5487629,29.2324219 C63.0097004,29.2324219 62.5653645,29.0400391 62.2157551,28.6552734 C61.8661458,28.2705078 61.6835286,27.765625 61.6679036,27.140625 L61.6679036,27.140625 L65.9628254,27.140625 L65.9628254,26.6894531 C65.9628254,25.6777344 65.7343098,24.9003906 65.2772786,24.3574219 C64.8202473,23.8144531 64.1796223,23.5429688 63.3554036,23.5429688 C62.8514973,23.5429688 62.3837239,23.6826172 61.9520833,23.9619141 C61.5204426,24.2412109 61.1845051,24.6279297 60.9442708,25.1220703 C60.7040364,25.6162109 60.5839192,26.1777344 60.5839192,26.8066406 L60.5839192,26.8066406 L60.5839192,27.0058594 C60.5839192,27.9511719 60.8534504,28.7060547 61.3925129,29.2705078 C61.9315754,29.8349609 62.6307942,30.1171875 63.4901692,30.1171875 Z M64.8788411,26.25 L61.7030598,26.25 C61.7733723,25.6757812 61.9569661,25.2294922 62.2538411,24.9111328 C62.5507161,24.5927734 62.9179036,24.4335938 63.3554036,24.4335938 C63.8085286,24.4335938 64.1679036,24.5849609 64.4335286,24.8876953 C64.6991536,25.1904297 64.8475911,25.6171875 64.8788411,26.1679688 L64.8788411,26.1679688 L64.8788411,26.25 Z M69.4820963,30.1171875 C70.2047525,30.1171875 70.7926431,29.9462891 71.2457681,29.6044922 C71.6988931,29.2626953 71.9254556,28.8085938 71.9254556,28.2421875 C71.9254556,27.9023438 71.8444009,27.6142578 71.6822916,27.3779297 C71.5201822,27.1416016 71.2711588,26.9394531 70.9352213,26.7714844 C70.5992838,26.6035156 70.1608072,26.4589844 69.6197916,26.3378906 C69.0787759,26.2167969 68.7047525,26.0898438 68.4977213,25.9570312 C68.29069,25.8242188 68.1871744,25.6269531 68.1871744,25.3652344 C68.1871744,25.0878906 68.2985025,24.8632812 68.5211588,24.6914062 C68.743815,24.5195312 69.0524088,24.4335938 69.44694,24.4335938 C69.8297525,24.4335938 70.1471353,24.5410156 70.3990884,24.7558594 C70.6510416,24.9707031 70.7770181,25.2265625 70.7770181,25.5234375 L70.7770181,25.5234375 L71.8668619,25.5234375 C71.8668619,24.9453125 71.6432291,24.4707031 71.1959634,24.0996094 C70.7486978,23.7285156 70.16569,23.5429688 69.44694,23.5429688 C68.7633463,23.5429688 68.2018228,23.7226562 67.7623697,24.0820312 C67.3229166,24.4414062 67.10319,24.8808594 67.10319,25.4003906 C67.10319,25.7128906 67.1803384,25.9824219 67.3346353,26.2089844 C67.4889322,26.4355469 67.7272134,26.6308594 68.0494791,26.7949219 C68.3717447,26.9589844 68.8072916,27.0996094 69.3561197,27.2167969 C69.9049478,27.3339844 70.2897134,27.4736328 70.5104166,27.6357422 C70.7311197,27.7978516 70.8414713,28.0253906 70.8414713,28.3183594 C70.8414713,28.5957031 70.7174478,28.8173828 70.4694009,28.9833984 C70.2213541,29.1494141 69.8922525,29.2324219 69.4820963,29.2324219 C69.0367838,29.2324219 68.6783853,29.1259766 68.4069009,28.9130859 C68.1354166,28.7001953 67.9899088,28.4121094 67.9703775,28.0488281 L67.9703775,28.0488281 L66.8863931,28.0488281 C66.8863931,28.4238281 66.9967447,28.7724609 67.2174478,29.0947266 C67.4381509,29.4169922 67.743815,29.6679688 68.13444,29.8476562 C68.525065,30.0273438 68.9742838,30.1171875 69.4820963,30.1171875 Z" id="14cuotascerointerés" fill="#FF5500" fill-rule="nonzero"></path>
            </g>
        </g>
    </g>
</svg>