<?xml version="1.0" encoding="UTF-8"?>
<svg width="97px" height="56px" viewBox="0 0 97 56" version="1.1" xmlns="http://www.w3.org/2000/svg" xmlns:xlink="http://www.w3.org/1999/xlink">
    <title>15%</title>
    <defs>
        <path d="M52,0 C63.045695,-2.02906125e-15 72,8.954305 72,20 C72,31.045695 63.045695,40 52,40 L42.606,40 L36.5,46.1066017 L30.393,40 L20,40 C8.954305,40 1.3527075e-15,31.045695 0,20 C-1.3527075e-15,8.954305 8.954305,2.02906125e-15 20,0 L52,0 Z" id="path-1"></path>
        <filter x="-6.7%" y="-10.4%" width="113.3%" height="121.1%" filterUnits="objectBoundingBox" id="filter-2">
            <feMorphology radius="0.299999982" operator="dilate" in="SourceAlpha" result="shadowSpreadOuter1"></feMorphology>
            <feOffset dx="0" dy="0" in="shadowSpreadOuter1" result="shadowOffsetOuter1"></feOffset>
            <feGaussianBlur stdDeviation="1.5" in="shadowOffsetOuter1" result="shadowBlurOuter1"></feGaussianBlur>
            <feComposite in="shadowBlurOuter1" in2="SourceAlpha" operator="out" result="shadowBlurOuter1"></feComposite>
            <feColorMatrix values="0 0 0 0 0   0 0 0 0 0   0 0 0 0 0  0 0 0 0.3 0" type="matrix" in="shadowBlurOuter1"></feColorMatrix>
        </filter>
    </defs>
    <g id="Icons-old" stroke="none" stroke-width="1" fill="none" fill-rule="evenodd">
        <g id="Group-9-Copy" transform="translate(1.000000, 0.000000)">
            <g id="Group-3-Copy-4" transform="translate(11.000000, 6.000000)">
                <g id="Combined-Shape">
                    <use fill="black" fill-opacity="1" filter="url(#filter-2)" xlink:href="#path-1"></use>
                    <use stroke="#AAAAAA" stroke-width="0.599999964" fill="#FFFFFF" fill-rule="evenodd" xlink:href="#path-1"></use>
                </g>
                <path d="M29.8148763,24 L29.8148763,14.7260742 L29.618099,14.7260742 L26.0126302,16.0527344 L26.0126302,17.3540039 L28.2787435,16.5795898 L28.2787435,24 L29.8148763,24 Z M36.0903103,24.1269531 C37.0339952,24.1269531 37.776671,23.8487142 38.3183377,23.2922363 C38.8600044,22.7357585 39.1308377,21.987793 39.1308377,21.0483398 C39.1308377,20.0961914 38.8864529,19.3387044 38.3976834,18.7758789 C37.9089139,18.2130534 37.2244249,17.9316406 36.3442166,17.9316406 C35.8067817,17.9316406 35.3243598,18.054362 34.896951,18.2998047 L34.896951,18.2998047 L35.1508572,16.0908203 L38.8324978,16.0908203 L38.8324978,14.7578125 L33.8686307,14.7578125 L33.3671658,19.4169922 L34.5986111,19.7216797 C34.8271267,19.5058594 35.0387153,19.3609212 35.2333767,19.2868652 C35.4280382,19.2128092 35.6650174,19.1757812 35.9443142,19.1757812 C36.4563585,19.1757812 36.8583767,19.3397624 37.1503689,19.6677246 C37.4423611,19.9956868 37.5883572,20.4410807 37.5883572,21.0039062 C37.5883572,21.5878906 37.4561144,22.0491536 37.1916287,22.3876953 C36.927143,22.726237 36.557921,22.8955078 36.0839627,22.8955078 C35.6607856,22.8955078 35.3180122,22.7759603 35.0556424,22.5368652 C34.7932726,22.2977702 34.6324653,21.9539388 34.5732205,21.5053711 L34.5732205,21.5053711 L33.0815213,21.5053711 C33.1280708,22.2924805 33.4295844,22.9261882 33.9860623,23.4064941 C34.5425402,23.8868001 35.2439562,24.1269531 36.0903103,24.1269531 Z M42.1753147,18.921875 C42.759299,18.921875 43.2300835,18.7441406 43.5876682,18.3886719 C43.9452528,18.0332031 44.1240451,17.5782878 44.1240451,17.0239258 L44.1240451,17.0239258 L44.1240451,16.5668945 C44.1240451,15.9871419 43.9452528,15.5184733 43.5876682,15.1608887 C43.2300835,14.803304 42.7550673,14.6245117 42.1626193,14.6245117 C41.578635,14.6245117 41.1067925,14.803304 40.747092,15.1608887 C40.3873915,15.5184733 40.2075412,15.9765625 40.2075412,16.5351562 L40.2075412,16.5351562 L40.2075412,16.9858398 C40.2075412,17.5782878 40.3926812,18.0490723 40.7629611,18.3981934 C41.1332411,18.7473145 41.6040256,18.921875 42.1753147,18.921875 Z M42.1753147,18.0014648 C41.9087131,18.0014648 41.6939507,17.9115397 41.5310276,17.7316895 C41.3681044,17.5518392 41.2866428,17.315918 41.2866428,17.0239258 L41.2866428,17.0239258 L41.2866428,16.5541992 C41.2866428,16.2537435 41.3659885,16.0114746 41.5246799,15.8273926 C41.6833713,15.6433105 41.8960178,15.5512695 42.1626193,15.5512695 C42.4292209,15.5512695 42.6439833,15.6422526 42.8069065,15.8242188 C42.9698296,16.0061849 43.0512912,16.2431641 43.0512912,16.5351562 L43.0512912,16.5351562 L43.0512912,16.9985352 C43.0512912,17.3074544 42.9708876,17.5518392 42.8100803,17.7316895 C42.649273,17.9115397 42.4376845,18.0014648 42.1753147,18.0014648 Z M42.4926975,23.3081055 L47.0058811,16.0844727 L46.212424,15.6274414 L41.6992404,22.8510742 L42.4926975,23.3081055 Z M46.6250217,24.1269531 C47.2174696,24.1269531 47.69037,23.9481608 48.0437229,23.5905762 C48.3970757,23.2329915 48.5737522,22.7791341 48.5737522,22.2290039 L48.5737522,22.2290039 L48.5737522,21.7783203 C48.5737522,21.1816406 48.3907281,20.7076823 48.0246799,20.3564453 C47.6586317,20.0052083 47.1878472,19.8295898 46.6123264,19.8295898 C46.0410373,19.8295898 45.5713108,20.0052083 45.2031467,20.3564453 C44.8349826,20.7076823 44.6509006,21.1668294 44.6509006,21.7338867 L44.6509006,21.7338867 L44.6509006,22.1972656 C44.6509006,22.7770182 44.8318088,23.243571 45.1936252,23.5969238 C45.5554416,23.9502767 46.0325738,24.1269531 46.6250217,24.1269531 Z M46.6250217,23.2128906 C46.3626519,23.2128906 46.1478895,23.1208496 45.9807346,22.9367676 C45.8135796,22.7526855 45.7300022,22.5167643 45.7300022,22.2290039 L45.7300022,22.2290039 L45.7300022,21.7592773 C45.7300022,21.4461263 45.8114637,21.2006836 45.9743869,21.0229492 C46.1373101,20.8452148 46.3499566,20.7563477 46.6123264,20.7563477 C46.8704644,20.7563477 47.0820529,20.8452148 47.247092,21.0229492 C47.4121311,21.2006836 47.4946506,21.4376628 47.4946506,21.7338867 L47.4946506,21.7338867 L47.4946506,22.2099609 C47.4946506,22.5273438 47.4174208,22.7738444 47.2629611,22.9494629 C47.1085015,23.1250814 46.895855,23.2128906 46.6250217,23.2128906 Z" id="15%" fill="#FF5500" fill-rule="nonzero"></path>
            </g>
        </g>
    </g>
</svg>