<?xml version="1.0" encoding="UTF-8"?>
<svg width="97px" height="56px" viewBox="0 0 97 56" version="1.1" xmlns="http://www.w3.org/2000/svg" xmlns:xlink="http://www.w3.org/1999/xlink">
    <title>20%</title>
    <defs>
        <path d="M52,0 C63.045695,-2.02906125e-15 72,8.954305 72,20 C72,31.045695 63.045695,40 52,40 L42.606,40 L36.5,46.1066017 L30.393,40 L20,40 C8.954305,40 1.3527075e-15,31.045695 0,20 C-1.3527075e-15,8.954305 8.954305,2.02906125e-15 20,0 L52,0 Z" id="path-1"></path>
        <filter x="-6.7%" y="-10.4%" width="113.3%" height="121.1%" filterUnits="objectBoundingBox" id="filter-2">
            <feMorphology radius="0.299999982" operator="dilate" in="SourceAlpha" result="shadowSpreadOuter1"></feMorphology>
            <feOffset dx="0" dy="0" in="shadowSpreadOuter1" result="shadowOffsetOuter1"></feOffset>
            <feGaussianBlur stdDeviation="1.5" in="shadowOffsetOuter1" result="shadowBlurOuter1"></feGaussianBlur>
            <feComposite in="shadowBlurOuter1" in2="SourceAlpha" operator="out" result="shadowBlurOuter1"></feComposite>
            <feColorMatrix values="0 0 0 0 0   0 0 0 0 0   0 0 0 0 0  0 0 0 0.3 0" type="matrix" in="shadowBlurOuter1"></feColorMatrix>
        </filter>
    </defs>
    <g id="Icons-old" stroke="none" stroke-width="1" fill="none" fill-rule="evenodd">
        <g id="Group-9-Copy-2" transform="translate(1.000000, 0.000000)">
            <g id="Group-3-Copy-4" transform="translate(11.000000, 6.000000)">
                <g id="Combined-Shape">
                    <use fill="black" fill-opacity="1" filter="url(#filter-2)" xlink:href="#path-1"></use>
                    <use stroke="#AAAAAA" stroke-width="0.599999964" fill="#FFFFFF" fill-rule="evenodd" xlink:href="#path-1"></use>
                </g>
                <path d="M31.852474,24 L31.852474,22.7685547 L27.5614584,22.7685547 L29.821224,20.3500977 C30.4136719,19.7068685 30.8400228,19.1324056 31.1002767,18.626709 C31.3605306,18.1210124 31.4906576,17.6375326 31.4906576,17.1762695 C31.4906576,16.3806966 31.2314616,15.7575684 30.7130697,15.3068848 C30.1946778,14.8562012 29.4869141,14.6308594 28.5897787,14.6308594 C27.9677084,14.6308594 27.4186361,14.7556966 26.9425619,15.0053711 C26.4664877,15.2550456 26.1004395,15.6052246 25.8444173,16.0559082 C25.5883952,16.5065918 25.4603841,17.0133464 25.4603841,17.5761719 L25.4603841,17.5761719 L27.0028646,17.5761719 C27.0028646,17.0472005 27.1403972,16.6303711 27.4154623,16.3256836 C27.6905274,16.0209961 28.0777344,15.8686523 28.5770834,15.8686523 C28.9960287,15.8686523 29.3292806,16.004069 29.5768392,16.2749023 C29.8243978,16.5457357 29.9481771,16.9012044 29.9481771,17.3413086 C29.9481771,17.6756185 29.8540202,18.0088704 29.6657064,18.3410645 C29.4773926,18.6732585 29.1610677,19.0869141 28.7167318,19.5820312 L28.7167318,19.5820312 L25.6381185,22.9399414 L25.6381185,24 L31.852474,24 Z M35.9633572,24.1269531 C36.9789822,24.1269531 37.7354113,23.7894694 38.2326443,23.114502 C38.7298774,22.4395345 38.9784939,21.4376628 38.9784939,20.1088867 L38.9784939,20.1088867 L38.9784939,18.5092773 C38.9657986,17.2185872 38.7108344,16.2495117 38.2136014,15.6020508 C37.7163683,14.9545898 36.9620551,14.6308594 35.9506619,14.6308594 C34.9308051,14.6308594 34.1722602,14.9630534 33.6750271,15.6274414 C33.1777941,16.2918294 32.9291775,17.2884115 32.9291775,18.6171875 L32.9291775,18.6171875 L32.9291775,20.2167969 C32.9418728,21.507487 33.2010688,22.4818522 33.7067654,23.1398926 C34.212462,23.7979329 34.9646593,24.1269531 35.9633572,24.1269531 Z M35.9633572,22.8955078 C35.4470812,22.8955078 35.0683377,22.6839193 34.8271267,22.2607422 C34.5859158,21.8375651 34.4653103,21.1943359 34.4653103,20.3310547 L34.4653103,20.3310547 L34.4653103,18.2363281 C34.4780057,17.4238281 34.6028429,16.8260905 34.8398221,16.4431152 C35.0768012,16.06014 35.4470812,15.8686523 35.9506619,15.8686523 C36.4669379,15.8686523 36.8435655,16.0707194 37.0805447,16.4748535 C37.3175239,16.8789876 37.4360135,17.5148112 37.4360135,18.3823242 L37.4360135,18.3823242 L37.4360135,20.4707031 C37.4233182,21.304362 37.2984809,21.9169108 37.0615017,22.3083496 C36.8245226,22.6997884 36.4584744,22.8955078 35.9633572,22.8955078 Z M42.1753147,18.921875 C42.759299,18.921875 43.2300835,18.7441406 43.5876682,18.3886719 C43.9452528,18.0332031 44.1240451,17.5782878 44.1240451,17.0239258 L44.1240451,17.0239258 L44.1240451,16.5668945 C44.1240451,15.9871419 43.9452528,15.5184733 43.5876682,15.1608887 C43.2300835,14.803304 42.7550673,14.6245117 42.1626193,14.6245117 C41.578635,14.6245117 41.1067925,14.803304 40.747092,15.1608887 C40.3873915,15.5184733 40.2075412,15.9765625 40.2075412,16.5351562 L40.2075412,16.5351562 L40.2075412,16.9858398 C40.2075412,17.5782878 40.3926812,18.0490723 40.7629611,18.3981934 C41.1332411,18.7473145 41.6040256,18.921875 42.1753147,18.921875 Z M42.1753147,18.0014648 C41.9087131,18.0014648 41.6939507,17.9115397 41.5310276,17.7316895 C41.3681044,17.5518392 41.2866428,17.315918 41.2866428,17.0239258 L41.2866428,17.0239258 L41.2866428,16.5541992 C41.2866428,16.2537435 41.3659885,16.0114746 41.5246799,15.8273926 C41.6833713,15.6433105 41.8960178,15.5512695 42.1626193,15.5512695 C42.4292209,15.5512695 42.6439833,15.6422526 42.8069065,15.8242188 C42.9698296,16.0061849 43.0512912,16.2431641 43.0512912,16.5351562 L43.0512912,16.5351562 L43.0512912,16.9985352 C43.0512912,17.3074544 42.9708876,17.5518392 42.8100803,17.7316895 C42.649273,17.9115397 42.4376845,18.0014648 42.1753147,18.0014648 Z M42.4926975,23.3081055 L47.0058811,16.0844727 L46.212424,15.6274414 L41.6992404,22.8510742 L42.4926975,23.3081055 Z M46.6250217,24.1269531 C47.2174696,24.1269531 47.69037,23.9481608 48.0437229,23.5905762 C48.3970757,23.2329915 48.5737522,22.7791341 48.5737522,22.2290039 L48.5737522,22.2290039 L48.5737522,21.7783203 C48.5737522,21.1816406 48.3907281,20.7076823 48.0246799,20.3564453 C47.6586317,20.0052083 47.1878472,19.8295898 46.6123264,19.8295898 C46.0410373,19.8295898 45.5713108,20.0052083 45.2031467,20.3564453 C44.8349826,20.7076823 44.6509006,21.1668294 44.6509006,21.7338867 L44.6509006,21.7338867 L44.6509006,22.1972656 C44.6509006,22.7770182 44.8318088,23.243571 45.1936252,23.5969238 C45.5554416,23.9502767 46.0325738,24.1269531 46.6250217,24.1269531 Z M46.6250217,23.2128906 C46.3626519,23.2128906 46.1478895,23.1208496 45.9807346,22.9367676 C45.8135796,22.7526855 45.7300022,22.5167643 45.7300022,22.2290039 L45.7300022,22.2290039 L45.7300022,21.7592773 C45.7300022,21.4461263 45.8114637,21.2006836 45.9743869,21.0229492 C46.1373101,20.8452148 46.3499566,20.7563477 46.6123264,20.7563477 C46.8704644,20.7563477 47.0820529,20.8452148 47.247092,21.0229492 C47.4121311,21.2006836 47.4946506,21.4376628 47.4946506,21.7338867 L47.4946506,21.7338867 L47.4946506,22.2099609 C47.4946506,22.5273438 47.4174208,22.7738444 47.2629611,22.9494629 C47.1085015,23.1250814 46.895855,23.2128906 46.6250217,23.2128906 Z" id="20%" fill="#FF5500" fill-rule="nonzero"></path>
            </g>
        </g>
    </g>
</svg>