<?xml version="1.0" encoding="UTF-8"?>
<svg width="97px" height="56px" viewBox="0 0 97 56" version="1.1" xmlns="http://www.w3.org/2000/svg" xmlns:xlink="http://www.w3.org/1999/xlink">
    <title>8_cuotas_cero_interes</title>
    <defs>
        <path d="M62,0 C73.045695,-2.02906125e-15 82,8.954305 82,20 C82,31.045695 73.045695,40 62,40 L48.523,40 L41.5694444,46.1066017 L34.615,40 L20,40 C8.954305,40 1.3527075e-15,31.045695 0,20 C-1.3527075e-15,8.954305 8.954305,2.02906125e-15 20,0 L62,0 Z" id="path-1"></path>
        <filter x="-5.9%" y="-10.4%" width="111.7%" height="121.0%" filterUnits="objectBoundingBox" id="filter-2">
            <feMorphology radius="0.299999982" operator="dilate" in="SourceAlpha" result="shadowSpreadOuter1"></feMorphology>
            <feOffset dx="0" dy="0" in="shadowSpreadOuter1" result="shadowOffsetOuter1"></feOffset>
            <feGaussianBlur stdDeviation="1.5" in="shadowOffsetOuter1" result="shadowBlurOuter1"></feGaussianBlur>
            <feComposite in="shadowBlurOuter1" in2="SourceAlpha" operator="out" result="shadowBlurOuter1"></feComposite>
            <feColorMatrix values="0 0 0 0 0   0 0 0 0 0   0 0 0 0 0  0 0 0 0.3 0" type="matrix" in="shadowBlurOuter1"></feColorMatrix>
        </filter>
    </defs>
    <g id="Icons-old" stroke="none" stroke-width="1" fill="none" fill-rule="evenodd">
        <g id="Group-7-Copy-4" transform="translate(1.000000, 0.000000)">
            <g id="Group-3-Copy-4" transform="translate(6.000000, 6.000000)">
                <g id="Combined-Shape">
                    <use fill="black" fill-opacity="1" filter="url(#filter-2)" xlink:href="#path-1"></use>
                    <use stroke="#AAAAAA" stroke-width="0.599999964" fill="#FFFFFF" fill-rule="evenodd" xlink:href="#path-1"></use>
                </g>
                <path d="M22.0440105,18.1171875 C22.8877605,18.1171875 23.5635417,17.8974609 24.0713542,17.4580078 C24.5791667,17.0185547 24.833073,16.4238281 24.833073,15.6738281 C24.833073,15.2207031 24.7129558,14.8144531 24.4727214,14.4550781 C24.2324871,14.0957031 23.8897136,13.8125 23.4444011,13.6054688 C23.8154949,13.4179688 24.1084636,13.1611328 24.3233074,12.8349609 C24.5381511,12.5087891 24.645573,12.1367188 24.645573,11.71875 C24.645573,10.9921875 24.411198,10.4160156 23.942448,9.99023438 C23.473698,9.56445312 22.8389324,9.3515625 22.0381511,9.3515625 C21.2412761,9.3515625 20.6084636,9.56445312 20.1397136,9.99023438 C19.6709636,10.4160156 19.4365886,10.9921875 19.4365886,11.71875 C19.4365886,12.1367188 19.5430339,12.5087891 19.7559246,12.8349609 C19.9688152,13.1611328 20.2588542,13.4179688 20.6260417,13.6054688 C20.1885417,13.8007812 19.848698,14.0800781 19.6065105,14.4433594 C19.364323,14.8066406 19.2432292,15.2167969 19.2432292,15.6738281 C19.2432292,16.4199219 19.4981121,17.0136719 20.0078777,17.4550781 C20.5176433,17.8964844 21.1963542,18.1171875 22.0440105,18.1171875 Z M22.0440105,13.0488281 C21.6807292,13.0488281 21.3926433,12.9335938 21.1797527,12.703125 C20.9668621,12.4726562 20.8604167,12.1621094 20.8604167,11.7714844 C20.8604167,11.3769531 20.9658855,11.0654297 21.176823,10.8369141 C21.3877605,10.6083984 21.6748699,10.4941406 22.0381511,10.4941406 C22.4014324,10.4941406 22.6904949,10.6142578 22.9053386,10.8544922 C23.1201824,11.0947266 23.2276042,11.4003906 23.2276042,11.7714844 C23.2276042,12.1621094 23.1211589,12.4726562 22.9082683,12.703125 C22.6953777,12.9335938 22.4072917,13.0488281 22.0440105,13.0488281 Z M22.0440105,16.9804688 C21.614323,16.9804688 21.2774089,16.8554688 21.0332683,16.6054688 C20.7891277,16.3554688 20.6670574,16.0214844 20.6670574,15.6035156 C20.6670574,15.1777344 20.7910808,14.8359375 21.0391277,14.578125 C21.2871746,14.3203125 21.6182292,14.1914062 22.0322917,14.1914062 C22.4463542,14.1914062 22.7793621,14.3212891 23.0313152,14.5810547 C23.2832683,14.8408203 23.4092449,15.1816406 23.4092449,15.6035156 C23.4092449,16.0371094 23.2891277,16.375 23.0488933,16.6171875 C22.8086589,16.859375 22.473698,16.9804688 22.0440105,16.9804688 Z M31.6606771,18.1171875 C32.1177084,18.1171875 32.5434896,18.0175781 32.9380209,17.8183594 C33.3325521,17.6191406 33.6450521,17.3486328 33.8755209,17.0068359 C34.1059896,16.6650391 34.2290365,16.296875 34.2446615,15.9023438 L34.2446615,15.9023438 L32.9028646,15.9023438 C32.8872396,16.2070312 32.7622396,16.4628906 32.5278646,16.6699219 C32.2934896,16.8769531 31.9985677,16.9804688 31.643099,16.9804688 C31.174349,16.9804688 30.8159506,16.8115234 30.5679037,16.4736328 C30.3198568,16.1357422 30.1958334,15.6230469 30.1958334,14.9355469 L30.1958334,14.9355469 L30.1958334,14.7070312 C30.1997396,14.0273438 30.3266927,13.5205078 30.5766927,13.1865234 C30.8266927,12.8525391 31.1821615,12.6855469 31.643099,12.6855469 C32.002474,12.6855469 32.2983724,12.8027344 32.5307943,13.0371094 C32.7632162,13.2714844 32.8872396,13.5703125 32.9028646,13.9335938 L32.9028646,13.9335938 L34.2446615,13.9335938 C34.221224,13.21875 33.9722006,12.6416016 33.4975912,12.2021484 C33.0229818,11.7626953 32.408724,11.5429688 31.6548177,11.5429688 C30.7641927,11.5429688 30.0610677,11.8330078 29.5454427,12.4130859 C29.0298177,12.9931641 28.7720052,13.765625 28.7720052,14.7304688 L28.7720052,14.7304688 L28.7720052,14.8769531 C28.7720052,15.8886719 29.0317709,16.6816406 29.5513021,17.2558594 C30.0708334,17.8300781 30.7739584,18.1171875 31.6606771,18.1171875 Z M37.3127604,18.1171875 C38.0822917,18.1171875 38.6760417,17.8710938 39.0940104,17.3789062 L39.0940104,17.3789062 L39.1291667,18 L40.4709636,18 L40.4709636,11.6601562 L39.0471354,11.6601562 L39.0471354,16.2128906 C38.8049479,16.7089844 38.3381511,16.9570312 37.6467448,16.9570312 C36.9787761,16.9570312 36.6447917,16.5546875 36.6447917,15.75 L36.6447917,15.75 L36.6447917,11.6601562 L35.2209636,11.6601562 L35.2209636,15.7675781 C35.2209636,16.5292969 35.3977214,17.1113281 35.751237,17.5136719 C36.1047526,17.9160156 36.6252604,18.1171875 37.3127604,18.1171875 Z M44.5410156,18.1171875 C45.1269531,18.1171875 45.6435547,17.9824219 46.0908203,17.7128906 C46.5380859,17.4433594 46.8818359,17.0625 47.1220703,16.5703125 C47.3623047,16.078125 47.4824219,15.5195312 47.4824219,14.8945312 L47.4824219,14.8945312 L47.4765625,14.5605469 C47.4335938,13.6503906 47.1455078,12.9199219 46.6123047,12.3691406 C46.0791016,11.8183594 45.3847656,11.5429688 44.5292969,11.5429688 C43.9511719,11.5429688 43.4394531,11.6767578 42.9941406,11.9443359 C42.5488281,12.2119141 42.203125,12.5947266 41.9570313,13.0927734 C41.7109375,13.5908203 41.5878906,14.1503906 41.5878906,14.7714844 L41.5878906,14.7714844 L41.5878906,14.8417969 C41.5878906,15.8339844 41.8564453,16.6279297 42.3935547,17.2236328 C42.9306641,17.8193359 43.6464844,18.1171875 44.5410156,18.1171875 Z M44.5410156,16.9804688 C44.0605469,16.9804688 43.6855469,16.7958984 43.4160156,16.4267578 C43.1464844,16.0576172 43.0117188,15.546875 43.0117188,14.8945312 C43.0117188,14.1601562 43.1484375,13.6083984 43.421875,13.2392578 C43.6953125,12.8701172 44.0644531,12.6855469 44.5292969,12.6855469 C45.0019531,12.6855469 45.3759766,12.8730469 45.6513672,13.2480469 C45.9267578,13.6230469 46.0644531,14.1308594 46.0644531,14.7714844 C46.0644531,15.4941406 45.9306641,16.0429688 45.6630859,16.4179688 C45.3955078,16.7929688 45.0214844,16.9804688 44.5410156,16.9804688 Z M50.6208333,18.1171875 C50.9216146,18.1171875 51.2341146,18.0722656 51.5583333,17.9824219 L51.5583333,17.9824219 L51.5583333,16.8808594 C51.3903646,16.9199219 51.2243489,16.9394531 51.0602864,16.9394531 C50.8141927,16.9394531 50.6432943,16.8857422 50.5475911,16.7783203 C50.451888,16.6708984 50.4040364,16.4960938 50.4040364,16.2539062 L50.4040364,16.2539062 L50.4040364,12.7148438 L51.5231771,12.7148438 L51.5231771,11.6601562 L50.4040364,11.6601562 L50.4040364,10.1191406 L48.9802083,10.1191406 L48.9802083,11.6601562 L47.9372396,11.6601562 L47.9372396,12.7148438 L48.9802083,12.7148438 L48.9802083,16.3066406 C48.9802083,17.5136719 49.5270833,18.1171875 50.6208333,18.1171875 Z M54.5033854,18.1171875 C55.1596354,18.1171875 55.7143229,17.8808594 56.1674479,17.4082031 C56.2143229,17.6816406 56.2690104,17.8789062 56.3315104,18 L56.3315104,18 L57.7846354,18 L57.7846354,17.9003906 C57.6244791,17.5605469 57.544401,17.1054688 57.544401,16.5351562 L57.544401,16.5351562 L57.544401,13.6757812 C57.5326823,13 57.3061198,12.4755859 56.8647135,12.1025391 C56.4233073,11.7294922 55.8315104,11.5429688 55.0893229,11.5429688 C54.6010416,11.5429688 54.1586588,11.6289062 53.7621744,11.8007812 C53.3656901,11.9726562 53.0522135,12.2099609 52.8217448,12.5126953 C52.591276,12.8154297 52.4760416,13.140625 52.4760416,13.4882812 L52.4760416,13.4882812 L53.8998698,13.4882812 C53.8998698,13.2382812 54.0033854,13.0322266 54.2104166,12.8701172 C54.4174479,12.7080078 54.6830729,12.6269531 55.0072916,12.6269531 C55.3822916,12.6269531 55.6615885,12.7255859 55.8451823,12.9228516 C56.028776,13.1201172 56.1205729,13.3828125 56.1205729,13.7109375 L56.1205729,13.7109375 L56.1205729,14.1269531 L55.247526,14.1269531 C54.3139323,14.1269531 53.5961588,14.3076172 53.0942057,14.6689453 C52.5922526,15.0302734 52.341276,15.5488281 52.341276,16.2246094 C52.341276,16.7597656 52.5424479,17.2089844 52.9447916,17.5722656 C53.3471354,17.9355469 53.8666666,18.1171875 54.5033854,18.1171875 Z M54.7670573,16.9746094 C54.4623698,16.9746094 54.2192057,16.8935547 54.0375651,16.7314453 C53.8559244,16.5693359 53.7651041,16.3515625 53.7651041,16.078125 C53.7651041,15.7421875 53.8979166,15.4824219 54.1635416,15.2988281 C54.4291666,15.1152344 54.825651,15.0234375 55.3529948,15.0234375 L55.3529948,15.0234375 L56.1205729,15.0234375 L56.1205729,16.21875 C55.9955729,16.4492188 55.8090494,16.6328125 55.5610026,16.7695312 C55.3129557,16.90625 55.0483073,16.9746094 54.7670573,16.9746094 Z M61.3566406,18.1171875 C62.1222656,18.1171875 62.7414062,17.9404297 63.2140624,17.5869141 C63.6867187,17.2333984 63.9230468,16.7714844 63.9230468,16.2011719 C63.9230468,15.8613281 63.8458984,15.5722656 63.6916015,15.3339844 C63.5373046,15.0957031 63.3009765,14.8916016 62.9826171,14.7216797 C62.6642578,14.5517578 62.2257812,14.4052734 61.6671874,14.2822266 C61.1085937,14.1591797 60.7374999,14.0371094 60.5539062,13.9160156 C60.3703124,13.7949219 60.2785156,13.625 60.2785156,13.40625 C60.2785156,13.1640625 60.3771484,12.9707031 60.574414,12.8261719 C60.7716796,12.6816406 61.0265624,12.609375 61.3390624,12.609375 C61.6749999,12.609375 61.9445312,12.7001953 62.1476562,12.8818359 C62.3507812,13.0634766 62.4523437,13.2910156 62.4523437,13.5644531 L62.4523437,13.5644531 L63.8761718,13.5644531 C63.8761718,12.9667969 63.6427734,12.4804688 63.1759765,12.1054688 C62.7091796,11.7304688 62.0968749,11.5429688 61.3390624,11.5429688 C60.6281249,11.5429688 60.0421874,11.7265625 59.5812499,12.09375 C59.1203124,12.4609375 58.8898437,12.9179688 58.8898437,13.4648438 C58.8898437,14.1171875 59.2453124,14.6152344 59.9562499,14.9589844 C60.2804687,15.1152344 60.6847656,15.2441406 61.1691406,15.3457031 C61.6535156,15.4472656 62.0001953,15.5644531 62.2091796,15.6972656 C62.418164,15.8300781 62.5226562,16.0234375 62.5226562,16.2773438 C62.5226562,16.5078125 62.4249999,16.6943359 62.2296874,16.8369141 C62.0343749,16.9794922 61.7492187,17.0507812 61.3742187,17.0507812 C60.9874999,17.0507812 60.6769531,16.9599609 60.4425781,16.7783203 C60.2082031,16.5966797 60.0812499,16.3378906 60.0617187,16.0019531 L60.0617187,16.0019531 L58.6789062,16.0019531 C58.6789062,16.3808594 58.7921874,16.734375 59.0187499,17.0625 C59.2453124,17.390625 59.5617187,17.6484375 59.9679687,17.8359375 C60.3742187,18.0234375 60.8371093,18.1171875 61.3566406,18.1171875 Z M13.9126954,30.1171875 C14.3423829,30.1171875 14.7496095,30.0195312 15.1343751,29.8242188 C15.5191407,29.6289062 15.8267579,29.3671875 16.0572267,29.0390625 C16.2876954,28.7109375 16.4126954,28.3652344 16.4322267,28.0019531 L16.4322267,28.0019531 L15.4068361,28.0019531 C15.3755861,28.3535156 15.2154298,28.6464844 14.9263673,28.8808594 C14.6373048,29.1152344 14.2994142,29.2324219 13.9126954,29.2324219 C13.3541017,29.2324219 12.9244142,29.0351562 12.6236329,28.640625 C12.3228517,28.2460938 12.1724611,27.6835938 12.1724611,26.953125 L12.1724611,26.953125 L12.1724611,26.7480469 C12.1724611,25.9980469 12.3238282,25.4248047 12.6265626,25.0283203 C12.929297,24.6318359 13.3560548,24.4335938 13.9068361,24.4335938 C14.3169923,24.4335938 14.6617189,24.5654297 14.9410157,24.8291016 C15.2203126,25.0927734 15.3755861,25.4296875 15.4068361,25.8398438 L15.4068361,25.8398438 L16.4322267,25.8398438 C16.4009767,25.1601562 16.1500001,24.6074219 15.679297,24.1816406 C15.2085939,23.7558594 14.6177736,23.5429688 13.9068361,23.5429688 C13.3287111,23.5429688 12.8277345,23.6757812 12.4039064,23.9414062 C11.9800782,24.2070312 11.6548829,24.5800781 11.4283204,25.0605469 C11.2017579,25.5410156 11.0884767,26.0898438 11.0884767,26.7070312 L11.0884767,26.7070312 L11.0884767,26.8886719 C11.0884767,27.8886719 11.3433595,28.6767578 11.8531251,29.2529297 C12.3628907,29.8291016 13.0494142,30.1171875 13.9126954,30.1171875 Z M20.2151694,30.1171875 C21.2776694,30.1171875 22.0745444,29.7089844 22.6057944,28.8925781 L22.6057944,28.8925781 L21.943685,28.3769531 C21.7444662,28.6347656 21.5120444,28.8417969 21.2464194,28.9980469 C20.9807944,29.1542969 20.6565756,29.2324219 20.2737631,29.2324219 C19.7347006,29.2324219 19.2903647,29.0400391 18.9407553,28.6552734 C18.5911459,28.2705078 18.4085287,27.765625 18.3929037,27.140625 L18.3929037,27.140625 L22.6878256,27.140625 L22.6878256,26.6894531 C22.6878256,25.6777344 22.45931,24.9003906 22.0022787,24.3574219 C21.5452475,23.8144531 20.9046225,23.5429688 20.0804037,23.5429688 C19.5764975,23.5429688 19.1087241,23.6826172 18.6770834,23.9619141 C18.2454428,24.2412109 17.9095053,24.6279297 17.6692709,25.1220703 C17.4290366,25.6162109 17.3089194,26.1777344 17.3089194,26.8066406 L17.3089194,26.8066406 L17.3089194,27.0058594 C17.3089194,27.9511719 17.5784506,28.7060547 18.1175131,29.2705078 C18.6565756,29.8349609 19.3557944,30.1171875 20.2151694,30.1171875 Z M21.6038412,26.25 L18.42806,26.25 C18.4983725,25.6757812 18.6819662,25.2294922 18.9788412,24.9111328 C19.2757162,24.5927734 19.6429037,24.4335938 20.0804037,24.4335938 C20.5335287,24.4335938 20.8929037,24.5849609 21.1585287,24.8876953 C21.4241537,25.1904297 21.5725912,25.6171875 21.6038412,26.1679688 L21.6038412,26.1679688 L21.6038412,26.25 Z M24.9590496,30 L24.9590496,25.5 C25.2129558,24.8945312 25.6953777,24.5917969 26.4063152,24.5917969 C26.5977214,24.5917969 26.7754558,24.6054688 26.9395183,24.6328125 L26.9395183,24.6328125 L26.9395183,23.625 C26.8301433,23.5703125 26.6699871,23.5429688 26.4590496,23.5429688 C25.8067058,23.5429688 25.3027996,23.8261719 24.9473308,24.3925781 L24.9473308,24.3925781 L24.9297527,23.6601562 L23.8750652,23.6601562 L23.8750652,30 L24.9590496,30 Z M30.3533204,30.1171875 C30.9236329,30.1171875 31.4285157,29.9804688 31.8679688,29.7070312 C32.3074219,29.4335938 32.6453126,29.0517578 32.8816407,28.5615234 C33.1179688,28.0712891 33.2361329,27.5175781 33.2361329,26.9003906 L33.2361329,26.9003906 L33.2361329,26.8242188 C33.2361329,25.8320312 32.9695313,25.0371094 32.4363282,24.4394531 C31.9031251,23.8417969 31.2048829,23.5429688 30.3416016,23.5429688 C29.7830079,23.5429688 29.2859376,23.6777344 28.8503907,23.9472656 C28.4148438,24.2167969 28.0750001,24.5996094 27.8308594,25.0957031 C27.5867188,25.5917969 27.4646485,26.1503906 27.4646485,26.7714844 L27.4646485,26.7714844 L27.4646485,26.8476562 C27.4646485,27.8320312 27.7312501,28.6230469 28.2644532,29.2207031 C28.7976563,29.8183594 29.4939454,30.1171875 30.3533204,30.1171875 Z M30.3533204,29.2324219 C29.8064454,29.2324219 29.3699219,29.0195312 29.0437501,28.59375 C28.7175782,28.1679688 28.5544922,27.6035156 28.5544922,26.9003906 C28.5544922,26.1074219 28.7185547,25.4980469 29.0466797,25.0722656 C29.3748047,24.6464844 29.8064454,24.4335938 30.3416016,24.4335938 C30.8884766,24.4335938 31.3269532,24.6494141 31.6570313,25.0810547 C31.9871094,25.5126953 32.1521485,26.0761719 32.1521485,26.7714844 C32.1521485,27.5488281 31.9900391,28.1533203 31.6658204,28.5849609 C31.3416016,29.0166016 30.9041016,29.2324219 30.3533204,29.2324219 Z M38.0774089,22.59375 C38.2883464,22.59375 38.4485026,22.5351562 38.5578776,22.4179688 C38.6672526,22.3007812 38.7219401,22.1542969 38.7219401,21.9785156 C38.7219401,21.8027344 38.6672526,21.6542969 38.5578776,21.5332031 C38.4485026,21.4121094 38.2883464,21.3515625 38.0774089,21.3515625 C37.8664714,21.3515625 37.7072917,21.4121094 37.5998698,21.5332031 C37.4924479,21.6542969 37.438737,21.8027344 37.438737,21.9785156 C37.438737,22.1542969 37.4924479,22.3007812 37.5998698,22.4179688 C37.7072917,22.5351562 37.8664714,22.59375 38.0774089,22.59375 Z M38.610612,30 L38.610612,23.6601562 L37.5266276,23.6601562 L37.5266276,30 L38.610612,30 Z M41.3623047,30 L41.3623047,25.4824219 C41.5107422,25.1777344 41.7177734,24.9316406 41.9833984,24.7441406 C42.2490234,24.5566406 42.5576172,24.4628906 42.9091797,24.4628906 C43.3427734,24.4628906 43.6621094,24.5722656 43.8671875,24.7910156 C44.0722656,25.0097656 44.1767578,25.3476562 44.1806641,25.8046875 L44.1806641,25.8046875 L44.1806641,30 L45.2646484,30 L45.2646484,25.8105469 C45.2529297,24.2988281 44.5771484,23.5429688 43.2373047,23.5429688 C42.4560547,23.5429688 41.8232422,23.8476562 41.3388672,24.4570312 L41.3388672,24.4570312 L41.3037109,23.6601562 L40.2783203,23.6601562 L40.2783203,30 L41.3623047,30 Z M48.6843099,30.1171875 C48.9538411,30.1171875 49.2311849,30.078125 49.5163411,30 L49.5163411,30 L49.5163411,29.1210938 C49.2975911,29.1679688 49.1257161,29.1914062 49.0007161,29.1914062 C48.7468099,29.1914062 48.5671224,29.1279297 48.4616536,29.0009766 C48.3561849,28.8740234 48.3034505,28.6835938 48.3034505,28.4296875 L48.3034505,28.4296875 L48.3034505,24.4980469 L49.4870443,24.4980469 L49.4870443,23.6601562 L48.3034505,23.6601562 L48.3034505,22.125 L47.2194661,22.125 L47.2194661,23.6601562 L46.0651693,23.6601562 L46.0651693,24.4980469 L47.2194661,24.4980469 L47.2194661,28.4296875 C47.2194661,28.96875 47.342513,29.3847656 47.5886068,29.6777344 C47.8347005,29.9707031 48.1999349,30.1171875 48.6843099,30.1171875 Z M53.3168619,30.1171875 C54.3793619,30.1171875 55.1762369,29.7089844 55.7074869,28.8925781 L55.7074869,28.8925781 L55.0453776,28.3769531 C54.8461588,28.6347656 54.6137369,28.8417969 54.3481119,28.9980469 C54.0824869,29.1542969 53.7582682,29.2324219 53.3754557,29.2324219 C52.8363932,29.2324219 52.3920573,29.0400391 52.0424479,28.6552734 C51.6928385,28.2705078 51.5102213,27.765625 51.4945963,27.140625 L51.4945963,27.140625 L55.7895182,27.140625 L55.7895182,26.6894531 C55.7895182,25.6777344 55.5610026,24.9003906 55.1039713,24.3574219 C54.6469401,23.8144531 54.0063151,23.5429688 53.1820963,23.5429688 C52.6781901,23.5429688 52.2104166,23.6826172 51.778776,23.9619141 C51.3471354,24.2412109 51.0111979,24.6279297 50.7709635,25.1220703 C50.5307291,25.6162109 50.4106119,26.1777344 50.4106119,26.8066406 L50.4106119,26.8066406 L50.4106119,27.0058594 C50.4106119,27.9511719 50.6801432,28.7060547 51.2192057,29.2705078 C51.7582682,29.8349609 52.4574869,30.1171875 53.3168619,30.1171875 Z M54.7055338,26.25 L51.5297526,26.25 C51.6000651,25.6757812 51.7836588,25.2294922 52.0805338,24.9111328 C52.3774088,24.5927734 52.7445963,24.4335938 53.1820963,24.4335938 C53.6352213,24.4335938 53.9945963,24.5849609 54.2602213,24.8876953 C54.5258463,25.1904297 54.6742838,25.6171875 54.7055338,26.1679688 L54.7055338,26.1679688 L54.7055338,26.25 Z M58.0607421,30 L58.0607421,25.5 C58.3146484,24.8945312 58.7970703,24.5917969 59.5080078,24.5917969 C59.699414,24.5917969 59.8771484,24.6054688 60.0412109,24.6328125 L60.0412109,24.6328125 L60.0412109,23.625 C59.9318359,23.5703125 59.7716796,23.5429688 59.5607421,23.5429688 C58.9083984,23.5429688 58.4044921,23.8261719 58.0490234,24.3925781 L58.0490234,24.3925781 L58.0314453,23.6601562 L56.9767578,23.6601562 L56.9767578,30 L58.0607421,30 Z M63.6249348,22.7226562 L65.1952473,21 L63.8827473,21 L62.7518879,22.7226562 L63.6249348,22.7226562 Z M63.4901692,30.1171875 C64.5526692,30.1171875 65.3495442,29.7089844 65.8807942,28.8925781 L65.8807942,28.8925781 L65.2186848,28.3769531 C65.0194661,28.6347656 64.7870442,28.8417969 64.5214192,28.9980469 C64.2557942,29.1542969 63.9315754,29.2324219 63.5487629,29.2324219 C63.0097004,29.2324219 62.5653645,29.0400391 62.2157551,28.6552734 C61.8661458,28.2705078 61.6835286,27.765625 61.6679036,27.140625 L61.6679036,27.140625 L65.9628254,27.140625 L65.9628254,26.6894531 C65.9628254,25.6777344 65.7343098,24.9003906 65.2772786,24.3574219 C64.8202473,23.8144531 64.1796223,23.5429688 63.3554036,23.5429688 C62.8514973,23.5429688 62.3837239,23.6826172 61.9520833,23.9619141 C61.5204426,24.2412109 61.1845051,24.6279297 60.9442708,25.1220703 C60.7040364,25.6162109 60.5839192,26.1777344 60.5839192,26.8066406 L60.5839192,26.8066406 L60.5839192,27.0058594 C60.5839192,27.9511719 60.8534504,28.7060547 61.3925129,29.2705078 C61.9315754,29.8349609 62.6307942,30.1171875 63.4901692,30.1171875 Z M64.8788411,26.25 L61.7030598,26.25 C61.7733723,25.6757812 61.9569661,25.2294922 62.2538411,24.9111328 C62.5507161,24.5927734 62.9179036,24.4335938 63.3554036,24.4335938 C63.8085286,24.4335938 64.1679036,24.5849609 64.4335286,24.8876953 C64.6991536,25.1904297 64.8475911,25.6171875 64.8788411,26.1679688 L64.8788411,26.1679688 L64.8788411,26.25 Z M69.4820963,30.1171875 C70.2047525,30.1171875 70.7926431,29.9462891 71.2457681,29.6044922 C71.6988931,29.2626953 71.9254556,28.8085938 71.9254556,28.2421875 C71.9254556,27.9023438 71.8444009,27.6142578 71.6822916,27.3779297 C71.5201822,27.1416016 71.2711588,26.9394531 70.9352213,26.7714844 C70.5992838,26.6035156 70.1608072,26.4589844 69.6197916,26.3378906 C69.0787759,26.2167969 68.7047525,26.0898438 68.4977213,25.9570312 C68.29069,25.8242188 68.1871744,25.6269531 68.1871744,25.3652344 C68.1871744,25.0878906 68.2985025,24.8632812 68.5211588,24.6914062 C68.743815,24.5195312 69.0524088,24.4335938 69.44694,24.4335938 C69.8297525,24.4335938 70.1471353,24.5410156 70.3990884,24.7558594 C70.6510416,24.9707031 70.7770181,25.2265625 70.7770181,25.5234375 L70.7770181,25.5234375 L71.8668619,25.5234375 C71.8668619,24.9453125 71.6432291,24.4707031 71.1959634,24.0996094 C70.7486978,23.7285156 70.16569,23.5429688 69.44694,23.5429688 C68.7633463,23.5429688 68.2018228,23.7226562 67.7623697,24.0820312 C67.3229166,24.4414062 67.10319,24.8808594 67.10319,25.4003906 C67.10319,25.7128906 67.1803384,25.9824219 67.3346353,26.2089844 C67.4889322,26.4355469 67.7272134,26.6308594 68.0494791,26.7949219 C68.3717447,26.9589844 68.8072916,27.0996094 69.3561197,27.2167969 C69.9049478,27.3339844 70.2897134,27.4736328 70.5104166,27.6357422 C70.7311197,27.7978516 70.8414713,28.0253906 70.8414713,28.3183594 C70.8414713,28.5957031 70.7174478,28.8173828 70.4694009,28.9833984 C70.2213541,29.1494141 69.8922525,29.2324219 69.4820963,29.2324219 C69.0367838,29.2324219 68.6783853,29.1259766 68.4069009,28.9130859 C68.1354166,28.7001953 67.9899088,28.4121094 67.9703775,28.0488281 L67.9703775,28.0488281 L66.8863931,28.0488281 C66.8863931,28.4238281 66.9967447,28.7724609 67.2174478,29.0947266 C67.4381509,29.4169922 67.743815,29.6679688 68.13444,29.8476562 C68.525065,30.0273438 68.9742838,30.1171875 69.4820963,30.1171875 Z" id="8cuotascerointerés" fill="#FF5500" fill-rule="nonzero"></path>
            </g>
        </g>
    </g>
</svg>