<?xml version="1.0" encoding="UTF-8"?>
<svg width="97px" height="56px" viewBox="0 0 97 56" version="1.1" xmlns="http://www.w3.org/2000/svg" xmlns:xlink="http://www.w3.org/1999/xlink">
    <title>beneficio_especial</title>
    <defs>
        <path d="M62,0 C73.045695,-2.02906125e-15 82,8.954305 82,20 C82,31.045695 73.045695,40 62,40 L48.523,40 L41.5694444,46.1066017 L34.615,40 L20,40 C8.954305,40 1.3527075e-15,31.045695 0,20 C-1.3527075e-15,8.954305 8.954305,2.02906125e-15 20,0 L62,0 Z" id="path-1"></path>
        <filter x="-5.9%" y="-10.4%" width="111.7%" height="121.0%" filterUnits="objectBoundingBox" id="filter-2">
            <feMorphology radius="0.299999982" operator="dilate" in="SourceAlpha" result="shadowSpreadOuter1"></feMorphology>
            <feOffset dx="0" dy="0" in="shadowSpreadOuter1" result="shadowOffsetOuter1"></feOffset>
            <feGaussianBlur stdDeviation="1.5" in="shadowOffsetOuter1" result="shadowBlurOuter1"></feGaussianBlur>
            <feComposite in="shadowBlurOuter1" in2="SourceAlpha" operator="out" result="shadowBlurOuter1"></feComposite>
            <feColorMatrix values="0 0 0 0 0   0 0 0 0 0   0 0 0 0 0  0 0 0 0.3 0" type="matrix" in="shadowBlurOuter1"></feColorMatrix>
        </filter>
    </defs>
    <g id="Icons-old" stroke="none" stroke-width="1" fill="none" fill-rule="evenodd">
        <g id="Group-7-Copy-20" transform="translate(1.000000, 0.000000)">
            <g id="Group-3-Copy-4" transform="translate(6.000000, 6.000000)">
                <g id="Combined-Shape">
                    <use fill="black" fill-opacity="1" filter="url(#filter-2)" xlink:href="#path-1"></use>
                    <use stroke="#AAAAAA" stroke-width="0.599999964" fill="#FFFFFF" fill-rule="evenodd" xlink:href="#path-1"></use>
                </g>
                <path d="M20.6026042,18 C21.5596355,18 22.2949871,17.7851562 22.8086589,17.3554688 C23.3223308,16.9257812 23.5791667,16.3105469 23.5791667,15.5097656 C23.5791667,15.0253906 23.4531902,14.6103516 23.2012371,14.2646484 C22.9492839,13.9189453 22.5928386,13.6835938 22.1319011,13.5585938 C22.5381511,13.3867188 22.8467449,13.1445312 23.0576824,12.8320312 C23.2686199,12.5195312 23.3740886,12.1679688 23.3740886,11.7773438 C23.3740886,11.0117188 23.1221355,10.4355469 22.6182292,10.0488281 C22.114323,9.66210938 21.379948,9.46875 20.4151042,9.46875 L20.4151042,9.46875 L17.4912761,9.46875 L17.4912761,18 L20.6026042,18 Z M20.426823,13.0605469 L18.973698,13.0605469 L18.973698,10.6640625 L20.4151042,10.6640625 C20.9229167,10.6640625 21.2969402,10.7578125 21.5371746,10.9453125 C21.7774089,11.1328125 21.8975261,11.4375 21.8975261,11.859375 C21.8975261,12.2421875 21.7676433,12.5380859 21.5078777,12.7470703 C21.2481121,12.9560547 20.8877605,13.0605469 20.426823,13.0605469 L20.426823,13.0605469 Z M20.6201824,16.8164062 L18.973698,16.8164062 L18.973698,14.1503906 L20.7432292,14.1503906 C21.6494792,14.1699219 22.1026042,14.6230469 22.1026042,15.5097656 C22.1026042,15.9199219 21.9717449,16.2402344 21.7100261,16.4707031 C21.4483074,16.7011719 21.0850261,16.8164062 20.6201824,16.8164062 L20.6201824,16.8164062 Z M27.6492188,18.1171875 C28.1765626,18.1171875 28.6521485,18.0126953 29.0759766,17.8037109 C29.4998047,17.5947266 29.8386719,17.3007812 30.0925782,16.921875 L30.0925782,16.921875 L29.3250001,16.1894531 C28.9148438,16.7167969 28.3835938,16.9804688 27.7312501,16.9804688 C27.2664063,16.9804688 26.8806641,16.828125 26.5740235,16.5234375 C26.2673829,16.21875 26.0925782,15.8046875 26.0496094,15.28125 L26.0496094,15.28125 L30.1921876,15.28125 L30.1921876,14.7070312 C30.1921876,13.6992188 29.956836,12.9199219 29.4861329,12.3691406 C29.0154297,11.8183594 28.3484376,11.5429688 27.4851563,11.5429688 C26.9421876,11.5429688 26.4500001,11.6816406 26.0085938,11.9589844 C25.5671876,12.2363281 25.2244141,12.6240234 24.9802735,13.1220703 C24.7361329,13.6201172 24.6140626,14.1855469 24.6140626,14.8183594 L24.6140626,14.8183594 L24.6140626,14.9941406 C24.6140626,15.9394531 24.894336,16.6962891 25.4548829,17.2646484 C26.0154297,17.8330078 26.7468751,18.1171875 27.6492188,18.1171875 Z M28.7859376,14.2382812 L26.0730469,14.2382812 C26.1394532,13.75 26.2927735,13.3691406 26.5330079,13.0957031 C26.7732422,12.8222656 27.0886719,12.6855469 27.4792969,12.6855469 C27.8738282,12.6855469 28.1824219,12.8076172 28.4050782,13.0517578 C28.6277344,13.2958984 28.7546876,13.65625 28.7859376,14.1328125 L28.7859376,14.1328125 L28.7859376,14.2382812 Z M32.6333334,18 L32.6333334,13.4882812 C32.9145834,12.96875 33.3423177,12.7089844 33.9165365,12.7089844 C34.3110677,12.7089844 34.5952474,12.8056641 34.7690756,12.9990234 C34.9429037,13.1923828 35.0298177,13.4902344 35.0298177,13.8925781 L35.0298177,13.8925781 L35.0298177,18 L36.4536459,18 L36.4536459,13.8105469 C36.4302084,12.2988281 35.7583334,11.5429688 34.4380209,11.5429688 C33.6763021,11.5429688 33.0610677,11.8261719 32.5923177,12.3925781 L32.5923177,12.3925781 L32.5513021,11.6601562 L31.2095052,11.6601562 L31.2095052,18 L32.6333334,18 Z M40.6291667,18.1171875 C41.1565104,18.1171875 41.6320964,18.0126953 42.0559245,17.8037109 C42.4797526,17.5947266 42.8186198,17.3007812 43.0725261,16.921875 L43.0725261,16.921875 L42.3049479,16.1894531 C41.8947917,16.7167969 41.3635417,16.9804688 40.7111979,16.9804688 C40.2463542,16.9804688 39.860612,16.828125 39.5539714,16.5234375 C39.2473307,16.21875 39.0725261,15.8046875 39.0295573,15.28125 L39.0295573,15.28125 L43.1721354,15.28125 L43.1721354,14.7070312 C43.1721354,13.6992188 42.9367839,12.9199219 42.4660807,12.3691406 C41.9953776,11.8183594 41.3283854,11.5429688 40.4651042,11.5429688 C39.9221354,11.5429688 39.4299479,11.6816406 38.9885417,11.9589844 C38.5471354,12.2363281 38.204362,12.6240234 37.9602214,13.1220703 C37.7160807,13.6201172 37.5940104,14.1855469 37.5940104,14.8183594 L37.5940104,14.8183594 L37.5940104,14.9941406 C37.5940104,15.9394531 37.8742839,16.6962891 38.4348307,17.2646484 C38.9953776,17.8330078 39.7268229,18.1171875 40.6291667,18.1171875 Z M41.7658854,14.2382812 L39.0529948,14.2382812 C39.1194011,13.75 39.2727214,13.3691406 39.5129557,13.0957031 C39.7531901,12.8222656 40.0686198,12.6855469 40.4592448,12.6855469 C40.8537761,12.6855469 41.1623698,12.8076172 41.3850261,13.0517578 C41.6076823,13.2958984 41.7346354,13.65625 41.7658854,14.1328125 L41.7658854,14.1328125 L41.7658854,14.2382812 Z M46.0117188,18 L46.0117188,12.7148438 L47.2597656,12.7148438 L47.2597656,11.6601562 L46.0117188,11.6601562 L46.0117188,11.2617188 C46.0117188,10.8828125 46.109375,10.5986328 46.3046875,10.4091797 C46.5,10.2197266 46.8144531,10.125 47.2480469,10.125 C47.6933594,10.125 48.1855469,10.21875 48.7246094,10.40625 L48.7246094,10.40625 L48.9414062,9.22851562 C48.6328125,9.12695312 48.3349609,9.04296875 48.0478516,8.9765625 C47.7607422,8.91015625 47.4609375,8.87695312 47.1484375,8.87695312 C46.6171875,8.87695312 46.1621094,8.96679688 45.7832031,9.14648438 C45.4042969,9.32617188 45.1113281,9.59375 44.9042969,9.94921875 C44.6972656,10.3046875 44.5917969,10.7304688 44.5878906,11.2265625 L44.5878906,11.2265625 L44.5878906,11.6601562 L43.6210938,11.6601562 L43.6210938,12.7148438 L44.5878906,12.7148438 L44.5878906,18 L46.0117188,18 Z M49.6152344,18 L49.6152344,11.6601562 L48.1914062,11.6601562 L48.1914062,18 L49.6152344,18 Z M53.7497396,18.1171875 C54.2067708,18.1171875 54.6325521,18.0175781 55.0270833,17.8183594 C55.4216146,17.6191406 55.7341146,17.3486328 55.9645833,17.0068359 C56.1950521,16.6650391 56.3180989,16.296875 56.3337239,15.9023438 L56.3337239,15.9023438 L54.9919271,15.9023438 C54.9763021,16.2070312 54.8513021,16.4628906 54.6169271,16.6699219 C54.3825521,16.8769531 54.0876302,16.9804688 53.7321614,16.9804688 C53.2634114,16.9804688 52.905013,16.8115234 52.6569661,16.4736328 C52.4089193,16.1357422 52.2848958,15.6230469 52.2848958,14.9355469 L52.2848958,14.9355469 L52.2848958,14.7070312 C52.2888021,14.0273438 52.4157552,13.5205078 52.6657552,13.1865234 C52.9157552,12.8525391 53.2712239,12.6855469 53.7321614,12.6855469 C54.0915364,12.6855469 54.3874349,12.8027344 54.6198568,13.0371094 C54.8522786,13.2714844 54.9763021,13.5703125 54.9919271,13.9335938 L54.9919271,13.9335938 L56.3337239,13.9335938 C56.3102864,13.21875 56.061263,12.6416016 55.5866536,12.2021484 C55.1120443,11.7626953 54.4977864,11.5429688 53.7438802,11.5429688 C52.8532552,11.5429688 52.1501302,11.8330078 51.6345052,12.4130859 C51.1188802,12.9931641 50.8610677,13.765625 50.8610677,14.7304688 L50.8610677,14.7304688 L50.8610677,14.8769531 C50.8610677,15.8886719 51.1208333,16.6816406 51.6403646,17.2558594 C52.1598958,17.8300781 52.8630208,18.1171875 53.7497396,18.1171875 Z M58.1479166,10.7636719 C58.4057291,10.7636719 58.6049479,10.6923828 58.7455729,10.5498047 C58.8861979,10.4072266 58.9565104,10.2285156 58.9565104,10.0136719 C58.9565104,9.79492188 58.8861979,9.61328125 58.7455729,9.46875 C58.6049479,9.32421875 58.4057291,9.25195312 58.1479166,9.25195312 C57.8901041,9.25195312 57.6918619,9.32421875 57.5531901,9.46875 C57.4145182,9.61328125 57.3451823,9.79492188 57.3451823,10.0136719 C57.3451823,10.2285156 57.4145182,10.4072266 57.5531901,10.5498047 C57.6918619,10.6923828 57.8901041,10.7636719 58.1479166,10.7636719 Z M58.856901,18 L58.856901,11.6601562 L57.4330729,11.6601562 L57.4330729,18 L58.856901,18 Z M63.0265624,18.1171875 C63.6124999,18.1171875 64.1291015,17.9824219 64.5763671,17.7128906 C65.0236328,17.4433594 65.3673828,17.0625 65.6076171,16.5703125 C65.8478515,16.078125 65.9679687,15.5195312 65.9679687,14.8945312 L65.9679687,14.8945312 L65.9621093,14.5605469 C65.9191406,13.6503906 65.6310546,12.9199219 65.0978515,12.3691406 C64.5646484,11.8183594 63.8703124,11.5429688 63.0148437,11.5429688 C62.4367187,11.5429688 61.9249999,11.6767578 61.4796874,11.9443359 C61.0343749,12.2119141 60.6886718,12.5947266 60.4425781,13.0927734 C60.1964843,13.5908203 60.0734374,14.1503906 60.0734374,14.7714844 L60.0734374,14.7714844 L60.0734374,14.8417969 C60.0734374,15.8339844 60.3419921,16.6279297 60.8791015,17.2236328 C61.4162109,17.8193359 62.1320312,18.1171875 63.0265624,18.1171875 Z M63.0265624,16.9804688 C62.5460937,16.9804688 62.1710937,16.7958984 61.9015624,16.4267578 C61.6320312,16.0576172 61.4972656,15.546875 61.4972656,14.8945312 C61.4972656,14.1601562 61.6339843,13.6083984 61.9074218,13.2392578 C62.1808593,12.8701172 62.5499999,12.6855469 63.0148437,12.6855469 C63.4874999,12.6855469 63.8615234,12.8730469 64.136914,13.2480469 C64.4123046,13.6230469 64.5499999,14.1308594 64.5499999,14.7714844 C64.5499999,15.4941406 64.4162109,16.0429688 64.1486328,16.4179688 C63.8810546,16.7929688 63.5070312,16.9804688 63.0265624,16.9804688 Z M22.9229167,30.1171875 C23.4502605,30.1171875 23.9258464,30.0126953 24.3496746,29.8037109 C24.7735027,29.5947266 25.1123699,29.3007812 25.3662761,28.921875 L25.3662761,28.921875 L24.598698,28.1894531 C24.1885417,28.7167969 23.6572917,28.9804688 23.004948,28.9804688 C22.5401042,28.9804688 22.1543621,28.828125 21.8477214,28.5234375 C21.5410808,28.21875 21.3662761,27.8046875 21.3233074,27.28125 L21.3233074,27.28125 L25.4658855,27.28125 L25.4658855,26.7070312 C25.4658855,25.6992188 25.2305339,24.9199219 24.7598308,24.3691406 C24.2891277,23.8183594 23.6221355,23.5429688 22.7588542,23.5429688 C22.2158855,23.5429688 21.723698,23.6816406 21.2822917,23.9589844 C20.8408855,24.2363281 20.4981121,24.6240234 20.2539714,25.1220703 C20.0098308,25.6201172 19.8877605,26.1855469 19.8877605,26.8183594 L19.8877605,26.8183594 L19.8877605,26.9941406 C19.8877605,27.9394531 20.1680339,28.6962891 20.7285808,29.2646484 C21.2891277,29.8330078 22.020573,30.1171875 22.9229167,30.1171875 Z M24.0596355,26.2382812 L21.3467449,26.2382812 C21.4131511,25.75 21.5664714,25.3691406 21.8067058,25.0957031 C22.0469402,24.8222656 22.3623699,24.6855469 22.7529949,24.6855469 C23.1475261,24.6855469 23.4561199,24.8076172 23.6787761,25.0517578 C23.9014324,25.2958984 24.0283855,25.65625 24.0596355,26.1328125 L24.0596355,26.1328125 L24.0596355,26.2382812 Z M28.8914063,30.1171875 C29.6570313,30.1171875 30.2761719,29.9404297 30.7488282,29.5869141 C31.2214844,29.2333984 31.4578126,28.7714844 31.4578126,28.2011719 C31.4578126,27.8613281 31.3806641,27.5722656 31.2263672,27.3339844 C31.0720704,27.0957031 30.8357422,26.8916016 30.5173829,26.7216797 C30.1990235,26.5517578 29.7605469,26.4052734 29.2019532,26.2822266 C28.6433594,26.1591797 28.2722657,26.0371094 28.0886719,25.9160156 C27.9050782,25.7949219 27.8132813,25.625 27.8132813,25.40625 C27.8132813,25.1640625 27.9119141,24.9707031 28.1091797,24.8261719 C28.3064454,24.6816406 28.5613282,24.609375 28.8738282,24.609375 C29.2097657,24.609375 29.4792969,24.7001953 29.6824219,24.8818359 C29.8855469,25.0634766 29.9871094,25.2910156 29.9871094,25.5644531 L29.9871094,25.5644531 L31.4109376,25.5644531 C31.4109376,24.9667969 31.1775391,24.4804688 30.7107422,24.1054688 C30.2439454,23.7304688 29.6316407,23.5429688 28.8738282,23.5429688 C28.1628907,23.5429688 27.5769532,23.7265625 27.1160157,24.09375 C26.6550782,24.4609375 26.4246094,24.9179688 26.4246094,25.4648438 C26.4246094,26.1171875 26.7800782,26.6152344 27.4910157,26.9589844 C27.8152344,27.1152344 28.2195313,27.2441406 28.7039063,27.3457031 C29.1882813,27.4472656 29.534961,27.5644531 29.7439454,27.6972656 C29.9529297,27.8300781 30.0574219,28.0234375 30.0574219,28.2773438 C30.0574219,28.5078125 29.9597657,28.6943359 29.7644532,28.8369141 C29.5691407,28.9794922 29.2839844,29.0507812 28.9089844,29.0507812 C28.5222657,29.0507812 28.2117188,28.9599609 27.9773438,28.7783203 C27.7429688,28.5966797 27.6160157,28.3378906 27.5964844,28.0019531 L27.5964844,28.0019531 L26.2136719,28.0019531 C26.2136719,28.3808594 26.3269532,28.734375 26.5535157,29.0625 C26.7800782,29.390625 27.0964844,29.6484375 27.5027344,29.8359375 C27.9089844,30.0234375 28.3718751,30.1171875 28.8914063,30.1171875 Z M34.0513021,32.4375 L34.0513021,29.4316406 C34.4692709,29.8886719 35.0259115,30.1171875 35.721224,30.1171875 C36.471224,30.1171875 37.0688802,29.8251953 37.5141927,29.2412109 C37.9595052,28.6572266 38.1821615,27.875 38.1821615,26.8945312 L38.1821615,26.8945312 L38.1821615,26.8066406 C38.1821615,25.7832031 37.9624349,24.9833984 37.5229818,24.4072266 C37.0835287,23.8310547 36.4770834,23.5429688 35.7036459,23.5429688 C34.9848959,23.5429688 34.4165365,23.796875 33.9985677,24.3046875 L33.9985677,24.3046875 L33.939974,23.6601562 L32.627474,23.6601562 L32.627474,32.4375 L34.0513021,32.4375 Z M35.3169271,28.9804688 C34.7309896,28.9804688 34.3091146,28.734375 34.0513021,28.2421875 L34.0513021,28.2421875 L34.0513021,25.4296875 C34.3052084,24.9492188 34.7231771,24.7089844 35.3052084,24.7089844 C35.7739584,24.7089844 36.1343099,24.8945312 36.3862631,25.265625 C36.6382162,25.6367188 36.7641927,26.1386719 36.7641927,26.7714844 C36.7641927,27.5136719 36.6362631,28.0673828 36.3804037,28.4326172 C36.1245443,28.7978516 35.7700521,28.9804688 35.3169271,28.9804688 Z M42.1115886,30.1171875 C42.6389323,30.1171875 43.1145182,30.0126953 43.5383464,29.8037109 C43.9621745,29.5947266 44.3010417,29.3007812 44.5549479,28.921875 L44.5549479,28.921875 L43.7873698,28.1894531 C43.3772136,28.7167969 42.8459636,28.9804688 42.1936198,28.9804688 C41.7287761,28.9804688 41.3430339,28.828125 41.0363932,28.5234375 C40.7297526,28.21875 40.5549479,27.8046875 40.5119792,27.28125 L40.5119792,27.28125 L44.6545573,27.28125 L44.6545573,26.7070312 C44.6545573,25.6992188 44.4192057,24.9199219 43.9485026,24.3691406 C43.4777995,23.8183594 42.8108073,23.5429688 41.9475261,23.5429688 C41.4045573,23.5429688 40.9123698,23.6816406 40.4709636,23.9589844 C40.0295573,24.2363281 39.6867839,24.6240234 39.4426432,25.1220703 C39.1985026,25.6201172 39.0764323,26.1855469 39.0764323,26.8183594 L39.0764323,26.8183594 L39.0764323,26.9941406 C39.0764323,27.9394531 39.3567057,28.6962891 39.9172526,29.2646484 C40.4777995,29.8330078 41.2092448,30.1171875 42.1115886,30.1171875 Z M43.2483073,26.2382812 L40.5354167,26.2382812 C40.6018229,25.75 40.7551432,25.3691406 40.9953776,25.0957031 C41.235612,24.8222656 41.5510417,24.6855469 41.9416667,24.6855469 C42.3361979,24.6855469 42.6447917,24.8076172 42.8674479,25.0517578 C43.0901042,25.2958984 43.2170573,25.65625 43.2483073,26.1328125 L43.2483073,26.1328125 L43.2483073,26.2382812 Z M48.3144531,30.1171875 C48.7714844,30.1171875 49.1972656,30.0175781 49.5917969,29.8183594 C49.9863281,29.6191406 50.2988281,29.3486328 50.5292969,29.0068359 C50.7597656,28.6650391 50.8828125,28.296875 50.8984375,27.9023438 L50.8984375,27.9023438 L49.5566406,27.9023438 C49.5410156,28.2070312 49.4160156,28.4628906 49.1816406,28.6699219 C48.9472656,28.8769531 48.6523438,28.9804688 48.296875,28.9804688 C47.828125,28.9804688 47.4697266,28.8115234 47.2216797,28.4736328 C46.9736328,28.1357422 46.8496094,27.6230469 46.8496094,26.9355469 L46.8496094,26.9355469 L46.8496094,26.7070312 C46.8535156,26.0273438 46.9804688,25.5205078 47.2304688,25.1865234 C47.4804688,24.8525391 47.8359375,24.6855469 48.296875,24.6855469 C48.65625,24.6855469 48.9521484,24.8027344 49.1845703,25.0371094 C49.4169922,25.2714844 49.5410156,25.5703125 49.5566406,25.9335938 L49.5566406,25.9335938 L50.8984375,25.9335938 C50.875,25.21875 50.6259766,24.6416016 50.1513672,24.2021484 C49.6767578,23.7626953 49.0625,23.5429688 48.3085938,23.5429688 C47.4179688,23.5429688 46.7148438,23.8330078 46.1992188,24.4130859 C45.6835938,24.9931641 45.4257812,25.765625 45.4257812,26.7304688 L45.4257812,26.7304688 L45.4257812,26.8769531 C45.4257812,27.8886719 45.6855469,28.6816406 46.2050781,29.2558594 C46.7246094,29.8300781 47.4277344,30.1171875 48.3144531,30.1171875 Z M52.7126302,22.7636719 C52.9704427,22.7636719 53.1696614,22.6923828 53.3102864,22.5498047 C53.4509114,22.4072266 53.5212239,22.2285156 53.5212239,22.0136719 C53.5212239,21.7949219 53.4509114,21.6132812 53.3102864,21.46875 C53.1696614,21.3242188 52.9704427,21.2519531 52.7126302,21.2519531 C52.4548177,21.2519531 52.2565755,21.3242188 52.1179036,21.46875 C51.9792318,21.6132812 51.9098958,21.7949219 51.9098958,22.0136719 C51.9098958,22.2285156 51.9792318,22.4072266 52.1179036,22.5498047 C52.2565755,22.6923828 52.4548177,22.7636719 52.7126302,22.7636719 Z M53.4216146,30 L53.4216146,23.6601562 L51.9977864,23.6601562 L51.9977864,30 L53.4216146,30 Z M56.8647135,30.1171875 C57.5209635,30.1171875 58.075651,29.8808594 58.528776,29.4082031 C58.575651,29.6816406 58.6303385,29.8789062 58.6928385,30 L58.6928385,30 L60.1459635,30 L60.1459635,29.9003906 C59.9858073,29.5605469 59.9057291,29.1054688 59.9057291,28.5351562 L59.9057291,28.5351562 L59.9057291,25.6757812 C59.8940104,25 59.6674479,24.4755859 59.2260416,24.1025391 C58.7846354,23.7294922 58.1928385,23.5429688 57.450651,23.5429688 C56.9623698,23.5429688 56.5199869,23.6289062 56.1235026,23.8007812 C55.7270182,23.9726562 55.4135416,24.2099609 55.1830729,24.5126953 C54.9526041,24.8154297 54.8373698,25.140625 54.8373698,25.4882812 L54.8373698,25.4882812 L56.2611979,25.4882812 C56.2611979,25.2382812 56.3647135,25.0322266 56.5717448,24.8701172 C56.778776,24.7080078 57.044401,24.6269531 57.3686198,24.6269531 C57.7436198,24.6269531 58.0229166,24.7255859 58.2065104,24.9228516 C58.3901041,25.1201172 58.481901,25.3828125 58.481901,25.7109375 L58.481901,25.7109375 L58.481901,26.1269531 L57.6088541,26.1269531 C56.6752604,26.1269531 55.9574869,26.3076172 55.4555338,26.6689453 C54.9535807,27.0302734 54.7026041,27.5488281 54.7026041,28.2246094 C54.7026041,28.7597656 54.903776,29.2089844 55.3061198,29.5722656 C55.7084635,29.9355469 56.2279948,30.1171875 56.8647135,30.1171875 Z M57.1283854,28.9746094 C56.8236979,28.9746094 56.5805338,28.8935547 56.3988932,28.7314453 C56.2172526,28.5693359 56.1264323,28.3515625 56.1264323,28.078125 C56.1264323,27.7421875 56.2592448,27.4824219 56.5248698,27.2988281 C56.7904948,27.1152344 57.1869791,27.0234375 57.7143229,27.0234375 L57.7143229,27.0234375 L58.481901,27.0234375 L58.481901,28.21875 C58.356901,28.4492188 58.1703776,28.6328125 57.9223307,28.7695312 C57.6742838,28.90625 57.4096354,28.9746094 57.1283854,28.9746094 Z M62.8449218,30 L62.8449218,21 L61.4210937,21 L61.4210937,30 L62.8449218,30 Z" id="Benefcioespecial" fill="#FF5500" fill-rule="nonzero"></path>
            </g>
        </g>
    </g>
</svg>