<?xml version="1.0" encoding="UTF-8"?>
<svg width="97px" height="56px" viewBox="0 0 97 56" version="1.1" xmlns="http://www.w3.org/2000/svg" xmlns:xlink="http://www.w3.org/1999/xlink">
    <title>beneficio_multiple</title>
    <defs>
        <path d="M62,0 C73.045695,-2.02906125e-15 82,8.954305 82,20 C82,31.045695 73.045695,40 62,40 L48.523,40 L41.5694444,46.1066017 L34.615,40 L20,40 C8.954305,40 1.3527075e-15,31.045695 0,20 C-1.3527075e-15,8.954305 8.954305,2.02906125e-15 20,0 L62,0 Z" id="path-1"></path>
        <filter x="-5.9%" y="-10.4%" width="111.7%" height="121.0%" filterUnits="objectBoundingBox" id="filter-2">
            <feMorphology radius="0.299999982" operator="dilate" in="SourceAlpha" result="shadowSpreadOuter1"></feMorphology>
            <feOffset dx="0" dy="0" in="shadowSpreadOuter1" result="shadowOffsetOuter1"></feOffset>
            <feGaussianBlur stdDeviation="1.5" in="shadowOffsetOuter1" result="shadowBlurOuter1"></feGaussianBlur>
            <feComposite in="shadowBlurOuter1" in2="SourceAlpha" operator="out" result="shadowBlurOuter1"></feComposite>
            <feColorMatrix values="0 0 0 0 0   0 0 0 0 0   0 0 0 0 0  0 0 0 0.3 0" type="matrix" in="shadowBlurOuter1"></feColorMatrix>
        </filter>
    </defs>
    <g id="Icons-old" stroke="none" stroke-width="1" fill="none" fill-rule="evenodd">
        <g id="Group-7-Copy-44" transform="translate(1.000000, 0.000000)">
            <g id="Group-3-Copy-4" transform="translate(6.000000, 6.000000)">
                <g id="Combined-Shape">
                    <use fill="black" fill-opacity="1" filter="url(#filter-2)" xlink:href="#path-1"></use>
                    <use stroke="#AAAAAA" stroke-width="0.599999964" fill="#FFFFFF" fill-rule="evenodd" xlink:href="#path-1"></use>
                </g>
                <path d="M8.94199219,18.078125 C9.19589844,18.078125 9.39316406,18.0048828 9.53378906,17.8583984 C9.67441406,17.7119141 9.74472656,17.5292969 9.74472656,17.3105469 C9.74472656,17.0957031 9.67441406,16.9150391 9.53378906,16.7685547 C9.39316406,16.6220703 9.19589844,16.5488281 8.94199219,16.5488281 C8.68417969,16.5488281 8.48496094,16.6220703 8.34433594,16.7685547 C8.20371094,16.9150391 8.13339844,17.0957031 8.13339844,17.3105469 C8.13339844,17.5292969 8.20371094,17.7119141 8.34433594,17.8583984 C8.48496094,18.0048828 8.68417969,18.078125 8.94199219,18.078125 Z M9.70957031,25.1328125 L9.56894531,19.1210938 L8.34433594,19.1210938 L8.20371094,25.1328125 L9.70957031,25.1328125 Z M13.7462891,23 C14.5158203,23 15.1984375,22.8339844 15.7941406,22.5019531 C16.3898437,22.1699219 16.8488281,21.6972656 17.1710937,21.0839844 C17.4933594,20.4707031 17.6544922,19.7597656 17.6544922,18.9511719 L17.6544922,18.9511719 L17.6544922,18.5234375 C17.6544922,17.7265625 17.4943359,17.0195312 17.1740234,16.4023438 C16.8537109,15.7851562 16.4015625,15.3085938 15.8175781,14.9726562 C15.2335937,14.6367188 14.5646484,14.46875 13.8107422,14.46875 L13.8107422,14.46875 L11.2912109,14.46875 L11.2912109,23 L13.7462891,23 Z M13.7404297,21.8164062 L12.7736328,21.8164062 L12.7736328,15.6640625 L13.8107422,15.6640625 C14.5763672,15.6640625 15.1603516,15.9082031 15.5626953,16.3964844 C15.9650391,16.8847656 16.1662109,17.5917969 16.1662109,18.5175781 L16.1662109,18.5175781 L16.1662109,18.9921875 C16.1583984,19.9023438 15.9464844,20.6005859 15.5304687,21.0869141 C15.1144531,21.5732422 14.5177734,21.8164062 13.7404297,21.8164062 L13.7404297,21.8164062 Z M21.6853516,23.1171875 C22.2126953,23.1171875 22.6882812,23.0126953 23.1121094,22.8037109 C23.5359375,22.5947266 23.8748047,22.3007812 24.1287109,21.921875 L24.1287109,21.921875 L23.3611328,21.1894531 C22.9509766,21.7167969 22.4197266,21.9804688 21.7673828,21.9804688 C21.3025391,21.9804688 20.9167969,21.828125 20.6101562,21.5234375 C20.3035156,21.21875 20.1287109,20.8046875 20.0857422,20.28125 L20.0857422,20.28125 L24.2283203,20.28125 L24.2283203,19.7070312 C24.2283203,18.6992188 23.9929687,17.9199219 23.5222656,17.3691406 C23.0515625,16.8183594 22.3845703,16.5429688 21.5212891,16.5429688 C20.9783203,16.5429688 20.4861328,16.6816406 20.0447266,16.9589844 C19.6033203,17.2363281 19.2605469,17.6240234 19.0164062,18.1220703 C18.7722656,18.6201172 18.6501953,19.1855469 18.6501953,19.8183594 L18.6501953,19.8183594 L18.6501953,19.9941406 C18.6501953,20.9394531 18.9304687,21.6962891 19.4910156,22.2646484 C20.0515625,22.8330078 20.7830078,23.1171875 21.6853516,23.1171875 Z M22.8220703,19.2382812 L20.1091797,19.2382812 C20.1755859,18.75 20.3289062,18.3691406 20.5691406,18.0957031 C20.809375,17.8222656 21.1248047,17.6855469 21.5154297,17.6855469 C21.9099609,17.6855469 22.2185547,17.8076172 22.4412109,18.0517578 C22.6638672,18.2958984 22.7908203,18.65625 22.8220703,19.1328125 L22.8220703,19.1328125 L22.8220703,19.2382812 Z M27.6205078,23.1171875 C28.3861328,23.1171875 29.0052734,22.9404297 29.4779297,22.5869141 C29.9505859,22.2333984 30.1869141,21.7714844 30.1869141,21.2011719 C30.1869141,20.8613281 30.1097656,20.5722656 29.9554687,20.3339844 C29.8011719,20.0957031 29.5648437,19.8916016 29.2464844,19.7216797 C28.928125,19.5517578 28.4896484,19.4052734 27.9310547,19.2822266 C27.3724609,19.1591797 27.0013672,19.0371094 26.8177734,18.9160156 C26.6341797,18.7949219 26.5423828,18.625 26.5423828,18.40625 C26.5423828,18.1640625 26.6410156,17.9707031 26.8382812,17.8261719 C27.0355469,17.6816406 27.2904297,17.609375 27.6029297,17.609375 C27.9388672,17.609375 28.2083984,17.7001953 28.4115234,17.8818359 C28.6146484,18.0634766 28.7162109,18.2910156 28.7162109,18.5644531 L28.7162109,18.5644531 L30.1400391,18.5644531 C30.1400391,17.9667969 29.9066406,17.4804688 29.4398437,17.1054688 C28.9730469,16.7304688 28.3607422,16.5429688 27.6029297,16.5429688 C26.8919922,16.5429688 26.3060547,16.7265625 25.8451172,17.09375 C25.3841797,17.4609375 25.1537109,17.9179688 25.1537109,18.4648438 C25.1537109,19.1171875 25.5091797,19.6152344 26.2201172,19.9589844 C26.5443359,20.1152344 26.9486328,20.2441406 27.4330078,20.3457031 C27.9173828,20.4472656 28.2640625,20.5644531 28.4730469,20.6972656 C28.6820312,20.8300781 28.7865234,21.0234375 28.7865234,21.2773438 C28.7865234,21.5078125 28.6888672,21.6943359 28.4935547,21.8369141 C28.2982422,21.9794922 28.0130859,22.0507812 27.6380859,22.0507812 C27.2513672,22.0507812 26.9408203,21.9599609 26.7064453,21.7783203 C26.4720703,21.5966797 26.3451172,21.3378906 26.3255859,21.0019531 L26.3255859,21.0019531 L24.9427734,21.0019531 C24.9427734,21.3808594 25.0560547,21.734375 25.2826172,22.0625 C25.5091797,22.390625 25.8255859,22.6484375 26.2318359,22.8359375 C26.6380859,23.0234375 27.1009766,23.1171875 27.6205078,23.1171875 Z M33.9482422,23.1171875 C34.4052734,23.1171875 34.8310547,23.0175781 35.2255859,22.8183594 C35.6201172,22.6191406 35.9326172,22.3486328 36.1630859,22.0068359 C36.3935547,21.6650391 36.5166016,21.296875 36.5322266,20.9023438 L36.5322266,20.9023438 L35.1904297,20.9023438 C35.1748047,21.2070312 35.0498047,21.4628906 34.8154297,21.6699219 C34.5810547,21.8769531 34.2861328,21.9804688 33.9306641,21.9804688 C33.4619141,21.9804688 33.1035156,21.8115234 32.8554687,21.4736328 C32.6074219,21.1357422 32.4833984,20.6230469 32.4833984,19.9355469 L32.4833984,19.9355469 L32.4833984,19.7070312 C32.4873047,19.0273438 32.6142578,18.5205078 32.8642578,18.1865234 C33.1142578,17.8525391 33.4697266,17.6855469 33.9306641,17.6855469 C34.2900391,17.6855469 34.5859375,17.8027344 34.8183594,18.0371094 C35.0507812,18.2714844 35.1748047,18.5703125 35.1904297,18.9335938 L35.1904297,18.9335938 L36.5322266,18.9335938 C36.5087891,18.21875 36.2597656,17.6416016 35.7851562,17.2021484 C35.3105469,16.7626953 34.6962891,16.5429688 33.9423828,16.5429688 C33.0517578,16.5429688 32.3486328,16.8330078 31.8330078,17.4130859 C31.3173828,17.9931641 31.0595703,18.765625 31.0595703,19.7304688 L31.0595703,19.7304688 L31.0595703,19.8769531 C31.0595703,20.8886719 31.3193359,21.6816406 31.8388672,22.2558594 C32.3583984,22.8300781 33.0615234,23.1171875 33.9482422,23.1171875 Z M39.5669922,23.1171875 C40.3365234,23.1171875 40.9302734,22.8710938 41.3482422,22.3789062 L41.3482422,22.3789062 L41.3833984,23 L42.7251953,23 L42.7251953,16.6601562 L41.3013672,16.6601562 L41.3013672,21.2128906 C41.0591797,21.7089844 40.5923828,21.9570312 39.9009766,21.9570312 C39.2330078,21.9570312 38.8990234,21.5546875 38.8990234,20.75 L38.8990234,20.75 L38.8990234,16.6601562 L37.4751953,16.6601562 L37.4751953,20.7675781 C37.4751953,21.5292969 37.6519531,22.1113281 38.0054687,22.5136719 C38.3589844,22.9160156 38.8794922,23.1171875 39.5669922,23.1171875 Z M47.1662109,23.1171875 C47.9357422,23.1171875 48.5402344,22.8261719 48.9796875,22.2441406 C49.4191406,21.6621094 49.6388672,20.8789062 49.6388672,19.8945312 L49.6388672,19.8945312 L49.6388672,19.8125 C49.6388672,18.78125 49.4181641,17.9785156 48.9767578,17.4042969 C48.5353516,16.8300781 47.9279297,16.5429688 47.1544922,16.5429688 C46.4591797,16.5429688 45.9064453,16.7851562 45.4962891,17.2695312 L45.4962891,17.2695312 L45.4962891,14 L44.0724609,14 L44.0724609,23 L45.3615234,23 L45.4318359,22.3144531 C45.8458984,22.8496094 46.4240234,23.1171875 47.1662109,23.1171875 Z M46.8087891,21.9570312 C46.1876953,21.9570312 45.7501953,21.6816406 45.4962891,21.1308594 L45.4962891,21.1308594 L45.4962891,18.5175781 C45.7462891,17.9785156 46.1798828,17.7089844 46.7970703,17.7089844 C47.2580078,17.7089844 47.6095703,17.8808594 47.8517578,18.2246094 C48.0939453,18.5683594 48.2150391,19.0839844 48.2150391,19.7714844 L48.2150391,19.7714844 L48.2150391,19.953125 C48.2072266,20.625 48.0822266,21.1269531 47.8400391,21.4589844 C47.5978516,21.7910156 47.2541016,21.9570312 46.8087891,21.9570312 Z M52.1521484,23 L52.1521484,18.6640625 C52.3787109,18.1640625 52.8181641,17.9140625 53.4705078,17.9140625 C53.6697266,17.9140625 53.8630859,17.9296875 54.0505859,17.9609375 L54.0505859,17.9609375 L54.0564453,16.625 C53.9236328,16.5703125 53.7556641,16.5429688 53.5525391,16.5429688 C52.9431641,16.5429688 52.4666016,16.8183594 52.1228516,17.3691406 L52.1228516,17.3691406 L52.0876953,16.6601562 L50.7283203,16.6601562 L50.7283203,23 L52.1521484,23 Z M55.6556641,15.7636719 C55.9134766,15.7636719 56.1126953,15.6923828 56.2533203,15.5498047 C56.3939453,15.4072266 56.4642578,15.2285156 56.4642578,15.0136719 C56.4642578,14.7949219 56.3939453,14.6132812 56.2533203,14.46875 C56.1126953,14.3242188 55.9134766,14.2519531 55.6556641,14.2519531 C55.3978516,14.2519531 55.1996094,14.3242188 55.0609375,14.46875 C54.9222656,14.6132812 54.8529297,14.7949219 54.8529297,15.0136719 C54.8529297,15.2285156 54.9222656,15.4072266 55.0609375,15.5498047 C55.1996094,15.6923828 55.3978516,15.7636719 55.6556641,15.7636719 Z M56.3646484,23 L56.3646484,16.6601562 L54.9408203,16.6601562 L54.9408203,23 L56.3646484,23 Z M59.3291016,23 L59.3291016,14 L57.9052734,14 L57.9052734,23 L59.3291016,23 Z M62.7388672,23.1171875 C63.3951172,23.1171875 63.9498047,22.8808594 64.4029297,22.4082031 C64.4498047,22.6816406 64.5044922,22.8789062 64.5669922,23 L64.5669922,23 L66.0201172,23 L66.0201172,22.9003906 C65.8599609,22.5605469 65.7798828,22.1054688 65.7798828,21.5351562 L65.7798828,21.5351562 L65.7798828,18.6757812 C65.7681641,18 65.5416016,17.4755859 65.1001953,17.1025391 C64.6587891,16.7294922 64.0669922,16.5429688 63.3248047,16.5429688 C62.8365234,16.5429688 62.3941406,16.6289062 61.9976562,16.8007812 C61.6011719,16.9726562 61.2876953,17.2099609 61.0572266,17.5126953 C60.8267578,17.8154297 60.7115234,18.140625 60.7115234,18.4882812 L60.7115234,18.4882812 L62.1353516,18.4882812 C62.1353516,18.2382812 62.2388672,18.0322266 62.4458984,17.8701172 C62.6529297,17.7080078 62.9185547,17.6269531 63.2427734,17.6269531 C63.6177734,17.6269531 63.8970703,17.7255859 64.0806641,17.9228516 C64.2642578,18.1201172 64.3560547,18.3828125 64.3560547,18.7109375 L64.3560547,18.7109375 L64.3560547,19.1269531 L63.4830078,19.1269531 C62.5494141,19.1269531 61.8316406,19.3076172 61.3296875,19.6689453 C60.8277344,20.0302734 60.5767578,20.5488281 60.5767578,21.2246094 C60.5767578,21.7597656 60.7779297,22.2089844 61.1802734,22.5722656 C61.5826172,22.9355469 62.1021484,23.1171875 62.7388672,23.1171875 Z M63.0025391,21.9746094 C62.6978516,21.9746094 62.4546875,21.8935547 62.2730469,21.7314453 C62.0914062,21.5693359 62.0005859,21.3515625 62.0005859,21.078125 C62.0005859,20.7421875 62.1333984,20.4824219 62.3990234,20.2988281 C62.6646484,20.1152344 63.0611328,20.0234375 63.5884766,20.0234375 L63.5884766,20.0234375 L64.3560547,20.0234375 L64.3560547,21.21875 C64.2310547,21.4492188 64.0445312,21.6328125 63.7964844,21.7695312 C63.5484375,21.90625 63.2837891,21.9746094 63.0025391,21.9746094 Z M69.5587891,23.1171875 C70.3244141,23.1171875 70.9435547,22.9404297 71.4162109,22.5869141 C71.8888672,22.2333984 72.1251953,21.7714844 72.1251953,21.2011719 C72.1251953,20.8613281 72.0480469,20.5722656 71.89375,20.3339844 C71.7394531,20.0957031 71.503125,19.8916016 71.1847656,19.7216797 C70.8664062,19.5517578 70.4279297,19.4052734 69.8693359,19.2822266 C69.3107422,19.1591797 68.9396484,19.0371094 68.7560547,18.9160156 C68.5724609,18.7949219 68.4806641,18.625 68.4806641,18.40625 C68.4806641,18.1640625 68.5792969,17.9707031 68.7765625,17.8261719 C68.9738281,17.6816406 69.2287109,17.609375 69.5412109,17.609375 C69.8771484,17.609375 70.1466797,17.7001953 70.3498047,17.8818359 C70.5529297,18.0634766 70.6544922,18.2910156 70.6544922,18.5644531 L70.6544922,18.5644531 L72.0783203,18.5644531 C72.0783203,17.9667969 71.8449219,17.4804688 71.378125,17.1054688 C70.9113281,16.7304688 70.2990234,16.5429688 69.5412109,16.5429688 C68.8302734,16.5429688 68.2443359,16.7265625 67.7833984,17.09375 C67.3224609,17.4609375 67.0919922,17.9179688 67.0919922,18.4648438 C67.0919922,19.1171875 67.4474609,19.6152344 68.1583984,19.9589844 C68.4826172,20.1152344 68.8869141,20.2441406 69.3712891,20.3457031 C69.8556641,20.4472656 70.2023437,20.5644531 70.4113281,20.6972656 C70.6203125,20.8300781 70.7248047,21.0234375 70.7248047,21.2773438 C70.7248047,21.5078125 70.6271484,21.6943359 70.4318359,21.8369141 C70.2365234,21.9794922 69.9513672,22.0507812 69.5763672,22.0507812 C69.1896484,22.0507812 68.8791016,21.9599609 68.6447266,21.7783203 C68.4103516,21.5966797 68.2833984,21.3378906 68.2638672,21.0019531 L68.2638672,21.0019531 L66.8810547,21.0019531 C66.8810547,21.3808594 66.9943359,21.734375 67.2208984,22.0625 C67.4474609,22.390625 67.7638672,22.6484375 68.1701172,22.8359375 C68.5763672,23.0234375 69.0392578,23.1171875 69.5587891,23.1171875 Z M74.7732422,20.4863281 L74.9138672,14.46875 L73.4138672,14.46875 L73.5486328,20.4863281 L74.7732422,20.4863281 Z M74.1814453,23.0820312 C74.4392578,23.0820312 74.6384766,23.0097656 74.7791016,22.8652344 C74.9197266,22.7207031 74.9900391,22.5410156 74.9900391,22.3261719 C74.9900391,22.1035156 74.9177734,21.9189453 74.7732422,21.7724609 C74.6287109,21.6259766 74.4314453,21.5527344 74.1814453,21.5527344 C73.9314453,21.5527344 73.7341797,21.6259766 73.5896484,21.7724609 C73.4451172,21.9189453 73.3728516,22.1035156 73.3728516,22.3261719 C73.3728516,22.5410156 73.4431641,22.7207031 73.5837891,22.8652344 C73.7244141,23.0097656 73.9236328,23.0820312 74.1814453,23.0820312 Z" id="¡Descubrilas!" fill="#FF5500" fill-rule="nonzero"></path>
            </g>
        </g>
    </g>
</svg>