<?xml version="1.0" encoding="UTF-8"?>
<svg width="96px" height="56px" viewBox="0 0 96 56" version="1.1" xmlns="http://www.w3.org/2000/svg" xmlns:xlink="http://www.w3.org/1999/xlink">
    <title>plan_z</title>
    <defs>
        <path d="M52,0 C63.045695,-2.02906125e-15 72,8.954305 72,20 C72,31.045695 63.045695,40 52,40 L42.606,40 L36.5,46.1066017 L30.393,40 L20,40 C8.954305,40 1.3527075e-15,31.045695 0,20 C-1.3527075e-15,8.954305 8.954305,2.02906125e-15 20,0 L52,0 Z" id="path-1"></path>
        <filter x="-6.7%" y="-10.4%" width="113.3%" height="121.1%" filterUnits="objectBoundingBox" id="filter-2">
            <feMorphology radius="0.299999982" operator="dilate" in="SourceAlpha" result="shadowSpreadOuter1"></feMorphology>
            <feOffset dx="0" dy="0" in="shadowSpreadOuter1" result="shadowOffsetOuter1"></feOffset>
            <feGaussianBlur stdDeviation="1.5" in="shadowOffsetOuter1" result="shadowBlurOuter1"></feGaussianBlur>
            <feComposite in="shadowBlurOuter1" in2="SourceAlpha" operator="out" result="shadowBlurOuter1"></feComposite>
            <feColorMatrix values="0 0 0 0 0   0 0 0 0 0   0 0 0 0 0  0 0 0 0.3 0" type="matrix" in="shadowBlurOuter1"></feColorMatrix>
        </filter>
    </defs>
    <g id="Icons-old" stroke="none" stroke-width="1" fill="none" fill-rule="evenodd">
        <g id="Group-3-Copy-4" transform="translate(12.000000, 6.000000)">
            <g id="Combined-Shape">
                <use fill="black" fill-opacity="1" filter="url(#filter-2)" xlink:href="#path-1"></use>
                <use stroke="#AAAAAA" stroke-width="0.599999964" fill="#FFFFFF" fill-rule="evenodd" xlink:href="#path-1"></use>
            </g>
            <path d="M21.2840495,24 L21.2840495,20.565918 L23.1946941,20.565918 C24.2653321,20.565918 25.097933,20.3141276 25.6924968,19.8105469 C26.2870606,19.3069661 26.5843425,18.6023763 26.5843425,17.6967773 C26.5843425,16.8123372 26.280713,16.1013997 25.6734538,15.5639648 C25.0661947,15.0265299 24.2462891,14.7578125 23.213737,14.7578125 L23.213737,14.7578125 L19.6780925,14.7578125 L19.6780925,24 L21.2840495,24 Z M23.213737,19.2773438 L21.2840495,19.2773438 L21.2840495,16.0527344 L23.2581706,16.0527344 C23.7913738,16.0611979 24.2103191,16.2145996 24.5150066,16.5129395 C24.8196941,16.8112793 24.9720378,17.2101237 24.9720378,17.7094727 C24.9720378,18.2172852 24.82181,18.6055501 24.5213542,18.8742676 C24.2208985,19.142985 23.7850261,19.2773438 23.213737,19.2773438 L23.213737,19.2773438 Z M29.4066515,24 L29.4066515,14.25 L27.864171,14.25 L27.864171,24 L29.4066515,24 Z M33.1366754,24.1269531 C33.8476129,24.1269531 34.4485243,23.870931 34.9394097,23.3588867 C34.990191,23.6551107 35.0494358,23.8688151 35.1171441,24 L35.1171441,24 L36.6913629,24 L36.6913629,23.8920898 C36.5178603,23.5239258 36.431109,23.0309245 36.431109,22.4130859 L36.431109,22.4130859 L36.431109,19.3154297 C36.4184136,18.5833333 36.1729709,18.0152181 35.6947808,17.611084 C35.2165907,17.2069499 34.5754775,17.0048828 33.771441,17.0048828 C33.2424696,17.0048828 32.7632216,17.0979818 32.3336969,17.2841797 C31.9041721,17.4703776 31.5645725,17.7274577 31.314898,18.0554199 C31.0652235,18.3833822 30.9403863,18.7356771 30.9403863,19.1123047 L30.9403863,19.1123047 L32.4828668,19.1123047 C32.4828668,18.8414714 32.5950087,18.6182454 32.8192926,18.442627 C33.0435764,18.2670085 33.3313368,18.1791992 33.6825738,18.1791992 C34.0888238,18.1791992 34.3913954,18.2860514 34.5902886,18.4997559 C34.7891819,18.7134603 34.8886285,18.9980469 34.8886285,19.3535156 L34.8886285,19.3535156 L34.8886285,19.8041992 L33.9428277,19.8041992 C32.9314345,19.8041992 32.1538466,19.9999186 31.610064,20.3913574 C31.0662815,20.7827962 30.7943902,21.3445638 30.7943902,22.0766602 C30.7943902,22.6564128 31.0123264,23.1430664 31.4481988,23.5366211 C31.8840712,23.9301758 32.4468967,24.1269531 33.1366754,24.1269531 Z M33.4223199,22.8891602 C33.0922418,22.8891602 32.828814,22.8013509 32.6320367,22.6257324 C32.4352594,22.4501139 32.3368707,22.2141927 32.3368707,21.9179688 C32.3368707,21.5540365 32.4807509,21.2726237 32.7685113,21.0737305 C33.0562717,20.8748372 33.4857965,20.7753906 34.0570855,20.7753906 L34.0570855,20.7753906 L34.8886285,20.7753906 L34.8886285,22.0703125 C34.7532118,22.319987 34.5511448,22.5188802 34.2824273,22.6669922 C34.0137099,22.8151042 33.7270074,22.8891602 33.4223199,22.8891602 Z M39.4946289,24 L39.4946289,19.1123047 C39.7993164,18.5494792 40.2626953,18.2680664 40.8847656,18.2680664 C41.3121745,18.2680664 41.6200358,18.3728027 41.8083496,18.5822754 C41.9966634,18.791748 42.0908203,19.1144206 42.0908203,19.550293 L42.0908203,19.550293 L42.0908203,24 L43.6333008,24 L43.6333008,19.4614258 C43.6079102,17.8237305 42.8800456,17.0048828 41.449707,17.0048828 C40.6245117,17.0048828 39.9580078,17.3116862 39.4501953,17.925293 L39.4501953,17.925293 L39.4057617,17.1318359 L37.9521484,17.1318359 L37.9521484,24 L39.4946289,24 Z M54.8955946,24 L54.8955946,22.7177734 L49.957118,22.7177734 L54.7432508,15.7734375 L54.7432508,14.7578125 L48.0464735,14.7578125 L48.0464735,16.0527344 L52.7945204,16.0527344 L48.0147352,22.9589844 L48.0147352,24 L54.8955946,24 Z" id="PlanZ" fill="#FF5500" fill-rule="nonzero"></path>
        </g>
    </g>
</svg>