<svg xmlns="http://www.w3.org/2000/svg" xmlns:xlink="http://www.w3.org/1999/xlink" width="24" height="24" viewBox="0 0 24 24">
    <defs>
        <path id="a" d="M21.578 3.48l-7.328 8.79v1.313a.75.75 0 1 1-1.5 0V12a.75.75 0 0 1 .172-.48l6.48-7.77H4.598l6.48 7.77a.75.75 0 0 1 .173.48v7.942l1.5-1.5V16.5h1.5v2.25a.75.75 0 0 1-.217.532l-3 3a.75.75 0 0 1-.818.158.75.75 0 0 1-.465-.69v-9.48L2.422 3.48A.75.75 0 0 1 3 2.25h18a.75.75 0 0 1 .578 1.23z"/>
    </defs>
    <g fill="none" fill-rule="evenodd">
        <path fill="#FFF" d="M-320-496H40v1552h-360z"/>
        <path fill="#F2F2F2" d="M-320-384H40v1478h-360z"/>
        <use fill="#000" fill-rule="nonzero" xlink:href="#a"/>
    </g>
</svg>
