<svg xmlns="http://www.w3.org/2000/svg" width="110" height="140" viewBox="0 0 110 140">
    <g fill="none" fill-rule="evenodd" transform="translate(5 4)">
        <path stroke="#DCDCDC" stroke-linecap="round" stroke-width="1.151" d="M28.016 40.315l-3.543 9.735"/>
        <g stroke-linecap="round">
            <path fill="#EBEBEB" stroke="#CCC" stroke-width="2" d="M19.528 41.198L26.06 4.153a3.453 3.453 0 0 1 4-2.801l65.75 11.593a3.453 3.453 0 0 1 2.802 4L83.12 104.802a3.453 3.453 0 0 1-4 2.802L13.37 96.009a3.453 3.453 0 0 1-2.802-4l5.712-32.39"/>
            <path stroke="#DCDCDC" stroke-width="1.151" d="M18.864 44.963l-1.8 10.203"/>
        </g>
        <g stroke="#CCC" stroke-linecap="round" stroke-width="2">
            <path fill="#FFF" d="M0 57.737V23.65a3.453 3.453 0 0 1 3.453-3.454h66.765a3.453 3.453 0 0 1 3.453 3.454v89.21a3.453 3.453 0 0 1-3.453 3.454H3.453A3.453 3.453 0 0 1 0 112.86V81.148"/>
            <path d="M.288 65.09v10.36"/>
        </g>
        <path stroke="#DCDCDC" stroke-linecap="round" stroke-width="2" d="M11.511 79.665h51.8"/>
        <g stroke="#DCDCDC" stroke-linecap="round" stroke-width="2">
            <path d="M10.936 84.712h30.216M45 84.712h18"/>
        </g>
        <g stroke="#DCDCDC" stroke-linecap="round" stroke-width="2">
            <path d="M63.311 90.312h-38.85M20.432 90.312h-9.209"/>
        </g>
        <path stroke="#DCDCDC" stroke-linecap="round" stroke-width="6" d="M25.882 103.137h23.53"/>
        <path fill="#DCDCDC" d="M36.827 70.78l-2.814 1.371a5.756 5.756 0 0 1-7.78-2.831l-1.274-2.86-3.037-.758a5.756 5.756 0 0 1-4.14-7.17l.863-3.01-1.84-2.532a5.756 5.756 0 0 1 1.438-8.153l2.595-1.751.219-3.123a5.756 5.756 0 0 1 6.342-5.322l3.113.327 2.175-2.251a5.756 5.756 0 0 1 8.28 0l2.174 2.251 3.113-.327a5.756 5.756 0 0 1 6.343 5.322l.218 3.123 2.595 1.75a5.756 5.756 0 0 1 1.438 8.154l-1.84 2.533.863 3.01a5.756 5.756 0 0 1-4.14 7.17l-3.037.757-1.274 2.86a5.756 5.756 0 0 1-7.78 2.831l-2.813-1.372z"/>
        <text fill="#FFF" font-family="Roboto-Bold, Roboto" font-size="24.275" font-weight="bold" letter-spacing="-.152" transform="translate(0 20.196)">
            <tspan x="27.586" y="40.647">%</tspan>
        </text>
        <ellipse cx="41.5" cy="129" fill="#DCDCDC" opacity=".3" rx="36.5" ry="3"/>
    </g>
</svg>
