<svg xmlns="http://www.w3.org/2000/svg" xmlns:xlink="http://www.w3.org/1999/xlink" width="192" height="192" viewBox="0 0 192 192">
    <defs>
        <path id="a" d="M.438 25.028L0 .21 68.4.158l-.223 24.296a1.695 1.695 0 0 1-.692 1.351L36.525 48.52a2.035 2.035 0 0 1-2.338.049l-33-22.163a1.695 1.695 0 0 1-.749-1.378z"/>
    </defs>
    <g fill="none" fill-rule="evenodd">
        <path fill="#FFF" d="M-454-120H646v640H-454z"/>
        <g transform="translate(42 11)">
            <ellipse cx="64.878" cy="168.026" fill="#EBEBEB" opacity=".3" rx="37.917" ry="2.974"/>
            <g transform="translate(23.243)">
                <path fill="#EBEBEB" fill-rule="nonzero" d="M78.809 0a4.46 4.46 0 0 1 4.46 4.46v138.288a4.46 4.46 0 0 1-4.46 4.46H4.46A4.46 4.46 0 0 1 0 142.749V4.46A4.46 4.46 0 0 1 4.46 0H78.81zm-7.57 15.154h-60.29a4.46 4.46 0 0 0-4.46 4.46v99.32a4.46 4.46 0 0 0 4.46 4.462h60.29a4.46 4.46 0 0 0 4.46-4.461v-99.32a4.46 4.46 0 0 0-4.46-4.461z"/>
                <path stroke="#DCDCDC" stroke-linecap="round" stroke-linejoin="round" stroke-width="1.5" d="M0 110.778v31.226a4.46 4.46 0 0 0 4.46 4.461h37.175"/>
                <path stroke="#DCDCDC" stroke-linecap="round" stroke-linejoin="round" stroke-width="1.5" d="M0 122.674V5.204A4.46 4.46 0 0 1 4.46.744h37.175"/>
                <path stroke="#DCDCDC" stroke-linecap="round" stroke-width="1.5" d="M83.641 44.396v12.78"/>
                <path stroke="#DCDCDC" stroke-linecap="round" stroke-linejoin="round" stroke-width="1.5" d="M84.013 69.143v72.861a4.46 4.46 0 0 1-4.46 4.461H41.634M84.013 38.66V5.205a4.46 4.46 0 0 0-4.46-4.46H41.634"/>
                <circle cx="42.378" cy="134.57" r="5.948" fill="#FFF"/>
            </g>
            <g transform="translate(0 50.991)">
                <rect width="68.028" height="37.546" x=".046" y="26.252" fill="#FFCA53" rx="2.035"/>
                <path fill="#D19D25" d="M.992 24.745L36.255 2.151l31.568 22.6a1.695 1.695 0 0 1 .01 2.75L36.338 50.396c-.699.508-1.643.52-2.353.027L.943 27.567a1.695 1.695 0 0 1 .05-2.822z"/>
                <g transform="translate(0 1.879)">
                    <mask id="b" fill="#fff">
                        <use xlink:href="#a"/>
                    </mask>
                    <path fill="#FFF" d="M5.94.21h56.938c1.123 0 2.034.911 2.034 2.035v57.268c0 1.123-.91 2.034-2.034 2.034H5.94a2.035 2.035 0 0 1-2.034-2.034V2.245C3.906 1.12 4.816.21 5.94.21z" mask="url(#b)"/>
                    <rect width="40.23" height="1.002" x="14.26" y="19.479" fill="#CEC8C8" fill-rule="nonzero" mask="url(#b)" rx=".501"/>
                    <rect width="31.302" height="1.002" x="18.971" y="24.745" fill="#CEC8C8" fill-rule="nonzero" mask="url(#b)" rx=".501"/>
                </g>
                <g stroke="#DCDCDC" stroke-linecap="round" stroke-linejoin="round" stroke-width="1.5">
                    <path d="M3.906 29.412V4.124c0-1.124.91-2.035 2.034-2.035h10.242M64.726 29.412V4.124c0-1.124-.91-2.035-2.034-2.035H26.225M16.145 2.09l11.755.019"/>
                </g>
                <path fill="#FFBF2D" d="M0 27.182l54.62 36.554H2.035A2.035 2.035 0 0 1 0 61.701v-34.52z"/>
            </g>
            <path stroke="#D19D25" stroke-linecap="round" stroke-linejoin="round" stroke-width="1.5" d="M.9 76.891v35.511c0 1.124.91 2.035 2.035 2.035h41.087"/>
            <path stroke="#D19D25" stroke-linecap="round" stroke-linejoin="round" stroke-width="1.5" d="M68.107 76.891v35.511c0 1.124-.911 2.035-2.035 2.035H43.2"/>
        </g>
    </g>
</svg>
