<svg xmlns="http://www.w3.org/2000/svg" width="90" height="30" viewBox="0 0 90 30">
    <g fill="#F60" fill-rule="evenodd">
        <path d="M11.941 4.898v12.317L2.711 4.898H0v17.717h3.14V10.297l9.23 12.318h2.712V4.898zM20.847 14.386c-.467.598-.7 1.376-.7 2.324 0 1.104.31 1.986.947 2.622.61.61 1.35.92 2.232.92 1.04 0 1.857-.401 2.466-1.205.455-.611.689-1.39.689-2.35 0-1.077-.311-1.948-.935-2.595-.585-.611-1.336-.91-2.272-.91-1 0-1.804.402-2.427 1.194zm8.619 8.23h-3.025v-.754c-1 .767-2.063 1.144-3.167 1.144-1.83 0-3.36-.688-4.595-2.064-1.064-1.182-1.596-2.597-1.596-4.232 0-1.895.688-3.454 2.064-4.685 1.182-1.053 2.557-1.584 4.127-1.584 1.104 0 2.167.376 3.167 1.142v-.753h3.025v11.785zM35.308 11.596c.675-.559 1.442-.844 2.31-.844.3 0 .676.025 1.117.078v2.712a13.675 13.675 0 0 0-1.09-.051c-.884 0-1.494.247-1.83.74-.34.506-.507 1.402-.507 2.712v5.672h-3.024V10.83h3.024v.766zM43.459 14.386c-.467.598-.7 1.376-.7 2.324 0 1.104.312 1.986.946 2.622.612.61 1.35.92 2.235.92 1.038 0 1.855-.401 2.466-1.205.454-.611.687-1.39.687-2.35 0-1.077-.312-1.948-.935-2.595-.583-.611-1.336-.91-2.271-.91-1 0-1.804.402-2.428 1.194zm8.62 8.23h-3.024v-.754c-1 .767-2.064 1.144-3.168 1.144-1.83 0-3.361-.688-4.594-2.064-1.066-1.182-1.597-2.597-1.597-4.232 0-1.895.687-3.454 2.063-4.685 1.181-1.053 2.558-1.584 4.128-1.584 1.104 0 2.168.376 3.168 1.142v-.753h3.024v11.785zM57.92 11.454c.845-.677 1.753-1.013 2.74-1.013 1.387 0 2.764.584 3.659 1.57.923.974 1.298 2.245 1.298 4.27v6.334h-3.024v-6.14c0-1.322-.195-2.206-.584-2.646-.376-.43-.908-.637-1.571-.637-.87 0-1.53.273-1.973.817-.363.455-.544 1.351-.544 2.714v5.892h-3.026V10.83h3.026v.624zM71.55 5.521c.364.377.545.804.545 1.311a1.8 1.8 0 0 1-.545 1.324 1.864 1.864 0 0 1-1.35.544c-.532 0-.973-.181-1.337-.544a1.777 1.777 0 0 1-.558-1.338c0-.506.182-.947.558-1.311a1.94 1.94 0 0 1 1.364-.531c.505 0 .947.182 1.323.545M77.56 14.386c-.467.598-.702 1.376-.702 2.324 0 1.104.312 1.986.949 2.622.61.61 1.35.92 2.232.92 1.039 0 1.856-.401 2.466-1.205.455-.611.69-1.39.69-2.35 0-1.077-.312-1.948-.935-2.595-.585-.611-1.338-.91-2.272-.91-1 0-1.804.402-2.428 1.194zm8.62 8.23h-3.025v-.754c-.999.767-2.065 1.144-3.167 1.144-1.831 0-3.362-.688-4.595-2.064-1.064-1.182-1.597-2.597-1.597-4.232 0-1.895.688-3.454 2.064-4.685 1.18-1.053 2.557-1.584 4.128-1.584 1.102 0 2.168.376 3.167 1.142v-.753h3.024v11.785zM68.68 10.83V23.1c-.01.458-.211 2.546-2.961 2.721v2.921s5.735-.096 5.978-5.384h.01V10.83H68.68zM88.531 11.376v.344h.125c.138 0 .207-.058.207-.172 0-.114-.069-.172-.207-.172h-.125zm.595.937h-.205l-.247-.426-.143.001v.425h-.182v-1.106h.293c.103 0 .184.016.24.048.1.058.162.17.162.293 0 .14-.067.25-.188.304l.27.461zm-.842-1.224a.773.773 0 0 0 0 1.342.765.765 0 0 0 .776 0 .759.759 0 0 0 .285-.284.78.78 0 0 0-.154-.963.76.76 0 0 0-.531-.2.725.725 0 0 0-.376.105zm.853-.134c.145.085.258.2.34.34a.911.911 0 0 1 .126.465.919.919 0 0 1-.125.466.9.9 0 0 1-.341.34.919.919 0 0 1-.465.124.913.913 0 0 1-.465-.124.909.909 0 0 1-.341-.34.909.909 0 0 1-.125-.463c0-.164.042-.32.125-.468a.896.896 0 0 1 .473-.403.92.92 0 0 1 .798.063z"/>
    </g>
</svg>
