<?xml version="1.0" encoding="UTF-8"?>
<svg width="87px" height="110px" viewBox="0 0 87 110" version="1.1" xmlns="http://www.w3.org/2000/svg" xmlns:xlink="http://www.w3.org/1999/xlink">
    <title>promo no disponible</title>
    <defs>
        <filter id="filter-1">
            <feColorMatrix in="SourceGraphic" type="matrix" values="0 0 0 0 0.847000 0 0 0 0 0.847000 0 0 0 0 0.847000 0 0 0 1.000000 0"></feColorMatrix>
        </filter>
        <path d="M46.353546,43.6897648 C46.7086781,44.0419966 46.9084348,44.5214694 46.9084348,45.0216554 C46.9084348,45.5218414 46.7086781,46.0013142 46.353546,46.353546 C46.0013142,46.7086781 45.5218414,46.9084348 45.0216554,46.9084348 C44.5214694,46.9084348 44.0419966,46.7086781 43.6897648,46.353546 L30.0144369,32.6594592 L16.339109,46.353546 C15.9868772,46.7086781 15.5074044,46.9084348 15.0072184,46.9084348 C14.5070324,46.9084348 14.0275596,46.7086781 13.6753278,46.353546 C13.3201957,46.0013142 13.120439,45.5218414 13.120439,45.0216554 C13.120439,44.5214694 13.3201957,44.0419966 13.6753278,43.6897648 L27.3694146,30.0144369 L13.6753278,16.339109 C13.1994891,15.8632704 13.0136529,15.1697203 13.1878219,14.5197126 C13.361991,13.8697048 13.8697048,13.361991 14.5197126,13.1878219 C15.1697203,13.0136529 15.8632704,13.1994891 16.339109,13.6753278 L30.0144369,27.3694146 L43.6897648,13.6753278 C44.4253476,12.9397449 45.6179631,12.9397449 46.353546,13.6753278 C47.0891289,14.4109107 47.0891289,15.6035262 46.353546,16.339109 L32.6594592,30.0144369 L46.353546,43.6897648 Z" id="path-2"></path>
    </defs>
    <g id="NOL-Web---Mobile" stroke="none" stroke-width="1" fill="none" fill-rule="evenodd">
        <g id="02.1-Destacada---Agrupador-Copy-2" transform="translate(-136.000000, -183.000000)">
            <g id="Group-2" transform="translate(38.000000, 183.000000)">
                <g id="Group-32" transform="translate(98.000000, 0.000000)">
                    <ellipse id="Oval-Copy-39" fill="#D8D8D8" opacity="0.6" cx="44.8643699" cy="107.917321" rx="42.3152579" ry="2.03928954"></ellipse>
                    <g id="Group-17-Copy-4" transform="translate(0.000000, 4.933200)">
                        <rect id="Rectangle" fill="#FFFFFF" x="0.618295233" y="0" width="84.6305159" height="84.6305159" rx="3.92563236"></rect>
                        <path d="M0.509822385,32.5181292 L0.509822385,81.0617592 C0.509822385,83.0327291 2.10760918,84.6305159 4.07857908,84.6305159 L81.5715816,84.6305159 C83.5425515,84.6305159 85.1403383,83.0327291 85.1403383,81.0617592 L85.1403383,3.56875669 C85.1403383,1.5977868 83.5425515,3.63474159e-15 81.5715816,0 L4.07857908,0 C2.10760918,-8.20279134e-17 0.509822385,1.5977868 0.509822385,3.56875669 L0.509822385,12.5069728 L0.509822385,12.5069728" id="Path-6" stroke="#C0C0C0" stroke-width="1.34969325" stroke-linecap="round"></path>
                        <line x1="0.254911192" y1="16.8241387" x2="0.254911192" y2="26.0009416" id="Line-4" stroke="#C0C0C0" stroke-width="1.34969325" stroke-linecap="round"></line>
                        <line x1="1.01964477" y1="12.3387638" x2="85.1403383" y2="12.3387638" id="Line-3" stroke="#C0C0C0" stroke-width="1.34969325" stroke-linecap="square"></line>
                        <g filter="url(#filter-1)" id="Group-31" opacity="0.295689174">
                            <g transform="translate(11.216092, 23.961652)">
                                <rect id="Rectangle" fill="#FE5500" x="0" y="0" width="8.1375496" height="8.1375496" rx="4.0687748"></rect>
                                <rect id="Rectangle-Copy-12" fill="#FE5500" x="0" y="19.883073" width="8.1375496" height="8.1375496" rx="4.0687748"></rect>
                                <rect id="Rectangle-Copy-17" fill="#FE5500" x="2.62631679e-14" y="39.2563236" width="8.1375496" height="8.1375496" rx="4.0687748"></rect>
                                <rect id="Rectangle-Copy-9" fill="#FE5500" x="18.3536059" y="0" width="8.1375496" height="8.1375496" rx="4.0687748"></rect>
                                <rect id="Rectangle-Copy-14" fill="#FE5500" x="18.3536059" y="19.883073" width="8.1375496" height="8.1375496" rx="4.0687748"></rect>
                                <rect id="Rectangle-Copy-18" fill="#FE5500" x="18.3536059" y="39.2563236" width="8.1375496" height="8.1375496" rx="4.0687748"></rect>
                                <rect id="Rectangle-Copy-10" fill="#FE5500" x="37.2170341" y="0" width="8.1375496" height="8.1375496" rx="4.0687748"></rect>
                                <rect id="Rectangle-Copy-20" fill="#FE5500" x="55.5706399" y="-8.92042083e-14" width="8.1375496" height="8.1375496" rx="4.0687748"></rect>
                                <rect id="Rectangle-Copy-16" fill="#FE5500" x="37.2170341" y="19.883073" width="8.1375496" height="8.1375496" rx="4.0687748"></rect>
                                <rect id="Rectangle-Copy-21" fill="#FE5500" x="55.5706399" y="19.883073" width="8.1375496" height="8.1375496" rx="4.0687748"></rect>
                                <rect id="Rectangle-Copy-19" fill="#FE5500" x="37.2170341" y="39.2563236" width="8.1375496" height="8.1375496" rx="4.0687748"></rect>
                                <rect id="Rectangle-Copy-22" fill="#FE5500" x="55.5706399" y="39.2563236" width="8.1375496" height="8.1375496" rx="4.0687748"></rect>
                            </g>
                        </g>
                    </g>
                    <g id="icons-/-control-and-notifications-/-cross" transform="translate(12.984200, 21.583782)">
                        <mask id="mask-3" fill="white">
                            <use xlink:href="#path-2"></use>
                        </mask>
                        <g id="icon-cross" fill-rule="nonzero"></g>
                        <g id="color-/-grayscale-400" mask="url(#mask-3)" fill="#BBBBBB" fill-rule="evenodd">
                            <rect id="Rectangle" x="0" y="0" width="60.0288738" height="60.0288738"></rect>
                        </g>
                    </g>
                    <line x1="13.1595092" y1="0" x2="13.1595092" y2="8.09815951" id="Line-9-Copy-9" stroke="#C0C0C0" stroke-width="2.02453988" stroke-linecap="round"></line>
                    <line x1="42.8527607" y1="0" x2="42.8527607" y2="8.09815951" id="Line-9-Copy-10" stroke="#C0C0C0" stroke-width="2.02453988" stroke-linecap="round"></line>
                    <line x1="71.196319" y1="0" x2="71.196319" y2="8.09815951" id="Line-9-Copy-11" stroke="#C0C0C0" stroke-width="2.02453988" stroke-linecap="round"></line>
                </g>
            </g>
        </g>
    </g>
</svg>