<svg xmlns="http://www.w3.org/2000/svg" width="80" height="31.451" viewBox="0 0 80 31.451"><g transform="translate(-98.544 -2432.5)"><g transform="translate(98.544 2432.5)"><g transform="translate(0 0)"><path d="M190.1,308.456v.162l1.891,2.582v10.747a4.056,4.056,0,0,1-2.147.549c-1.57,0-2.211-1.226-2.211-2.711V308.456h-7.241v.162l2.115,2.582v8.617c0,2.616,1.255,4.294,3.17,4.873a5.532,5.532,0,0,0,1.6.227,6.224,6.224,0,0,0,1.677-.227,7.831,7.831,0,0,0,3.129-1.839l4.335,1.839.535.227h.16v-16.46Z" transform="translate(-180.391 -301.356)" fill="#003e72"/><path d="M239.346,297.043a6.5,6.5,0,0,0-4.678,1.936v-8.714h-7.241v.161l2.115,2.582v20.01a24.182,24.182,0,0,0,3.086.58,27.807,27.807,0,0,0,3.45.227,13.186,13.186,0,0,0,2.481-.227c4.25-.814,7.259-3.811,7.259-8.874,0-4.55-2.884-7.681-6.472-7.681m-3.716,15.621a2.229,2.229,0,0,1-.961-.161V300.044a3.6,3.6,0,0,1,1.891-.516c1.794,0,3.428,1.517,3.428,5.938,0,5.519-1.73,7.2-4.357,7.2" transform="translate(-209.069 -290.265)" fill="#003e72"/><path d="M317.646,320.088a8.124,8.124,0,0,1-2.915.484c-4.2,0-6.28-3.615-6.28-7.649,0-2.711,1.217-4.131,2.6-4.131,1.121,0,1.89.742,2.691,1.711l3.076,3.776h.16v-6.1a21.47,21.47,0,0,0-4.9-.549c-4.549,0-8.138,3.647-8.138,8.843,0,4.424,2.455,6.975,5.472,7.713a7.985,7.985,0,0,0,1.9.227,6.6,6.6,0,0,0,1.716-.227,7.6,7.6,0,0,0,4.723-3.937Z" transform="translate(-255.715 -300.852)" fill="#003e72"/><path d="M350.346,307.63a8.234,8.234,0,0,0-8.49,8.423,7.9,7.9,0,0,0,6.394,8.132,9.8,9.8,0,0,0,4.193,0,7.9,7.9,0,0,0,6.394-8.132,8.234,8.234,0,0,0-8.49-8.423m0,15.621c-1.891,0-2.659-2-2.659-7.229,0-5.293.769-7.229,2.659-7.229s2.659,1.936,2.659,7.229c0,5.229-.768,7.229-2.659,7.229" transform="translate(-278.836 -300.852)" fill="#003e72"/><path d="M286.61,308.618v-.161h-9.355v.161h0l2.115,2.582v10.65l-2.115,2.582v.161h9.355v-.161L284.5,321.85V311.2Z" transform="translate(-239.449 -301.356)" fill="#003e72"/><path d="M197.457,295.8l-3.543-5.533H201Z" transform="translate(-188.636 -290.265)" fill="#72bf44"/><path d="M281.951,359.115a2.845,2.845,0,1,1,2.845,2.845,2.845,2.845,0,0,1-2.845-2.845" transform="translate(-242.312 -330.508)" fill="#72bf44"/></g></g></g></svg>