<?xml version="1.0" encoding="UTF-8"?>
<svg width="24px" height="24px" viewBox="0 0 24 24" version="1.1" xmlns="http://www.w3.org/2000/svg" xmlns:xlink="http://www.w3.org/1999/xlink">
    <title>Alimentos</title>
    <defs>
        <path d="M16.5,6.74999998 C15.5394535,6.73724822 14.6022384,7.04613318 13.8375,7.62749999 C13.5089896,7.87359328 13.1377225,8.0566839 12.7425,8.16749999 C12.7969557,7.51438084 13.0305225,6.88894084 13.4175,6.35999998 C14.1675,5.35499998 15.4875,4.72499998 17.34,4.49249998 C17.7542136,4.44279435 18.0497056,4.06671354 18,3.65249997 C17.9502944,3.23828641 17.5742136,2.94279434 17.16,2.99249997 C15.3730068,3.10201891 13.6921869,3.87819371 12.45,5.16749998 C11.7923014,3.41670539 10.1202465,2.25522438 8.24999999,2.24998335 C7.47636685,2.24787434 6.7158331,2.4496486 6.04499998,2.83499997 C6.33834995,5.07240927 8.24344446,6.74658323 10.5,6.74999998 C10.8665269,6.74760437 11.2315124,6.70229582 11.5875,6.61499998 C11.3976349,7.11000467 11.2838442,7.63091305 11.25,8.15999999 C10.8604498,8.0500788 10.4943845,7.86958826 10.17,7.62749999 C9.40322899,7.04453966 8.46310548,6.73556648 7.49999999,6.74999998 C5.35499998,6.74999998 3.64499997,8.45999999 3.14999997,11.115 L3.14999997,11.115 C3.07544154,11.5292136 3.35078642,11.9254415 3.76499998,12 C4.17921353,12.0745584 4.57544153,11.7992136 4.64999998,11.385 L4.64999998,11.385 C4.90499998,9.86999999 5.81249998,8.24999999 7.49999999,8.24999999 C8.16625526,8.23749288 8.8160325,8.4576215 9.33749999,8.87249999 C10.1022384,9.4538668 11.0394535,9.76275176 12,9.74999999 L12,9.74999999 C12.9605465,9.76275176 13.8977616,9.4538668 14.6625,8.87249999 C15.1839675,8.4576215 15.8337447,8.23749288 16.5,8.24999999 C18.2625,8.24999999 19.5,10.1025 19.5,12.75 C19.5,16.4025 15.9,20.9175 15,21 C14.5931792,21.0094175 14.1914199,20.9083296 13.8375,20.7075 C13.2761314,20.3954519 12.6421488,20.2376032 12,20.25 C11.3578512,20.2376032 10.7238686,20.3954519 10.1625,20.7075 C9.80858008,20.9083296 9.40682078,21.0094175 8.99999999,21 C8.19749999,20.925 5.37749998,17.4975 4.64999998,14.0925 L3.14999997,14.4075 C3.90749997,17.7525 7.03499998,22.5 8.99999999,22.5 C9.6421488,22.5123968 10.2761313,22.3545481 10.8375,22.0425 C11.5636007,21.6531574 12.4363993,21.6531574 13.1625,22.0425 C13.7238687,22.3545481 14.3578512,22.5123968 15,22.5 C17.1225,22.5 21,16.77 21,12.75 C21,9.21749999 19.1475,6.74999998 16.5,6.74999998 Z M10.5,5.24999997 C9.43466681,5.2435696 8.45265688,4.67263359 7.91999999,3.74999997 L8.24999999,3.74999997 C9.31533317,3.75643036 10.2973431,4.32736637 10.83,5.24999997 L10.5,5.24999997 Z" id="path-1"></path>
    </defs>
    <g id="V-2" stroke="none" stroke-width="1" fill="none" fill-rule="evenodd">
        <g id="Categorias" transform="translate(-53.000000, -622.000000)">
            <g id="icons-/-food-and-drink-/-food" transform="translate(53.000000, 622.000000)">
                <mask id="mask-2" fill="white">
                    <use xlink:href="#path-1"></use>
                </mask>
                <g id="icon-food" fill-rule="nonzero"></g>
                <g id="Group" mask="url(#mask-2)" fill="#333333">
                    <g id="🌈-Color">
                        <rect id="Rectangle" x="0" y="0" width="24" height="24"></rect>
                    </g>
                </g>
            </g>
        </g>
    </g>
</svg>