<?xml version="1.0" encoding="UTF-8"?>
<svg width="40px" height="40px" viewBox="0 0 40 40" version="1.1" xmlns="http://www.w3.org/2000/svg" xmlns:xlink="http://www.w3.org/1999/xlink">
    <title>Alimentos_empty</title>
    <defs>
        <path d="M22.5,8.24999997 C20.8990892,8.22874703 19.3370641,8.7435553 18.0625,9.71249998 C17.5149826,10.1226555 16.8962041,10.4278065 16.2375,10.6125 C16.3282594,9.52396807 16.7175375,8.48156807 17.3625,7.59999997 C18.6125,5.92499997 20.8125,4.87499996 23.9,4.48749996 C24.590356,4.40465725 25.0828427,3.7778559 25,3.08749996 C24.9171573,2.39714402 24.290356,1.90465724 23.6,1.98749995 C20.6216781,2.17003152 17.8203115,3.46365619 15.75,5.61249996 C14.6538357,2.69450899 11.8670774,0.758707292 8.74999998,0.74989167 C7.46061141,0.74645723 6.19305517,1.08274766 5.07499997,1.72499995 C5.56391658,5.45401545 8.73907409,8.24430538 12.5,8.24999997 C13.1108782,8.24600728 13.7191874,8.17049303 14.3125,8.02499997 C13.9960581,8.85000778 13.806407,9.71818842 13.75,10.6 C13.1007497,10.416798 12.4906408,10.1159804 11.95,9.71249998 C10.6720483,8.74089943 9.1051758,8.22594414 7.49999998,8.24999997 C3.92499997,8.24999997 1.07499996,11.1 0.249999954,15.525 C0.167157252,15.9852373 0.167157252,17.814404 0.249999954,21.0125 C1.51249996,26.5875 6.72499997,34.5000001 9.99999998,34.5000001 C11.070248,34.5206614 12.1268856,34.2575802 13.0625,33.7375001 C14.2726679,33.0885957 15.7273321,33.0885957 16.9375,33.7375001 C17.8731144,34.2575802 18.929752,34.5206614 20,34.5000001 C23.5375,34.5000001 30,24.95 30,18.25 C30,12.3625 26.9125,8.24999997 22.5,8.24999997 Z" id="path-1"></path>
        <path d="M27.5,11.25 C25.8990892,11.228747 24.3370641,11.7435553 23.0625,12.7125 C22.5149826,13.1226555 21.8962041,13.4278065 21.2375,13.6125 C21.3282594,12.5239681 21.7175375,11.4815681 22.3625,10.6 C23.6125,8.92499997 25.8125,7.87499996 28.9,7.48749996 C29.590356,7.40465725 30.0828427,6.7778559 30,6.08749996 C29.9171573,5.39714402 29.290356,4.90465724 28.6,4.98749995 C25.6216781,5.17003152 22.8203115,6.46365619 20.75,8.61249996 C19.6538357,5.69450899 16.8670774,3.75870729 13.75,3.74997225 C12.4606114,3.74645723 11.1930552,4.08274766 10.075,4.72499995 C10.5639166,8.45401545 13.7390741,11.2443054 17.5,11.25 C18.1108782,11.2460073 18.7191874,11.170493 19.3125,11.025 C18.9960581,11.8500078 18.806407,12.7181884 18.75,13.6 C18.1007497,13.416798 17.4906408,13.1159804 16.95,12.7125 C15.6720483,11.7408994 14.1051758,11.2259441 12.5,11.25 C8.92499997,11.25 6.07499996,14.1 5.24999995,18.525 L5.24999995,18.525 C5.1257359,19.2153559 5.58464403,19.8757359 6.27499996,20 C6.96535589,20.124264 7.62573588,19.6653559 7.74999996,18.975 L7.74999996,18.975 C8.17499996,16.45 9.68749997,13.75 12.5,13.75 C13.6104254,13.7291548 14.6933875,14.0960358 15.5625,14.7875 C16.837064,15.7564447 18.3990891,16.2712529 20,16.25 L20,16.25 C21.6009109,16.2712529 23.162936,15.7564447 24.4375,14.7875 C25.3066125,14.0960358 26.3895746,13.7291548 27.5,13.75 C30.4375,13.75 32.5,16.8375 32.5,21.25 C32.5,27.3375 26.5,34.8625 25,35 C24.3219654,35.0156958 23.6523665,34.8472161 23.0625,34.5125 C22.1268856,33.9924199 21.070248,33.7293387 20,33.75 C18.929752,33.7293387 17.8731144,33.9924199 16.9375,34.5125 C16.3476335,34.8472161 15.6780346,35.0156958 15,35 C13.6625,34.875 8.96249997,29.1625 7.74999996,23.4875 L5.24999995,24.0125 C6.51249996,29.5875 11.725,37.5000001 15,37.5000001 C16.070248,37.5206614 17.1268856,37.2575802 18.0625,36.7375001 C19.2726679,36.0885957 20.7273321,36.0885957 21.9375,36.7375001 C22.8731144,37.2575802 23.929752,37.5206614 25,37.5000001 C28.5375,37.5000001 35,27.95 35,21.25 C35,15.3625 31.9125,11.25 27.5,11.25 Z M17.5,8.74999996 C15.7244447,8.73928266 14.0877615,7.78772264 13.2,6.24999996 L13.75,6.24999996 C15.5255553,6.26071726 17.1622385,7.21227728 18.05,8.74999996 L17.5,8.74999996 Z" id="path-3"></path>
    </defs>
    <g id="V-2" stroke="none" stroke-width="1" fill="none" fill-rule="evenodd">
        <g id="Categorias-Empty-State---Mobile" transform="translate(-32.000000, -721.000000)">
            <g id="Alimentos-Copy-2" transform="translate(30.000000, 721.000000)">
                <g id="Group-2" transform="translate(0.000000, 1.000000)">
                    <g id="icons-/-food-and-drink-/-food" transform="translate(8.000000, 1.000000)">
                        <mask id="mask-2" fill="white">
                            <use xlink:href="#path-1"></use>
                        </mask>
                        <use id="icon-food" fill="#FDDBCA" fill-rule="nonzero" xlink:href="#path-1"></use>
                    </g>
                    <g id="icons-/-food-and-drink-/-food-copy">
                        <mask id="mask-4" fill="white">
                            <use xlink:href="#path-3"></use>
                        </mask>
                        <g id="icon-food" fill-rule="nonzero"></g>
                        <g id="Group" mask="url(#mask-4)" fill="#FE5000">
                            <g id="🎨-Icon-color">
                                <rect id="Rectangle" x="0" y="0" width="40" height="40"></rect>
                            </g>
                        </g>
                    </g>
                </g>
            </g>
        </g>
    </g>
</svg>