<?xml version="1.0" encoding="UTF-8"?>
<svg width="40px" height="40px" viewBox="0 0 40 40" version="1.1" xmlns="http://www.w3.org/2000/svg" xmlns:xlink="http://www.w3.org/1999/xlink">
    <title>Autos y motos_empty</title>
    <defs>
        <path d="M10.75,18.125 C10.75,19.1605339 9.91053388,20 8.87499997,20 C7.83946607,20 6.99999997,19.1605339 6.99999997,18.125 C6.99999997,17.0894661 7.83946607,16.25 8.87499997,16.25 C9.91053388,16.25 10.75,17.0894661 10.75,18.125 Z M33.2499999,15 L33.2499999,21.25 C33.2455446,22.8353187 32.2446609,24.2465647 30.7499999,24.775 L30.7499999,28.75 C30.7499999,29.440356 30.190356,30 29.5,30 L27,30 C26.3096441,30 25.7499999,29.440356 25.7499999,28.75 L25.7499999,25 L8.24999995,25 L8.24999995,28.75 C8.24999995,29.440356 7.69035591,30 6.99999997,30 L4.49999996,30 C3.80964402,30 3.24999995,29.440356 3.24999995,28.75 L3.24999995,24.775 C1.75533908,24.2465647 0.754455406,22.8353187 0.749999949,21.25 L0.749999949,15 C0.75716495,13.3344901 1.86198244,11.8732799 3.46249996,11.4125 L5.23749996,3.42499996 C5.72608867,1.45445568 7.47047418,0.0528086725 9.49999998,-4.68750017e-08 L24.5,-4.68750017e-08 C26.5295258,0.0528086725 28.2739113,1.45445568 28.7625,3.42499996 L30.5375,11.4125 C32.1380176,11.8732799 33.242835,13.3344901 33.2499999,15 Z" id="path-1"></path>
        <path d="M13.75,23.125 C13.75,24.1605339 12.9105339,25 11.875,25 C10.8394661,25 9.99999997,24.1605339 9.99999997,23.125 C9.99999997,22.0894661 10.8394661,21.25 11.875,21.25 C12.9105339,21.25 13.75,22.0894661 13.75,23.125 Z M28.125,21.25 C27.0894661,21.25 26.25,22.0894661 26.25,23.125 C26.25,24.1605339 27.0894661,25 28.125,25 C29.1605339,25 30,24.1605339 30,23.125 C30,22.0894661 29.1605339,21.25 28.125,21.25 Z M36.2499999,20 L36.2499999,26.25 C36.2455446,27.8353187 35.2446609,29.2465647 33.7499999,29.775 L33.7499999,33.75 C33.7499999,34.440356 33.190356,35 32.5,35 L30,35 C29.3096441,35 28.7499999,34.440356 28.7499999,33.75 L28.7499999,30 L11.2499999,30 L11.2499999,33.75 C11.2499999,34.440356 10.6903559,35 9.99999997,35 L7.49999996,35 C6.80964402,35 6.24999995,34.440356 6.24999995,33.75 L6.24999995,29.775 C4.75533908,29.2465647 3.75445541,27.8353187 3.74999995,26.25 L3.74999995,20 C3.75716495,18.3344901 4.86198244,16.8732799 6.46249996,16.4125 L8.23749996,8.42499996 C8.72608867,6.45445568 10.4704742,5.05280867 12.5,4.99999995 L27.5,4.99999995 C29.5295258,5.05280867 31.2739113,6.45445568 31.7625,8.42499996 L33.5375,16.4125 C35.1380176,16.8732799 36.242835,18.3344901 36.2499999,20 Z M9.06249997,16.25 L20.7375,16.25 L17.8625,13.3875 C17.3723473,12.8973473 17.3723473,12.1026527 17.8625,11.6125 C18.3526527,11.1223473 19.1473473,11.1223473 19.6375,11.6125 L24.2625,16.25 L30.9375,16.25 L29.325,8.96249997 C29.0816858,8.14177766 28.3540184,7.558647 27.5,7.49999996 L12.5,7.49999996 C11.6459816,7.558647 10.9183142,8.14177766 10.675,8.96249997 L9.06249997,16.25 Z M33.75,20 C33.75,19.3096441 33.190356,18.75 32.5,18.75 L7.49999996,18.75 C6.80964402,18.75 6.24999996,19.3096441 6.24999996,20 L6.24999996,26.25 C6.24999996,26.940356 6.80964402,27.5 7.49999996,27.5 L32.5,27.5 C33.190356,27.5 33.75,26.940356 33.75,26.25 L33.75,20 Z" id="path-3"></path>
    </defs>
    <g id="V-2" stroke="none" stroke-width="1" fill="none" fill-rule="evenodd">
        <g id="Categorias-Empty-State---Mobile" transform="translate(-32.000000, -31.000000)">
            <g id="Autos-y-motos-Copy-2" transform="translate(31.000000, 31.000000)">
                <g id="autos" transform="translate(0.000000, 1.000000)">
                    <g id="icons-/-house-and-home-items-/-car-accesories-copy" transform="translate(5.000000, 3.000000)">
                        <mask id="mask-2" fill="white">
                            <use xlink:href="#path-1"></use>
                        </mask>
                        <use id="icon-car-accesories" fill="#FDDBCA" fill-rule="nonzero" xlink:href="#path-1"></use>
                    </g>
                    <g id="icons-/-house-and-home-items-/-car-accesories-copy-2">
                        <mask id="mask-4" fill="white">
                            <use xlink:href="#path-3"></use>
                        </mask>
                        <g id="icon-car-accesories" fill-rule="nonzero"></g>
                        <g id="Group" mask="url(#mask-4)" fill="#FE5000">
                            <g id="🎨-Icon-color">
                                <rect id="Rectangle" x="0" y="0" width="40" height="40"></rect>
                            </g>
                        </g>
                    </g>
                </g>
            </g>
        </g>
    </g>
</svg>