<?xml version="1.0" encoding="UTF-8"?>
<svg width="24px" height="24px" viewBox="0 0 24 24" version="1.1" xmlns="http://www.w3.org/2000/svg" xmlns:xlink="http://www.w3.org/1999/xlink">
    <title>Autos y motos</title>
    <defs>
        <path d="M8.24999999,13.875 C8.24999999,14.4963204 7.74632033,15 7.12499998,15 C6.50367964,15 5.99999998,14.4963204 5.99999998,13.875 C5.99999998,13.2536797 6.50367964,12.75 7.12499998,12.75 C7.74632033,12.75 8.24999999,13.2536797 8.24999999,13.875 Z M16.875,12.75 C16.2536797,12.75 15.75,13.2536797 15.75,13.875 C15.75,14.4963204 16.2536797,15 16.875,15 C17.4963204,15 18,14.4963204 18,13.875 C18,13.2536797 17.4963204,12.75 16.875,12.75 Z M21.75,12 L21.75,15.75 C21.7473268,16.7011912 21.1467966,17.5479388 20.25,17.865 L20.25,20.25 C20.25,20.6642136 19.9142136,21 19.5,21 L18,21 C17.5857865,21 17.25,20.6642136 17.25,20.25 L17.25,18 L6.74999997,18 L6.74999997,20.25 C6.74999997,20.6642136 6.41421354,21 5.99999998,21 L4.49999998,21 C4.08578641,21 3.74999997,20.6642136 3.74999997,20.25 L3.74999997,17.865 C2.85320345,17.5479388 2.25267324,16.7011912 2.24999997,15.75 L2.24999997,12 C2.25429897,11.0006941 2.91718946,10.1239679 3.87749997,9.84749999 L4.94249998,5.05499998 C5.2356532,3.87267341 6.28228451,3.0316852 7.49999999,2.99999997 L16.5,2.99999997 C17.7177155,3.0316852 18.7643468,3.87267341 19.0575,5.05499998 L20.1225,9.84749999 C21.0828105,10.1239679 21.745701,11.0006941 21.75,12 Z M5.43749998,9.74999999 L12.4425,9.74999999 L10.7175,8.03249999 C10.4234084,7.73840836 10.4234084,7.26159161 10.7175,6.96749998 C11.0115916,6.67340835 11.4884084,6.67340835 11.7825,6.96749998 L14.5575,9.74999999 L18.5625,9.74999999 L17.595,5.37749998 C17.4490115,4.8850666 17.0124111,4.5351882 16.5,4.49999998 L7.49999999,4.49999998 C6.98758893,4.5351882 6.55098854,4.8850666 6.40499998,5.37749998 L5.43749998,9.74999999 Z M20.25,12 C20.25,11.5857864 19.9142136,11.25 19.5,11.25 L4.49999998,11.25 C4.08578641,11.25 3.74999997,11.5857864 3.74999997,12 L3.74999997,15.75 C3.74999997,16.1642136 4.08578641,16.5 4.49999998,16.5 L19.5,16.5 C19.9142136,16.5 20.25,16.1642136 20.25,15.75 L20.25,12 Z" id="path-1"></path>
    </defs>
    <g id="V-2" stroke="none" stroke-width="1" fill="none" fill-rule="evenodd">
        <g id="Categorias" transform="translate(-53.000000, -31.000000)">
            <g id="icons-/-house-and-home-items-/-car-accesories" transform="translate(53.000000, 31.000000)">
                <mask id="mask-2" fill="white">
                    <use xlink:href="#path-1"></use>
                </mask>
                <g id="icon-car-accesories" fill-rule="nonzero"></g>
                <g id="Group" mask="url(#mask-2)" fill="#333333">
                    <g id="🎨-Icon-color">
                        <rect id="Rectangle" x="0" y="0" width="24" height="24"></rect>
                    </g>
                </g>
            </g>
        </g>
    </g>
</svg>