<svg xmlns="http://www.w3.org/2000/svg" width="40" height="40" viewBox="0 0 40 40">
    <g fill="none">
        <path fill="#FDDBCA" d="M1 4.583C1 2.58 2.572.943 4.55.84l.2-.006H18.5c2.004 0 3.641 1.573 3.745 3.551l.005.2v13.75h1.25c1.325 0 2.41 1.03 2.495 2.335l.005.164v9.45l.174.133c.398.29.752.417 1.076.417.329 0 .69-.132 1.095-.43l.155-.12V15.62c-.39.138-.811.213-1.25.213-2.071 0-3.75-1.679-3.75-3.75 0-1.55.94-2.88 2.282-3.451l-2.54-2.54c-.489-.488-.489-1.28 0-1.768.455-.455 1.175-.486 1.665-.09l.102.09 5.259 5.26c.422.421.677.979.724 1.57l.008.197v18.931c0 .751-.337 1.462-.92 1.937-.89.727-1.84 1.114-2.83 1.114s-1.94-.387-2.83-1.114c-.534-.435-.862-1.069-.913-1.75l-.007-.187v-9.449h-1.25v15H22V36H1V4.583zm26.25 6.25c-.69 0-1.25.56-1.25 1.25s.56 1.25 1.25 1.25 1.25-.56 1.25-1.25-.56-1.25-1.25-1.25z" transform="translate(5 .667)"/>
        <path fill="#F50" d="M17.5 1.833c2.004 0 3.641 1.573 3.745 3.551l.005.2v13.75h1.25c1.325 0 2.41 1.03 2.495 2.335l.005.164v9.45l.174.133c.398.29.752.417 1.076.417.37 0 .78-.167 1.25-.55V16.62c-.39.138-.811.213-1.25.213-2.071 0-3.75-1.679-3.75-3.75 0-1.55.94-2.88 2.282-3.451l-2.54-2.54c-.489-.488-.489-1.28 0-1.768.487-.488 1.279-.488 1.767 0l5.259 5.26c.469.468.732 1.104.732 1.767v18.931c0 .751-.337 1.462-.92 1.937-.89.727-1.84 1.114-2.83 1.114s-1.94-.387-2.83-1.114c-.582-.475-.92-1.186-.92-1.937v-9.449h-1.25v15H0v-10h2.5v7.5h16.25V5.583c0-.647-.492-1.18-1.122-1.243l-.128-.007H3.75c-.647 0-1.18.492-1.244 1.123l-.006.127v16.25c0 .69-.56 1.25-1.25 1.25-.647 0-1.18-.492-1.244-1.122L0 21.833V5.583C0 3.58 1.572 1.943 3.55 1.84l.2-.006H17.5zm-5 5c2.071 0 3.75 1.68 3.75 3.75v6.25H5v-6.25c0-2.07 1.679-3.75 3.75-3.75h3.75zm0 2.5H8.75c-.69 0-1.25.56-1.25 1.25v3.75h6.25v-3.75c0-.69-.56-1.25-1.25-1.25zm13.75 2.5c-.69 0-1.25.56-1.25 1.25s.56 1.25 1.25 1.25 1.25-.56 1.25-1.25-.56-1.25-1.25-1.25z" transform="translate(5 .667)"/>
    </g>
</svg>
