<svg xmlns="http://www.w3.org/2000/svg" width="24" height="24" viewBox="0 0 24 24">
    <path fill="#333" fill-rule="nonzero" d="M13.5 1.5a2.25 2.25 0 0 1 2.245 2.096l.005.154V12h.75a1.5 1.5 0 0 1 1.493 1.356L18 13.5v5.67l.104.08c.24.173.452.25.646.25.19 0 .398-.074.631-.24l.119-.09v-8.798a2.25 2.25 0 0 1-1.632-4.192l-1.523-1.525a.75.75 0 0 1 .976-1.133l.084.073 3.156 3.155a1.5 1.5 0 0 1 .432.912l.007.149v11.358a1.5 1.5 0 0 1-.552 1.162c-.534.436-1.104.669-1.698.669-.594 0-1.164-.233-1.698-.669a1.5 1.5 0 0 1-.545-1.012l-.007-.15V13.5h-.75v9H3v-6h1.5V21h9.75V3.75a.75.75 0 0 0-.648-.743L13.5 3H5.25a.75.75 0 0 0-.743.648L4.5 3.75v9.75a.75.75 0 0 1-1.493.102L3 13.5V3.75a2.25 2.25 0 0 1 2.096-2.245L5.25 1.5h8.25zm-3 3a2.25 2.25 0 0 1 2.25 2.25v3.75H6V6.75A2.25 2.25 0 0 1 8.25 4.5h2.25zm0 1.5H8.25a.75.75 0 0 0-.75.75V9h3.75V6.75A.75.75 0 0 0 10.5 6zm8.25 1.5a.75.75 0 1 0 0 1.5.75.75 0 0 0 0-1.5z"/>
</svg>
