<?xml version="1.0" encoding="UTF-8"?>
<svg width="40px" height="40px" viewBox="0 0 40 40" version="1.1" xmlns="http://www.w3.org/2000/svg" xmlns:xlink="http://www.w3.org/1999/xlink">
    <title>Compras online_empty</title>
    <defs>
        <path d="M12,0 C15.3137085,0 18,2.63832202 18,5.89285716 L18,5.89285716 L22.8000001,5.89285716 C23.4627418,5.89285716 24,6.42052156 24,7.07142859 L24,7.07142859 L24,33 L4.80000001,33 C2.14903321,33 0,30.8893425 0,28.2857144 L0,28.2857144 L0,7.07142859 C0,6.42052156 0.537258302,5.89285716 1.2,5.89285716 L1.2,5.89285716 L6,5.89285716 C6,2.63832202 8.68629153,0 12,0 Z M11.5,2 C9.56700338,2 8,3.790861 8,6 L8,6 L15,6 C15,3.790861 13.4329966,2 11.5,2 Z" id="path-1"></path>
        <filter id="filter-3">
            <feColorMatrix in="SourceGraphic" type="matrix" values="0 0 0 0 1.000000 0 0 0 0 0.333333 0 0 0 0 0.000000 0 0 0 1.000000 0"></feColorMatrix>
        </filter>
        <path d="M28.7499999,18.7499999 L28.7499999,8.74999995 C28.7499999,8.05964403 28.190356,7.49999996 27.5,7.49999996 L22.5,7.49999996 C22.5,4.04822027 19.7017797,1.24999995 16.2499999,1.24999995 C12.7982203,1.24999995 9.99999996,4.04822027 9.99999996,7.49999996 L4.99999995,7.49999996 C4.30964401,7.49999996 3.74999995,8.05964403 3.74999995,8.74999995 L3.74999995,31.2499999 C3.74999995,34.0114238 5.9885762,36.2499999 8.74999995,36.2499999 L13.8125,36.2499999 C14.5028559,36.2499999 15.0625,35.690356 15.0625,35.0000001 C15.0625,34.3096441 14.5028559,33.7499999 13.8125,33.7499999 L8.74999995,33.7499999 C7.36928808,33.7499999 6.24999995,32.6307119 6.24999995,31.2499999 L6.24999995,9.99999997 L9.99999996,9.99999997 L9.99999996,13.7499999 C9.99999996,14.4403559 10.559644,15 11.2499999,15 C11.9403559,15 12.5,14.4403559 12.5,13.7499999 L12.5,9.99999997 L20,9.99999997 L20,13.7499999 C20,14.4403559 20.5596441,15 21.2499999,15 C21.9403559,15 22.5,14.4403559 22.5,13.7499999 L22.5,9.99999997 L26.2499999,9.99999997 L26.2499999,18.7499999 L28.7499999,18.7499999 Z M12.5,7.49999996 C12.5,5.42893215 14.1789322,3.74999995 16.25,3.74999995 C18.3210678,3.74999995 20,5.42893215 20,7.49999996 L12.5,7.49999996 Z" id="path-4"></path>
    </defs>
    <g id="V-2" stroke="none" stroke-width="1" fill="none" fill-rule="evenodd">
        <g id="Categorias-Empty-State---Mobile" transform="translate(-32.000000, -881.000000)">
            <g id="Compras-online-Copy-2" transform="translate(32.000000, 881.000000)">
                <g id="icons-/-monitor-copy" transform="translate(1.000000, 0.000000)">
                    <g id="icons-/-finance-and-shopping-/-shopping-bag" transform="translate(7.000000, 1.000000)">
                        <mask id="mask-2" fill="white">
                            <use xlink:href="#path-1"></use>
                        </mask>
                        <use id="icon-shopping-bag" fill="#FDDBCA" fill-rule="nonzero" xlink:href="#path-1"></use>
                    </g>
                    <g id="icons-/-finance-and-shopping-/-shopping-bag-copy" filter="url(#filter-3)">
                        <g>
                            <mask id="mask-5" fill="white">
                                <use xlink:href="#path-4"></use>
                            </mask>
                            <use id="icon-shopping-bag" fill="#333333" fill-rule="nonzero" xlink:href="#path-4"></use>
                            <path d="M25.5678954,38.6176749 C26.7477946,38.6176749 27.7843415,38.5515123 28.6775362,38.4191871 C29.5597038,38.286862 30.6072779,38.0332388 31.8202583,37.6693447 L30.9380907,35.2544108 C29.6589477,35.5852237 28.6885633,35.8057656 28.0159105,35.9050095 C27.3432577,36.0042533 26.5713611,36.0593888 25.6891934,36.0593888 C23.6160996,36.0593888 22.0171708,35.5962508 20.9034342,34.6810019 C19.5801827,33.5893195 18.918557,32.0786074 18.918557,30.1378387 C18.918557,28.3845306 19.4588847,26.928954 20.5285129,25.771109 C21.7414934,24.4588847 23.4727473,23.8082861 25.7112476,23.8082861 C27.6740706,23.8082861 29.11862,24.4147763 30.0338689,25.6387839 C30.7285759,26.5540328 31.081443,27.6787965 31.081443,29.0020479 C31.081443,31.0641147 30.2544108,32.1999055 28.5893195,32.4094203 L29.4935413,25.3189981 L26.1964398,25.3189981 C24.3218336,25.3189981 22.8772842,25.8372716 21.8738185,26.8738185 C20.9144612,27.85523 20.4402962,29.1123188 20.4402962,30.634058 C20.4402962,32.3653119 21.112949,33.6003466 22.4472275,34.3612161 C23.1639887,34.7692187 23.9579395,34.9787335 24.8180529,34.9787335 L27.6740706,34.9787335 C29.6589477,34.9787335 30.9270636,34.5597038 31.9856648,33.5562382 C33.165564,32.4425016 33.75,30.9097353 33.75,28.9579395 C33.75,27.1384688 33.2537807,25.5615942 32.2613422,24.2273157 C30.7837114,22.2424386 28.5782924,21.25 25.634058,21.25 C23.9138311,21.25 22.3369565,21.5918399 20.9034342,22.2865469 C19.4037492,23.0143352 18.2348771,24.1170447 17.3968179,25.6057026 C16.6359483,26.9730624 16.25,28.4948015 16.25,30.1819471 C16.25,32.48661 16.9667612,34.4053245 18.3892565,35.9491178 C20.0322936,37.7244802 22.4251733,38.6176749 25.5678954,38.6176749 Z M25.865627,32.4204474 L24.9944865,32.4204474 C23.8035602,32.4204474 23.1639887,31.7588217 23.1639887,30.5568683 C23.1639887,30.0275677 23.2852867,29.5313485 23.5168557,29.0792376 C23.7263705,28.6822621 24.0241021,28.3845306 24.4210775,28.1860428 C24.82908,27.976528 25.3583806,27.8772842 25.9979521,27.8772842 L26.4390359,27.8772842 L25.865627,32.4204474 Z" id="@" fill="#333333" fill-rule="nonzero"></path>
                        </g>
                    </g>
                </g>
            </g>
        </g>
    </g>
</svg>