<?xml version="1.0" encoding="UTF-8"?>
<svg width="24px" height="24px" viewBox="0 0 24 24" version="1.1" xmlns="http://www.w3.org/2000/svg" xmlns:xlink="http://www.w3.org/1999/xlink">
    <title>Compras online</title>
    <defs>
        <path d="M17.25,11.25 L17.25,5.24999997 C17.25,4.83578642 16.9142136,4.49999998 16.5,4.49999998 L13.5,4.49999998 C13.5,2.42893216 11.8210678,0.749999967 9.74999997,0.749999967 C7.67893217,0.749999967 5.99999998,2.42893216 5.99999998,4.49999998 L2.99999997,4.49999998 C2.58578641,4.49999998 2.24999997,4.83578642 2.24999997,5.24999997 L2.24999997,18.75 C2.24999997,20.4068543 3.59314572,21.75 5.24999997,21.75 L8.28749998,21.75 C8.70171355,21.75 9.03749999,21.4142136 9.03749999,21 C9.03749999,20.5857865 8.70171355,20.25 8.28749998,20.25 L5.24999997,20.25 C4.42157285,20.25 3.74999997,19.5784272 3.74999997,18.75 L3.74999997,5.99999998 L5.99999998,5.99999998 L5.99999998,8.24999997 C5.99999998,8.66421355 6.33578642,8.99999999 6.74999997,8.99999999 C7.16421354,8.99999999 7.49999998,8.66421355 7.49999998,8.24999997 L7.49999998,5.99999998 L12,5.99999998 L12,8.24999997 C12,8.66421355 12.3357864,8.99999999 12.75,8.99999999 C13.1642136,8.99999999 13.5,8.66421355 13.5,8.24999997 L13.5,5.99999998 L15.75,5.99999998 L15.75,11.25 L17.25,11.25 Z M7.49999998,4.49999998 C7.49999998,3.25735929 8.5073593,2.24999997 9.74999999,2.24999997 C10.9926407,2.24999997 12,3.25735929 12,4.49999998 L7.49999998,4.49999998 Z" id="path-1"></path>
    </defs>
    <g id="Filtros-V2" stroke="none" stroke-width="1" fill="none" fill-rule="evenodd">
        <g id="Categorias" transform="translate(-53.000000, -804.000000)">
            <g id="Compras-online" transform="translate(53.000000, 804.000000)">
                <g id="icons-/-finance-and-shopping-/-shopping-bag" transform="translate(1.000000, 0.000000)">
                    <mask id="mask-2" fill="white">
                        <use xlink:href="#path-1"></use>
                    </mask>
                    <use id="icon-shopping-bag" fill="#333333" fill-rule="nonzero" xlink:href="#path-1"></use>
                    <path d="M15.3407372,23.1706049 C16.0486767,23.1706049 16.6706049,23.1309074 17.2065217,23.0515123 C17.7358223,22.9721172 18.3643667,22.8199433 19.092155,22.6016068 L18.5628544,21.1526465 C17.7953686,21.3511342 17.213138,21.4834594 16.8095463,21.5430057 C16.4059546,21.602552 15.9428166,21.6356333 15.4135161,21.6356333 C14.1696597,21.6356333 13.2103025,21.3577505 12.5420605,20.8086011 C11.7481096,20.1535917 11.3511342,19.2471645 11.3511342,18.0827032 C11.3511342,17.0307183 11.6753308,16.1573724 12.3171078,15.4626654 C13.044896,14.6753308 14.0836484,14.2849716 15.4267486,14.2849716 C16.6044423,14.2849716 17.471172,14.6488658 18.0203214,15.3832703 C18.4371456,15.9324197 18.6488658,16.6072779 18.6488658,17.4012287 C18.6488658,18.6384688 18.1526465,19.3199433 17.1535917,19.4456522 L17.6961248,15.1913989 L15.7178639,15.1913989 C14.5931002,15.1913989 13.7263705,15.5023629 13.1242911,16.1242911 C12.5486767,16.713138 12.2641777,17.4673913 12.2641777,18.3804348 C12.2641777,19.4191871 12.6677694,20.1602079 13.4683365,20.6167297 C13.8983932,20.8615312 14.3747637,20.9872401 14.8908318,20.9872401 L16.6044423,20.9872401 C17.7953686,20.9872401 18.5562382,20.7358223 19.1913989,20.1337429 C19.8993384,19.4655009 20.25,18.5458412 20.25,17.3747637 C20.25,16.2830813 19.9522684,15.3369565 19.3568053,14.5363894 C18.4702268,13.3454631 17.1469754,12.75 15.3804348,12.75 C14.3482987,12.75 13.4021739,12.955104 12.5420605,13.3719282 C11.6422495,13.8086011 10.9409263,14.4702268 10.4380907,15.3634216 C9.981569,16.1838374 9.75,17.0968809 9.75,18.1091682 C9.75,19.491966 10.1800567,20.6431947 11.0335539,21.5694707 C12.0193762,22.6346881 13.455104,23.1706049 15.3407372,23.1706049 Z M15.5193762,19.4522684 L14.9966919,19.4522684 C14.2821361,19.4522684 13.8983932,19.055293 13.8983932,18.334121 C13.8983932,18.0165406 13.971172,17.7188091 14.1101134,17.4475425 C14.2358223,17.2093573 14.4144612,17.0307183 14.6526465,16.9116257 C14.897448,16.7859168 15.2150284,16.7263705 15.5987713,16.7263705 L15.8634216,16.7263705 L15.5193762,19.4522684 Z" id="@" fill="#333333" fill-rule="nonzero"></path>
                </g>
            </g>
        </g>
    </g>
</svg>