<?xml version="1.0" encoding="UTF-8"?>
<svg width="24px" height="24px" viewBox="0 0 24 24" version="1.1" xmlns="http://www.w3.org/2000/svg" xmlns:xlink="http://www.w3.org/1999/xlink">
    <title>construccion</title>
    <defs>
        <path d="M19.5001058,8.24999999 L19.5001058,12.75 C19.5047341,13.8316541 19.3505895,14.9081399 19.0425,15.945 L17.6025,15.5175 C17.8718162,14.6198845 18.0057891,13.6871293 18,12.75 L18,9.74999999 L12.75,9.74999999 L12.75,14.25 C12.75,14.6642136 12.4142136,15 12,15 C11.5857864,15 11.25,14.6642136 11.25,14.25 L11.25,9.74999999 L5.99999998,9.74999999 L5.99999998,12.75 C5.85641663,16.5551316 8.33574368,19.9642063 12,21 C13.6859255,20.4827795 15.1794788,19.4748922 16.29,18.105 C16.3010707,18.0768725 16.3135874,18.0493358 16.3275,18.0225 C16.5805356,17.7269937 17.0175167,17.6740251 17.3338263,17.9005184 C17.650136,18.1270118 17.7407492,18.5577639 17.5425,18.8925 L17.5425,18.8925 C16.1879111,20.6455581 14.3008361,21.9115038 12.165,22.5 L12,22.5 L11.835,22.5 C11.7675,22.5 4.49999998,20.76 4.49999998,12.75 L4.49999998,8.24999999 L11.25,8.24999999 L11.25,2.99999997 L8.99999998,2.99999997 C8.58578643,2.99999997 8.24999999,2.66421353 8.24999999,2.24999997 C8.24999999,1.83578641 8.58578643,1.49999997 8.99999998,1.49999997 L15,1.49999997 C15.4142136,1.49999997 15.75,1.83578641 15.75,2.24999997 C15.75,2.66421353 15.4142136,2.99999997 15,2.99999997 L12.75,2.99999997 L12.75,8.24999999 L19.5001058,8.24999999 Z" id="path-1"></path>
    </defs>
    <g id="V-2" stroke="none" stroke-width="1" fill="none" fill-rule="evenodd">
        <g id="Categorias" transform="translate(-53.000000, -758.000000)">
            <g id="Icons-/-House-and-home-items-/-Shovel" transform="translate(53.000000, 758.000000)">
                <mask id="mask-2" fill="white">
                    <use xlink:href="#path-1"></use>
                </mask>
                <g id="icon-shovel" fill-rule="nonzero"></g>
                <g id="Group" mask="url(#mask-2)" fill="#333333">
                    <g id="🎨-Icon-color">
                        <rect id="Rectangle" x="0" y="0" width="24" height="24"></rect>
                    </g>
                </g>
            </g>
        </g>
    </g>
</svg>