<?xml version="1.0" encoding="UTF-8"?>
<svg width="40px" height="40px" viewBox="0 0 40 40" version="1.1" xmlns="http://www.w3.org/2000/svg" xmlns:xlink="http://www.w3.org/1999/xlink">
    <title>construccion_empty</title>
    <defs>
        <path d="M25.5,11.75 L25.5,19.25 C25.0415073,32.9628723 15,35.4999999 13.275,35.4999999 L12.725,35.4999999 C12.6125,35.4999999 0.499999961,32.6 0.499999961,19.25 L0.499999961,11.75 L11.75,11.75 L11.75,2.99999995 L7.99999996,2.99999995 C7.30964404,2.99999995 6.74999998,2.44035589 6.74999998,1.74999995 C6.74999998,1.05964401 7.30964404,0.499999945 7.99999996,0.499999945 L18,0.499999945 C18.690356,0.499999945 19.25,1.05964401 19.25,1.74999995 C19.25,2.44035589 18.690356,2.99999995 18,2.99999995 L14.25,2.99999995 L14.25,11.75 L25.5,11.75 Z" id="path-1"></path>
        <path d="M32.5001764,13.75 L32.5001764,21.25 C32.5078902,23.0527569 32.2509824,24.8468998 31.7375,26.575 L29.3375,25.8625 C29.7863603,24.3664741 30.0096485,22.8118822 30,21.25 L30,16.25 L21.25,16.25 L21.25,23.75 C21.25,24.440356 20.6903559,24.9999999 20,24.9999999 C19.3096441,24.9999999 18.75,24.440356 18.75,23.75 L18.75,16.25 L9.99999996,16.25 L9.99999996,21.25 C9.76069438,27.5918861 13.8929061,33.2736772 20,34.9999999 C22.8098759,34.1379659 25.2991313,32.4581537 27.15,30.175 C27.1684512,30.1281208 27.1893123,30.0822263 27.2125,30.0375 C27.634226,29.5449895 28.3625278,29.4567086 28.8897105,29.8341974 C29.4168933,30.2116863 29.5679153,30.9296065 29.2375,31.4875 L29.2375,31.4875 C26.9798518,34.4092635 23.8347269,36.5191729 20.275,37.4999999 L20,37.4999999 L19.725,37.4999999 C19.6125,37.4999999 7.49999996,34.6 7.49999996,21.25 L7.49999996,13.75 L18.75,13.75 L18.75,4.99999995 L15,4.99999995 C14.309644,4.99999995 13.75,4.44035589 13.75,3.74999995 C13.75,3.05964401 14.309644,2.49999995 15,2.49999995 L25,2.49999995 C25.690356,2.49999995 26.25,3.05964401 26.25,3.74999995 C26.25,4.44035589 25.690356,4.99999995 25,4.99999995 L21.25,4.99999995 L21.25,13.75 L32.5001764,13.75 Z" id="path-3"></path>
    </defs>
    <g id="V-2" stroke="none" stroke-width="1" fill="none" fill-rule="evenodd">
        <g id="Categorias-Empty-State---Mobile" transform="translate(-32.000000, -1044.000000)">
            <g id="Construccion-Copy-2" transform="translate(30.000000, 1044.000000)">
                <g id="icon/construccion" transform="translate(0.000000, 1.000000)">
                    <g id="Icons-/-House-and-home-items-/-Shovel" transform="translate(23.000000, 18.000000) scale(-1, 1) translate(-23.000000, -18.000000) translate(10.000000, 0.000000)">
                        <mask id="mask-2" fill="white">
                            <use xlink:href="#path-1"></use>
                        </mask>
                        <use id="icon-shovel" fill="#FDDBCA" fill-rule="nonzero" xlink:href="#path-1"></use>
                    </g>
                    <g id="Icons-/-House-and-home-items-/-Shovel-Copy">
                        <mask id="mask-4" fill="white">
                            <use xlink:href="#path-3"></use>
                        </mask>
                        <g id="icon-shovel" fill-rule="nonzero"></g>
                        <g id="Group" mask="url(#mask-4)" fill="#FE5000">
                            <g id="🎨-Icon-color">
                                <rect id="Rectangle" x="0" y="0" width="40" height="40"></rect>
                            </g>
                        </g>
                    </g>
                </g>
            </g>
        </g>
    </g>
</svg>