<svg xmlns="http://www.w3.org/2000/svg" xmlns:xlink="http://www.w3.org/1999/xlink" width="40" height="40" viewBox="0 0 40 40">
    <defs>
        <path id="prefix__a" d="M17.75 12.183h.387c.69 0 1.25-.56 1.25-1.25v-.2c0-.69-.56-1.25-1.25-1.25h-5.625V3.496c.006-.053.048-.095.1-.1h2.713c.053.005.094.047.1.1v2.712c-.038.69.49 1.281 1.181 1.32.69.037 1.281-.492 1.319-1.182.006-.046.006-.092 0-.138V3.496c0-1.436-1.164-2.6-2.6-2.6h-2.688c-1.435 0-2.6 1.164-2.6 2.6v5.987h-.2c-.69 0-1.25.56-1.25 1.25v.2c0 .69.56 1.25 1.25 1.25h.313c-4.563 1.368-8.059 5.051-9.187 9.679-1.129 4.627.279 9.506 3.7 12.821.71.678 1.656 1.05 2.637 1.038h13.15c1.021.015 2.01-.36 2.762-1.05 1.198-1.087 2.181-2.389 2.9-3.838.804-1.833 1.229-3.81 1.25-5.812-.019-5.932-3.926-11.15-9.612-12.838zm-3.85 1.925h.588c4.665.25 8.669 3.409 10 7.888h-.15c-2.494-.598-5.089-.64-7.6-.125l-6.25 1.25c-2.2.425-4.466.361-6.638-.188l-.475-.125c.121-.622.297-1.233.525-1.825 1.646-4.106 5.601-6.819 10.025-6.875H13.9zm10 15.65c-.599 1.19-1.413 2.257-2.4 3.15-.29.26-.674.391-1.063.363H7.3c-.342.019-.676-.103-.925-.338-2.051-2-3.236-4.723-3.3-7.587h.087c1.425.37 2.891.556 4.363.55 1.133.004 2.264-.104 3.375-.325l6.338-1.25c2.154-.426 4.374-.387 6.512.112l1.137.275v.35c-.036 1.618-.384 3.214-1.024 4.7h.037z"/>
    </defs>
    <g fill="none" fill-rule="evenodd">
        <path fill="#FDDBCA" d="M24 2c1.105 0 2 .895 2 2v9.378c5.176 1.333 9 6.03 9 11.622 0 3.882-1.843 7.333-4.702 9.526-2.72 0-11.177.162-13.955 0C13.04 32.39 11 29.227 11 25c0-5.592 3.824-10.29 9-11.622V4c0-1.105.895-2 2-2h2z"/>
        <g transform="translate(6 2)">
            <use fill="#F50" fill-rule="nonzero" xlink:href="#prefix__a"/>
        </g>
    </g>
</svg>
