<svg xmlns="http://www.w3.org/2000/svg" xmlns:xlink="http://www.w3.org/1999/xlink" width="24" height="24" viewBox="0 0 24 24">
    <defs>
        <path id="a" d="M11.25 7.31h.232a.75.75 0 0 0 .75-.75v-.12a.75.75 0 0 0-.75-.75H8.108V2.097a.068.068 0 0 1 .06-.06h1.627a.068.068 0 0 1 .06.06v1.628a.751.751 0 1 0 1.5 0V2.097a1.56 1.56 0 0 0-1.56-1.56H8.182a1.56 1.56 0 0 0-1.56 1.56V5.69h-.12a.75.75 0 0 0-.75.75v.12c0 .414.336.75.75.75h.188a8.055 8.055 0 0 0-3.293 13.5c.426.407.994.63 1.583.623h7.89a2.4 2.4 0 0 0 1.658-.63 7.785 7.785 0 0 0 1.74-2.303c.481-1.1.737-2.286.75-3.488A8.063 8.063 0 0 0 11.25 7.31zM8.94 8.465h.353a6.63 6.63 0 0 1 6 4.732h-.09a10.5 10.5 0 0 0-4.56-.074l-3.75.75a9.157 9.157 0 0 1-3.983-.113l-.285-.075a6.48 6.48 0 0 1 .315-1.095 6.57 6.57 0 0 1 6.015-4.125H8.94zm6 9.39a6.48 6.48 0 0 1-1.44 1.89.862.862 0 0 1-.637.217H4.98a.75.75 0 0 1-.555-.202 6.562 6.562 0 0 1-1.98-4.553h.052c.855.223 1.735.334 2.618.33.68.003 1.358-.062 2.025-.195l3.803-.75a9.278 9.278 0 0 1 3.907.068l.683.165v.21a7.56 7.56 0 0 1-.615 2.82h.022z"/>
    </defs>
    <use fill="#000" fill-rule="nonzero" transform="translate(3 1)" xlink:href="#a"/>
</svg>
