<svg xmlns="http://www.w3.org/2000/svg" xmlns:xlink="http://www.w3.org/1999/xlink" width="40" height="40" viewBox="0 0 40 40">
    <defs>
        <path id="prefix__a" d="M17.5 1.746C9.78 1.763 2.982 6.838.772 14.236c-2.21 7.398.688 15.37 7.134 19.62 6.446 4.25 14.915 3.773 20.844-1.173.287-.232.456-.58.462-.95 0-.69-.56-1.25-1.25-1.25-.29.01-.569.12-.787.313-2.39 1.977-5.333 3.165-8.425 3.4v-2.5c0-6.213 5.037-11.25 11.25-11.25h2.5c-.2 2.457-1.003 4.827-2.337 6.9l2.087 1.362c3.464-5.389 3.707-12.24.632-17.861-3.075-5.62-8.975-9.112-15.382-9.101zm-1.25 2.587v2.413c0 6.213-5.037 11.25-11.25 11.25H2.562c.626-7.28 6.407-13.05 13.688-13.663zm0 27.5v2.438C8.93 33.65 3.136 27.82 2.562 20.496H5c7.594 0 13.75-6.156 13.75-13.75V4.333c7.336.59 13.16 6.415 13.75 13.75H30c-7.56 0-13.702 6.103-13.75 13.663v.087z"/>
    </defs>
    <g fill="none" fill-rule="evenodd" transform="translate(0 2)">
        <circle cx="22" cy="17" r="17" fill="#FDDBCA"/>
        <use fill="#F50" fill-rule="nonzero" xlink:href="#prefix__a"/>
    </g>
</svg>
