<?xml version="1.0" encoding="UTF-8"?>
<svg width="24px" height="24px" viewBox="0 0 24 24" version="1.1" xmlns="http://www.w3.org/2000/svg" xmlns:xlink="http://www.w3.org/1999/xlink">
    <title>Educacion</title>
    <defs>
        <path d="M8.99999999,6.74999998 C8.99999999,6.33578642 9.33578643,5.99999998 9.74999999,5.99999998 L14.25,5.99999998 C14.6642136,5.99999998 15,6.33578642 15,6.74999998 C15,7.16421355 14.6642136,7.49999998 14.25,7.49999998 L9.74999999,7.49999998 C9.33578643,7.49999998 8.99999999,7.16421355 8.99999999,6.74999998 Z M19.5,15.75 L7.49999999,15.75 C6.25735929,15.75 5.24999997,16.7573593 5.24999997,18 C5.24999997,19.2426407 6.25735929,20.25 7.49999999,20.25 L19.5,20.25 C19.9142136,20.25 20.25,20.5857865 20.25,21 C20.25,21.4142136 19.9142136,21.75 19.5,21.75 L7.49999999,21.75 C5.42893217,21.75 3.74999997,20.0710678 3.74999997,18 L3.74999997,5.99999998 C3.74999997,3.92893216 5.42893217,2.24999997 7.49999999,2.24999997 L19.5,2.24999997 C19.9142136,2.24999997 20.25,2.58578641 20.25,2.99999997 L20.25,15 C20.25,15.4142136 19.9142136,15.75 19.5,15.75 Z M18.75,3.74999997 L7.49999999,3.74999997 C6.25735929,3.74999997 5.24999998,4.75735929 5.24999998,5.99999998 L5.24999998,15 C5.89703427,14.5092172 6.68790288,14.2455943 7.49999999,14.25 L18.75,14.25 L18.75,3.74999997 Z M7.49999999,17.25 C7.08578642,17.25 6.74999998,17.5857865 6.74999998,18 C6.74999998,18.4142136 7.08578642,18.75 7.49999999,18.75 L18,18.75 C18.4142136,18.75 18.75,18.4142136 18.75,18 C18.75,17.5857865 18.4142136,17.25 18,17.25 L7.49999999,17.25 Z" id="path-1"></path>
    </defs>
    <g id="Filtros-V2" stroke="none" stroke-width="1" fill="none" fill-rule="evenodd">
        <g id="Categorias" transform="translate(-53.000000, -120.000000)">
            <g id="icons-/-house-and-home-items-/-book" transform="translate(53.000000, 120.000000)">
                <mask id="mask-2" fill="white">
                    <use xlink:href="#path-1"></use>
                </mask>
                <g id="icon-book" fill-rule="nonzero"></g>
                <g id="Group" mask="url(#mask-2)" fill="#333333">
                    <g id="🎨-Icon-color">
                        <rect id="Rectangle" x="0" y="0" width="24" height="24"></rect>
                    </g>
                </g>
            </g>
        </g>
    </g>
</svg>