<?xml version="1.0" encoding="UTF-8"?>
<svg width="40px" height="40px" viewBox="0 0 40 40" version="1.1" xmlns="http://www.w3.org/2000/svg" xmlns:xlink="http://www.w3.org/1999/xlink">
    <title>Educacion_empty</title>
    <defs>
        <path d="M27.75,32 C27.75,32.690356 27.190356,33.2499999 26.5,33.2499999 L6.49999998,33.2499999 C3.04822028,33.2499999 0.249999957,30.4517797 0.249999957,27 L0.249999957,6.99999997 C0.249999957,3.54822027 3.04822028,0.749999949 6.49999998,0.749999949 L26.5,0.749999949 C27.190356,0.749999949 27.75,1.30964401 27.75,1.99999995 C27.75,21.5397627 27.75,31.5397628 27.75,32 Z" id="path-1"></path>
        <path d="M15,11.25 C15,10.559644 15.559644,9.99999997 16.25,9.99999997 L23.75,9.99999997 C24.440356,9.99999997 25,10.559644 25,11.25 C25,11.9403559 24.440356,12.5 23.75,12.5 L16.25,12.5 C15.559644,12.5 15,11.9403559 15,11.25 Z M32.5,26.2499999 L12.5,26.2499999 C10.4289322,26.2499999 8.74999996,27.9289322 8.74999996,30 C8.74999996,32.0710678 10.4289322,33.7499999 12.5,33.7499999 L32.5,33.7499999 C33.190356,33.7499999 33.75,34.3096441 33.75,35 C33.75,35.690356 33.190356,36.2499999 32.5,36.2499999 L12.5,36.2499999 C9.04822028,36.2499999 6.24999996,33.4517797 6.24999996,30 L6.24999996,9.99999997 C6.24999996,6.54822027 9.04822028,3.74999995 12.5,3.74999995 L32.5,3.74999995 C33.190356,3.74999995 33.75,4.30964401 33.75,4.99999995 L33.75,25 C33.75,25.690356 33.190356,26.2499999 32.5,26.2499999 Z M31.25,6.24999996 L12.5,6.24999996 C10.4289322,6.24999996 8.74999996,7.92893215 8.74999996,9.99999997 L8.74999996,25 C9.82839045,24.1820287 11.1465048,23.7426572 12.5,23.75 L31.25,23.75 L31.25,6.24999996 Z M12.5,28.75 C11.809644,28.75 11.25,29.3096441 11.25,30 C11.25,30.690356 11.809644,31.25 12.5,31.25 L30,31.25 C30.690356,31.25 31.25,30.690356 31.25,30 C31.25,29.3096441 30.690356,28.75 30,28.75 L12.5,28.75 Z" id="path-3"></path>
    </defs>
    <g id="V-2" stroke="none" stroke-width="1" fill="none" fill-rule="evenodd">
        <g id="Categorias-Empty-State---Mobile" transform="translate(-32.000000, -136.000000)">
            <g id="Educacion-Copy-2" transform="translate(30.000000, 136.000000)">
                <g id="icons-/-medall-copy" transform="translate(0.000000, 2.000000)">
                    <g id="icons-/-house-and-home-items-/-book" transform="translate(10.000000, 0.000000)">
                        <mask id="mask-2" fill="white">
                            <use xlink:href="#path-1"></use>
                        </mask>
                        <use id="icon-book" fill="#FDDBCA" fill-rule="nonzero" xlink:href="#path-1"></use>
                    </g>
                    <g id="icons-/-house-and-home-items-/-book-copy">
                        <mask id="mask-4" fill="white">
                            <use xlink:href="#path-3"></use>
                        </mask>
                        <g id="icon-book" fill-rule="nonzero"></g>
                        <g id="Group" mask="url(#mask-4)" fill="#FE5000">
                            <g id="🎨-Icon-color">
                                <rect id="Rectangle" x="0" y="0" width="40" height="40"></rect>
                            </g>
                        </g>
                    </g>
                </g>
            </g>
        </g>
    </g>
</svg>