<?xml version="1.0" encoding="UTF-8"?>
<svg width="40px" height="40px" viewBox="0 0 40 40" version="1.1" xmlns="http://www.w3.org/2000/svg" xmlns:xlink="http://www.w3.org/1999/xlink">
    <title>Electro_empty</title>
    <defs>
        <path d="M35.4999999,2.74999996 L35.4999999,12.8125 L35.4999999,21.5 C35.4999999,22.8807119 34.3807119,24 32.9999999,24 L19.25,24 L19.25,26.5 L25.4999999,26.5 C26.190356,26.5 26.75,27.0596441 26.75,27.75 C26.75,28.440356 26.190356,29 25.4999999,29 L10.4999999,29 C9.80964404,29 9.24999997,28.440356 9.24999997,27.75 C9.24999997,27.0596441 9.80964404,26.5 10.4999999,26.5 L16.75,26.5 L16.75,24 L2.99999995,24 C1.61928807,24 0.499999945,22.8807119 0.499999945,21.5 L0.499999945,2.74999996 C0.499999945,1.36928809 1.61928807,0.249999957 2.99999995,0.249999957 L32.9999999,0.249999957 C34.3807119,0.249999957 35.4999999,1.36928809 35.4999999,2.74999996 Z" id="path-1"></path>
        <path d="M37.4999999,8.74999996 L37.4999999,18.8125 L37.4999999,18.8125 C37.4999999,19.5028559 36.940356,20.0625 36.2500001,20.0625 C35.5596441,20.0625 34.9999999,19.5028559 34.9999999,18.8125 L34.9999999,18.8125 L34.9999999,8.74999996 L4.99999995,8.74999996 L4.99999995,27.5 L34.9999999,27.5 L34.9999999,25 L37.4999999,25 L37.4999999,27.5 C37.4999999,28.8807119 36.3807119,30 34.9999999,30 L21.25,30 L21.25,32.5 L27.4999999,32.5 C28.190356,32.5 28.75,33.0596441 28.75,33.75 C28.75,34.440356 28.190356,35 27.4999999,35 L12.4999999,35 C11.809644,35 11.25,34.440356 11.25,33.75 C11.25,33.0596441 11.809644,32.5 12.4999999,32.5 L18.75,32.5 L18.75,30 L4.99999995,30 C3.61928807,30 2.49999995,28.8807119 2.49999995,27.5 L2.49999995,8.74999996 C2.49999995,7.36928809 3.61928807,6.24999996 4.99999995,6.24999996 L34.9999999,6.24999996 C36.3807119,6.24999996 37.4999999,7.36928809 37.4999999,8.74999996 Z" id="path-3"></path>
    </defs>
    <g id="V-2" stroke="none" stroke-width="1" fill="none" fill-rule="evenodd">
        <g id="Categorias-Empty-State---Mobile" transform="translate(-32.000000, -190.000000)">
            <g id="Electro-Copy-2" transform="translate(31.000000, 190.000000)">
                <g id="icons-/-electronics-and-devices-/-tv" transform="translate(4.000000, 5.000000)">
                    <mask id="mask-2" fill="white">
                        <use xlink:href="#path-1"></use>
                    </mask>
                    <use id="icon-tv" fill="#FDDBCA" fill-rule="nonzero" xlink:href="#path-1"></use>
                </g>
                <g id="icons-/-electronics-and-devices-/-tv-copy" transform="translate(0.000000, 1.000000)">
                    <mask id="mask-4" fill="white">
                        <use xlink:href="#path-3"></use>
                    </mask>
                    <g id="icon-tv" fill-rule="nonzero"></g>
                    <g id="Group" mask="url(#mask-4)" fill="#FE5000">
                        <g id="🎨-Icon-color">
                            <rect id="Rectangle" x="0" y="0" width="40" height="40"></rect>
                        </g>
                    </g>
                </g>
            </g>
        </g>
    </g>
</svg>