<?xml version="1.0" encoding="UTF-8"?>
<svg width="24px" height="24px" viewBox="0 0 24 24" version="1.1" xmlns="http://www.w3.org/2000/svg" xmlns:xlink="http://www.w3.org/1999/xlink">
    <title>Electro</title>
    <defs>
        <path d="M22.5,5.24999997 L22.5,11.2875 L22.5,11.2875 C22.5,11.7017136 22.1642136,12.0375 21.75,12.0375 C21.3357865,12.0375 21,11.7017136 21,11.2875 L21,11.2875 L21,5.24999997 L2.99999997,5.24999997 L2.99999997,16.5 L21,16.5 L21,15 L22.5,15 L22.5,16.5 C22.5,17.3284271 21.8284272,18 21,18 L12.75,18 L12.75,19.5 L16.5,19.5 C16.9142136,19.5 17.25,19.8357865 17.25,20.25 C17.25,20.6642136 16.9142136,21 16.5,21 L7.49999997,21 C7.08578642,21 6.74999998,20.6642136 6.74999998,20.25 C6.74999998,19.8357865 7.08578642,19.5 7.49999997,19.5 L11.25,19.5 L11.25,18 L2.99999997,18 C2.17157284,18 1.49999997,17.3284271 1.49999997,16.5 L1.49999997,5.24999997 C1.49999997,4.42157285 2.17157284,3.74999997 2.99999997,3.74999997 L21,3.74999997 C21.8284272,3.74999997 22.5,4.42157285 22.5,5.24999997 Z" id="path-1"></path>
    </defs>
    <g id="V-2" stroke="none" stroke-width="1" fill="none" fill-rule="evenodd">
        <g id="Categorias" transform="translate(-53.000000, -167.000000)">
            <g id="icons-/-electronics-and-devices-/-tv" transform="translate(53.000000, 167.000000)">
                <mask id="mask-2" fill="white">
                    <use xlink:href="#path-1"></use>
                </mask>
                <g id="icon-tv" fill-rule="nonzero"></g>
                <g id="Group" mask="url(#mask-2)" fill="#333333">
                    <g id="🎨-Icon-color">
                        <rect id="Rectangle" x="0" y="0" width="24" height="24"></rect>
                    </g>
                </g>
            </g>
        </g>
    </g>
</svg>