<?xml version="1.0" encoding="UTF-8"?>
<svg width="40px" height="40px" viewBox="0 0 40 40" version="1.1" xmlns="http://www.w3.org/2000/svg" xmlns:xlink="http://www.w3.org/1999/xlink">
    <title>Gastronomia_empty</title>
    <defs>
        <path d="M14.4875,14.4375 C15.9625,11.9375 15.1625,8.04999998 12.3875,5.27499997 C9.24999997,2.11249996 4.66249996,1.51249996 2.22499995,3.94999997 C0.962051155,5.28399234 0.430058327,7.15063384 0.799999946,8.94999998 C1.14762366,10.9183614 2.11042724,12.7258063 3.54999995,14.1125 C4.94118391,15.5484487 6.74598647,16.5142147 8.71249997,16.875 C9.08526058,16.9280343 9.46102202,16.9572602 9.83749997,16.9625 C10.8384005,16.9869398 11.8273429,16.7407838 12.7,16.25 L25.2,28.75 C25.4358986,28.9839832 25.7552463,29.114421 26.0875,29.112521 C26.4197538,29.114421 26.7391015,28.9839832 26.975,28.75 C27.4596545,28.2624532 27.4596545,27.4750469 26.975,26.9875 L14.4875,14.4375 Z M15.0375,21.25 C15.5221545,21.7375468 15.5221545,22.5249532 15.0375,23.0125 L9.24999997,28.75 C9.01410143,28.9839832 8.6947537,29.114421 8.36249997,29.112521 C8.04762503,29.1015319 7.74850579,28.9720624 7.52499997,28.75 C7.04034547,28.2624532 7.04034547,27.4750469 7.52499997,26.9875 L13.275,21.2375 C13.7659771,20.7562861 14.5533976,20.7618706 15.0375,21.25 Z M34.9250001,10.2 L28.7375,16.3875 C27.2734123,17.8497669 24.9015878,17.8497669 23.4375,16.3875 L22.55,15.5 L20.3375,17.7125 L18.575,15.95 L20.7875,13.7375 L19.9,12.85 C18.4377331,11.3859123 18.4377331,9.01408772 19.9,7.54999998 L26.0875,1.24999996 C26.3222083,1.01335914 26.6417031,0.88025205 26.975,0.88025205 C27.3082969,0.88025205 27.6277918,1.01335914 27.8625,1.24999996 C28.3471545,1.73754678 28.3471545,2.52495314 27.8625,3.01249996 L21.675,9.26249998 C21.4383592,9.49720823 21.3052521,9.81670306 21.3052521,10.15 C21.3052521,10.4832969 21.4383592,10.8027917 21.675,11.0375 L22.55,11.925 L29.625,4.83749997 C29.9304874,4.48077977 30.410148,4.32539754 30.8667738,4.4352373 C31.3233995,4.54507706 31.6799229,4.90160053 31.7897627,5.35822625 C31.8996025,5.81485198 31.7442202,6.29451262 31.3875,6.59999997 L24.325,13.675 L25.2,14.5625 C25.4347083,14.7991408 25.7542031,14.9322479 26.0875,14.9322479 C26.4207969,14.9322479 26.7402918,14.7991408 26.975,14.5625 L33.1625,8.31249998 C33.4679874,7.95577978 33.947648,7.80039755 34.4042738,7.91023731 C34.8608995,8.02007707 35.217423,8.37660054 35.3272627,8.83322627 C35.4371025,9.28985199 35.2817203,9.76951263 34.9250001,10.075 L34.9250001,10.2 Z" id="path-1"></path>
        <path d="M16.4875,19.4375 C17.9625,16.9375 17.1625,13.05 14.3875,10.275 C11.25,7.11249996 6.66249996,6.51249996 4.22499995,8.94999997 C2.96205116,10.2839923 2.43005833,12.1506338 2.79999995,13.95 C3.14762366,15.9183614 4.11042724,17.7258063 5.54999995,19.1125 C6.94118391,20.5484487 8.74598647,21.5142147 10.7125,21.875 C11.0852606,21.9280343 11.461022,21.9572602 11.8375,21.9625 C12.8384005,21.9869398 13.8273429,21.7407838 14.7,21.25 L27.2,33.75 C27.4358986,33.9839832 27.7552463,34.114421 28.0875,34.112521 C28.4197538,34.114421 28.7391015,33.9839832 28.975,33.75 C29.4596545,33.2624532 29.4596545,32.4750469 28.975,31.9875 L16.4875,19.4375 Z M11.1,19.4375 C9.66884386,19.1562965 8.35929112,18.4404077 7.34999996,17.3875 C6.29709228,16.3782088 5.58120345,15.0686561 5.29999995,13.6375 C5.06927663,12.630086 5.33930209,11.5732622 6.02499996,10.8 C6.58287506,10.2681878 7.32950537,9.98033035 8.09999996,9.99999997 C9.81438798,10.082027 11.4328407,10.8152486 12.625,12.05 C14.775,14.2 15.3875,17.2375 13.95,18.675 C13.1718794,19.3609455 12.1113122,19.6307389 11.1,19.4 L11.1,19.4375 Z M17.0375,26.25 C17.5221545,26.7375468 17.5221545,27.5249532 17.0375,28.0125 L11.25,33.75 C11.0141014,33.9839832 10.6947537,34.114421 10.3625,34.112521 C10.047625,34.1015319 9.74850579,33.9720624 9.52499997,33.75 C9.04034547,33.2624532 9.04034547,32.4750469 9.52499997,31.9875 L15.275,26.2375 C15.7659771,25.7562861 16.5533976,25.7618706 17.0375,26.25 Z M36.9250001,15.2 L30.7375,21.3875 C29.2734123,22.8497669 26.9015878,22.8497669 25.4375,21.3875 L24.55,20.5 L22.3375,22.7125 L20.575,20.95 L22.7875,18.7375 L21.9,17.85 C20.4377331,16.3859123 20.4377331,14.0140877 21.9,12.55 L28.0875,6.24999996 C28.3222083,6.01335914 28.6417031,5.88025205 28.975,5.88025205 C29.3082969,5.88025205 29.6277918,6.01335914 29.8625,6.24999996 C30.3471545,6.73754678 30.3471545,7.52495314 29.8625,8.01249996 L23.675,14.2625 C23.4383592,14.4972082 23.3052521,14.8167031 23.3052521,15.15 C23.3052521,15.4832969 23.4383592,15.8027917 23.675,16.0375 L24.55,16.925 L31.625,9.83749997 C31.9304874,9.48077977 32.410148,9.32539754 32.8667738,9.4352373 C33.3233995,9.54507706 33.6799229,9.90160053 33.7897627,10.3582263 C33.8996025,10.814852 33.7442202,11.2945126 33.3875,11.6 L26.325,18.675 L27.2,19.5625 C27.4347083,19.7991408 27.7542031,19.9322479 28.0875,19.9322479 C28.4207969,19.9322479 28.7402918,19.7991408 28.975,19.5625 L35.1625,13.3125 C35.4679874,12.9557798 35.947648,12.8003975 36.4042738,12.9102373 C36.8608995,13.0200771 37.217423,13.3766005 37.3272627,13.8332263 C37.4371025,14.289852 37.2817203,14.7695126 36.9250001,15.075 L36.9250001,15.2 Z" id="path-3"></path>
    </defs>
    <g id="V-2" stroke="none" stroke-width="1" fill="none" fill-rule="evenodd">
        <g id="Categorias-Empty-State---Mobile" transform="translate(-32.000000, -296.000000)">
            <g id="gastronomia" transform="translate(32.000000, 296.000000)">
                <g id="icons-/-food-and-drink-/-restaurant" transform="translate(4.000000, 5.000000)">
                    <mask id="mask-2" fill="white">
                        <use xlink:href="#path-1"></use>
                    </mask>
                    <use id="icon-restaurant" fill="#FDDBCA" fill-rule="nonzero" xlink:href="#path-1"></use>
                </g>
                <g id="icons-/-food-and-drink-/-restaurant-copy">
                    <mask id="mask-4" fill="white">
                        <use xlink:href="#path-3"></use>
                    </mask>
                    <g id="icon-restaurant" fill-rule="nonzero"></g>
                    <g id="Group" mask="url(#mask-4)" fill="#FE5000">
                        <g id="🎨-Icon-color">
                            <rect id="Rectangle" x="0" y="0" width="40" height="40"></rect>
                        </g>
                    </g>
                </g>
            </g>
        </g>
    </g>
</svg>