<svg xmlns="http://www.w3.org/2000/svg" xmlns:xlink="http://www.w3.org/1999/xlink" width="40" height="40" viewBox="0 0 40 40">
    <defs>
        <path id="prefix__a" d="M31.47 14.333c-1.16-.006-2.277.45-3.1 1.27-.824.818-1.287 1.931-1.287 3.093v3.137h-17.5v-15c0-1.38 1.12-2.5 2.5-2.5h12.5c1.381 0 2.5 1.12 2.5 2.5v3.75c0 .69.56 1.25 1.25 1.25s1.25-.56 1.25-1.25v-3.75c0-2.761-2.238-5-5-5h-12.5c-2.761 0-5 2.239-5 5v7.925c-1.355-.642-2.944-.546-4.212.255-1.268.801-2.037 2.196-2.038 3.695v8.125c0 2.5 2 6.25 5 6.25h1.25v2.5c0 .69.56 1.25 1.25 1.25s1.25-.56 1.25-1.25v-2.5h17.5v2.5c0 .69.56 1.25 1.25 1.25s1.25-.56 1.25-1.25v-2.5h1.25c3 0 5-3.75 5-6.25v-8.137c-.007-2.407-1.956-4.356-4.362-4.363zm1.863 12.5c0 1.55-1.25 3.75-2.5 3.75h-25c-1.25 0-2.5-2.2-2.5-3.75v-8.112c.11-.952.917-1.67 1.875-1.67.959 0 1.765.718 1.875 1.67v5.612h22.5v-5.637c0-1.036.84-1.875 1.875-1.875 1.036 0 1.875.84 1.875 1.875v8.137z"/>
    </defs>
    <g fill="none" fill-rule="evenodd" transform="translate(1 2)">
        <path fill="#FDDBCA" d="M12.333 33.333c0 .553-.447 1-1 1-.552 0-1-.447-1-1v-3h-1c-2.761 0-5-2.238-5-5v-9c0-1.657 1.343-3 3-3s3 1.343 3 3v-11c0-2.761 2.239-5 5-5h12c2.762 0 5 2.239 5 5v11c0-1.657 1.343-3 3-3s3 1.343 3 3v9c0 2.762-2.238 5-5 5h-1v3c0 .553-.447 1-1 1-.552 0-1-.447-1-1v-3h-18v3z"/>
        <use fill="#F50" fill-rule="nonzero" xlink:href="#prefix__a"/>
    </g>
</svg>
