<svg xmlns="http://www.w3.org/2000/svg" xmlns:xlink="http://www.w3.org/1999/xlink" width="24" height="24" viewBox="0 0 24 24">
    <defs>
        <path id="a" d="M18.883 8a2.618 2.618 0 0 0-2.633 2.617V12.5H5.75v-9A1.5 1.5 0 0 1 7.25 2h7.5a1.5 1.5 0 0 1 1.5 1.5v2.25a.75.75 0 0 0 1.5 0V3.5a3 3 0 0 0-3-3h-7.5a3 3 0 0 0-3 3v4.755a2.625 2.625 0 0 0-3.75 2.37V15.5c0 1.5 1.2 3.75 3 3.75h.75v1.5a.75.75 0 1 0 1.5 0v-1.5h10.5v1.5a.75.75 0 0 0 1.5 0v-1.5h.75c1.8 0 3-2.25 3-3.75v-4.883A2.625 2.625 0 0 0 18.883 8zM20 15.5c0 .93-.75 2.25-1.5 2.25h-15c-.75 0-1.5-1.32-1.5-2.25v-4.867a1.132 1.132 0 0 1 2.25 0V14h13.5v-3.383a1.125 1.125 0 0 1 2.25 0V15.5z"/>
    </defs>
    <use fill="#000" fill-rule="nonzero" transform="translate(1 1)" xlink:href="#a"/>
</svg>
