<?xml version="1.0" encoding="UTF-8"?>
<svg width="40px" height="40px" viewBox="0 0 40 40" version="1.1" xmlns="http://www.w3.org/2000/svg" xmlns:xlink="http://www.w3.org/1999/xlink">
    <title>Jugueteria_empty</title>
    <defs>
        <path d="M27,0.749999949 C24.7399836,0.758956863 22.6608589,1.98731334 21.5625,3.96249996 C18.5946407,3.01487659 15.4053593,3.01487659 12.4375,3.96249996 C11.3391411,1.98731334 9.26001636,0.758956863 6.99999997,0.749999949 C4.29090253,0.751164181 1.89099993,2.49751373 1.05655394,5.07489811 C0.22210795,7.65228248 1.14313058,10.4738045 3.33749996,12.0625 C0.454875742,18.42858 2.350301,25.9418699 7.90779076,30.1787089 C13.4652805,34.4155479 21.2122695,34.2533028 26.5875,29.7875 C26.9313682,29.5016876 35.8333333,22.1968143 30.65,12.1 C32.2900197,10.9201481 33.258566,9.02030729 33.2500001,6.99999997 C33.2500001,3.54822027 30.4517797,0.749999949 27,0.749999949 Z" id="path-1"></path>
        <path d="M20,23.75 C21.3807119,23.75 22.5,24.8692881 22.5,26.25 C22.5,27.6307119 21.3807119,28.75 20,28.75 C18.6192881,28.75 17.5,27.6307119 17.5,26.25 C17.5,24.8692881 18.6192881,23.75 20,23.75 Z M13.75,20 C13.75,20.6903559 14.309644,21.25 15,21.25 C15.6903559,21.25 16.25,20.6903559 16.25,20 C16.25,19.3096441 15.6903559,18.75 15,18.75 C14.309644,18.75 13.75,19.3096441 13.75,20 Z M25,18.75 C24.3096441,18.75 23.75,19.3096441 23.75,20 C23.75,20.6903559 24.3096441,21.25 25,21.25 C25.690356,21.25 26.25,20.6903559 26.25,20 C26.25,19.3096441 25.690356,18.75 25,18.75 Z M36.2500564,9.99999997 C36.2500564,6.54822027 33.4517797,3.74999995 30,3.74999995 C27.7399836,3.75895686 25.6608589,4.98731334 24.5625,6.96249996 C21.5946407,6.01487659 18.4053593,6.01487659 15.4375,6.96249996 C14.3391411,4.98731334 12.2600164,3.75895686 9.99999997,3.74999995 C7.29090253,3.75116418 4.89099993,5.49751373 4.05655394,8.07489811 C3.22210795,10.6522825 4.14313058,13.4738045 6.33749996,15.0625 C3.45487574,21.42858 5.350301,28.9418699 10.9077908,33.1787089 C16.4652805,37.4155479 24.2122695,37.2533028 29.5875,32.7875 L29.5875,32.7875 C29.9313682,32.5016876 30.0966363,32.0541345 30.0210495,31.6134297 C29.9454627,31.1727249 29.6405045,30.805822 29.2210495,30.6509297 C28.8015946,30.4960374 28.3313682,30.5766875 27.9875,30.8625 L27.9875,30.8625 C23.3597847,34.7054711 16.6511889,34.7073525 12.0213188,30.8669778 C7.39144876,27.026603 6.15347818,20.4332207 9.07499997,15.175 C9.24676458,14.8703354 9.28303367,14.5076444 9.17499997,14.175 C9.06254533,13.8388262 8.81264496,13.5662076 8.48749996,13.425 C6.8889553,12.7383859 5.97258152,11.0424771 6.27429102,9.32907254 C6.57600051,7.61566796 8.01655084,6.33478454 9.75348141,6.2355067 C11.490412,6.13622886 13.0675269,7.24463142 13.5625,8.91249997 C13.6662333,9.24854811 13.9067331,9.52534985 14.225,9.67499997 C14.5473937,9.81780549 14.9151062,9.81780549 15.2375,9.67499997 C18.2880703,8.41791726 21.7119297,8.41791726 24.7625,9.67499997 C25.0848938,9.81780549 25.4526063,9.81780549 25.775,9.67499997 C26.0932669,9.52534985 26.3337667,9.24854811 26.4375,8.91249997 C26.913778,7.34059248 28.3575627,6.26155338 30,6.24999995 C31.7675097,6.25682734 33.2902893,7.49695309 33.6548731,9.22646619 C34.0194568,10.9559793 33.1268507,12.7052717 31.5125,13.425 C31.187355,13.5662076 30.9374547,13.8388262 30.825,14.175 C30.7169663,14.5076444 30.7532354,14.8703354 30.925,15.175 C33.0164309,18.9461048 33.0164309,23.5288952 30.925,27.3 L33.1125,28.55 C35.406175,24.4032684 35.6054588,19.416539 33.65,15.1 C35.2900197,13.9201481 36.258566,12.0203073 36.2500564,9.99999997 L36.2500564,9.99999997 Z" id="path-3"></path>
    </defs>
    <g id="V-2" stroke="none" stroke-width="1" fill="none" fill-rule="evenodd">
        <g id="Categorias-Empty-State---Mobile" transform="translate(-32.000000, -934.000000)">
            <g id="Jugueteria-Copy-2" transform="translate(30.000000, 934.000000)">
                <g id="icons-/-basket-ball-copy" transform="translate(0.000000, 2.000000)">
                    <g id="icons-/-travel-and-location-/-baggage-copy-2" transform="translate(6.000000, 1.000000)">
                        <mask id="mask-2" fill="white">
                            <use xlink:href="#path-1"></use>
                        </mask>
                        <use id="icon-toys" fill="#FDDBCA" fill-rule="nonzero" xlink:href="#path-1"></use>
                    </g>
                    <g id="icons-/-travel-and-location-/-baggage-copy-3">
                        <mask id="mask-4" fill="white">
                            <use xlink:href="#path-3"></use>
                        </mask>
                        <g id="icon-toys" fill-rule="nonzero"></g>
                        <g id="Group" mask="url(#mask-4)" fill="#FE5000">
                            <g id="🎨-Icon-color">
                                <rect id="Rectangle" x="0" y="0" width="40" height="40"></rect>
                            </g>
                        </g>
                    </g>
                </g>
            </g>
        </g>
    </g>
</svg>