<svg xmlns="http://www.w3.org/2000/svg" xmlns:xlink="http://www.w3.org/1999/xlink" width="24" height="24" viewBox="0 0 24 24">
    <defs>
        <path id="a" d="M20 2h-6a2.25 2.25 0 0 0-2.25 2.25V14a3.733 3.733 0 0 1 2.25-.75h6V11h1.5v3.75H14a2.25 2.25 0 0 0-2.245 2.096L11.75 17h-1.5A2.25 2.25 0 0 0 8 14.75H.5V.5H8c1.227 0 2.317.59 3 1.5a3.739 3.739 0 0 1 3-1.5h7.5v6.75a.75.75 0 1 1-1.5 0V2zM8 2H2v11.25h6c.845 0 1.624.28 2.251.75l-.001-9.75-.005-.154a2.25 2.25 0 0 0-2.084-2.09L8 2z"/>
    </defs>
    <use fill="#000" fill-rule="evenodd" transform="translate(1 4)" xlink:href="#a"/>
</svg>
