<svg xmlns="http://www.w3.org/2000/svg" width="40" height="40" viewBox="0 0 40 40">
    <g fill="none" fill-rule="evenodd">
        <path fill="#FDDBCA" d="M16.333.833c2.045 0 3.86.982 5.001 2.5 1.139-1.518 2.954-2.5 5-2.5h12.5V2l.02.001v22h-.02v.583h-12.5c-2.005 0-3.642 1.573-3.745 3.551l-.006.2h-2.5c0-2.072-1.679-3.75-3.75-3.75h-12.5V.833h12.5z" transform="translate(1 4)"/>
        <path fill="#F50" d="M33.333 6.333h-10c-2.07 0-3.75 1.68-3.75 3.75v16.25c1.045-.785 2.343-1.25 3.75-1.25h10v-3.75h2.5v6.25h-12.5c-2.004 0-3.64 1.573-3.744 3.551l-.006.2h-2.5c0-2.072-1.679-3.75-3.75-3.75H.833V3.833h12.5c2.045 0 3.86.981 5.001 2.5 1.139-1.519 2.954-2.5 5-2.5h12.5v11.25c0 .69-.56 1.25-1.25 1.25-.691 0-1.25-.56-1.25-1.25v-8.75zm-20 0h-10v18.75h10c1.408 0 2.706.465 3.751 1.25v-16.25l-.006-.199c-.103-1.978-1.74-3.55-3.745-3.55z" transform="translate(1 4)"/>
    </g>
</svg>
