<svg xmlns="http://www.w3.org/2000/svg" width="24" height="24" viewBox="0 0 24 24">
    <path fill="#333" fill-rule="nonzero" d="M18 2.25a3 3 0 0 1 2.995 2.824L21 5.25v8.25h-1.5V5.25a1.5 1.5 0 0 0-2.993-.144l-.007.144v1.5H9v.75a3 3 0 0 1-4.5 2.599v7.151a3 3 0 0 0 4.978 2.256l.143-.135 1.318-1.318-.47-.469-.887-.89A2.085 2.085 0 0 1 12 13.36a2.085 2.085 0 0 1 2.535 3.208l-.116.126-.89.89-.468.47 1.318 1.317A3 3 0 0 0 19.5 17.25a.75.75 0 1 1 1.5 0 4.5 4.5 0 0 1-6.564 4A2.995 2.995 0 0 1 12 22.5a2.996 2.996 0 0 1-2.437-1.25 4.5 4.5 0 0 1-6.558-3.788L3 17.25v-12a3 3 0 0 1 6 0h6a3 3 0 0 1 3-3zm-6 16.864l-1.236 1.236a1.498 1.498 0 0 0 2.472 0L12 19.114zm-.53-4.308a.585.585 0 1 0-.827.828l.888.89.469.469.469-.469.889-.89a.585.585 0 1 0-.828-.828l-.53.53zM7.875 11.25a1.125 1.125 0 1 1 0 2.25 1.125 1.125 0 0 1 0-2.25zm8.25 0a1.125 1.125 0 1 1 0 2.25 1.125 1.125 0 0 1 0-2.25zM6 3.75a1.5 1.5 0 0 0-1.5 1.5V7.5a1.5 1.5 0 0 0 3 0V5.25A1.5 1.5 0 0 0 6 3.75z"/>
</svg>
