<svg xmlns="http://www.w3.org/2000/svg" width="40" height="40" viewBox="0 0 40 40">
    <g fill="none" fill-rule="evenodd">
        <path fill="#FDDBCA" d="M27.5 0C29.985 0 32 2.015 32 4.5v19l-.003.026.003.14c0 3.786-3.005 6.87-6.76 6.997l-.24.004c-1.365 0-2.639-.391-3.716-1.067-.8 1.244-2.196 2.067-3.784 2.067-1.588 0-2.985-.823-3.785-2.066-1.076.675-2.35 1.066-3.715 1.066-3.866 0-7-3.134-7-7l.001-.141L3 23.5v-19l.005-.212C3.115 1.901 5.085 0 7.5 0c2.316 0 4.224 1.75 4.473 4h11.054c.249-2.25 2.157-4 4.473-4z" transform="translate(4 3)"/>
        <path fill="#F50" fill-rule="nonzero" d="M25 .417c2.761 0 5 2.238 5 5v13.75h-2.5V5.417c0-1.381-1.12-2.5-2.5-2.5s-2.5 1.119-2.5 2.5v2.5H10v1.25c0 2.761-2.239 5-5 5-.91 0-1.765-.244-2.5-.67v11.92c0 2.761 2.238 5 5 5 1.346 0 2.603-.532 3.536-1.465l2.196-2.196-.782-.782-1.48-1.483c-1.358-1.357-1.358-3.558-.001-4.915 1.09-1.091 2.726-1.305 4.031-.642 1.305-.663 2.94-.45 4.03.642 1.358 1.357 1.358 3.558.002 4.914l-1.483 1.484-.781.782 2.197 2.196c.932.933 2.19 1.465 3.535 1.465 2.762 0 5-2.239 5-5 0-.69.56-1.25 1.25-1.25s1.25.56 1.25 1.25c0 4.142-3.358 7.5-7.5 7.5-1.22 0-2.393-.293-3.44-.833-.906 1.26-2.387 2.083-4.06 2.083-1.673 0-3.154-.822-4.061-2.083-1.046.54-2.22.833-3.439.833-4.142 0-7.5-3.358-7.5-7.5v-20c0-2.762 2.239-5 5-5s5 2.238 5 5h10c0-2.762 2.239-5 5-5zM15 28.523l-2.06 2.06c.45.654 1.205 1.084 2.06 1.084s1.61-.43 2.06-1.084L15 28.523zm-.884-7.18c-.381-.38-.998-.38-1.38.001-.38.38-.38.998.002 1.38l1.48 1.482.782.782.781-.78 1.482-1.486c.381-.38.381-.997 0-1.379-.38-.38-.998-.38-1.38 0l-.883.885zm-5.991-5.926c1.036 0 1.875.839 1.875 1.875 0 1.035-.84 1.875-1.875 1.875-1.036 0-1.875-.84-1.875-1.875 0-1.036.84-1.875 1.875-1.875zm13.75 0c1.036 0 1.875.839 1.875 1.875 0 1.035-.84 1.875-1.875 1.875-1.036 0-1.875-.84-1.875-1.875 0-1.036.84-1.875 1.875-1.875zM5 2.917c-1.38 0-2.5 1.119-2.5 2.5v3.75c0 1.38 1.12 2.5 2.5 2.5s2.5-1.12 2.5-2.5v-3.75c0-1.381-1.12-2.5-2.5-2.5z" transform="translate(4 3)"/>
    </g>
</svg>
