<svg xmlns="http://www.w3.org/2000/svg" xmlns:xlink="http://www.w3.org/1999/xlink" width="24" height="24" viewBox="0 0 24 24">
    <defs>
        <path id="a" d="M21.5 6.82L20.405 2.5a3 3 0 0 0-2.91-2.25H14a.75.75 0 0 0-.75.75v.067a2.25 2.25 0 1 1-4.5 0 .75.75 0 0 0-.203-.555A.75.75 0 0 0 8 .25H4.505a3 3 0 0 0-2.91 2.25L.5 6.82a.75.75 0 0 0 .45.877l3.345 1.328L5 16.75a3 3 0 0 0 3 3h6a3 3 0 0 0 3-2.933l.067-.75a.217.217 0 0 0 0-.067.75.75 0 0 0-.75-.75.75.75 0 0 0-.75.682l-.067.818a1.5 1.5 0 0 1-1.5 1.5H8a1.5 1.5 0 0 1-1.5-1.567l-.75-8.25a.75.75 0 0 0-.473-.63L2.135 6.55l.915-3.66a1.5 1.5 0 0 1 1.455-1.14h2.812a3.75 3.75 0 0 0 7.365 0h2.813a1.5 1.5 0 0 1 1.455 1.132l.915 3.668-3.142 1.252a.75.75 0 0 0-.473.63l-.405 4.5 1.5.136.367-4.043 3.323-1.328a.75.75 0 0 0 .465-.877z"/>
    </defs>
    <use fill="#000" fill-rule="nonzero" transform="translate(1 2)" xlink:href="#a"/>
</svg>
