<svg xmlns="http://www.w3.org/2000/svg" xmlns:xlink="http://www.w3.org/1999/xlink" width="40" height="40" viewBox="0 0 40 40">
    <defs>
        <path id="prefix__a" d="M35.833 12.367l-1.825-7.2c-.57-2.211-2.566-3.754-4.85-3.75h-5.825c-.69 0-1.25.56-1.25 1.25v.112c0 2.071-1.679 3.75-3.75 3.75-2.07 0-3.75-1.679-3.75-3.75.02-.341-.103-.676-.337-.925-.23-.268-.56-.427-.913-.437H7.508c-2.283-.004-4.279 1.539-4.85 3.75l-1.825 7.2c-.15.606.17 1.23.75 1.462l5.575 2.213 1.175 12.875c0 2.761 2.239 5 5 5h10c2.718 0 4.94-2.17 5-4.888l.113-1.25c.006-.037.006-.075 0-.112 0-.69-.56-1.25-1.25-1.25-.649-.003-1.192.491-1.25 1.137l-.113 1.363c0 1.38-1.119 2.5-2.5 2.5h-10c-.683 0-1.336-.278-1.808-.772-.473-.493-.722-1.159-.692-1.84l-1.25-13.75c-.043-.472-.347-.878-.787-1.05l-5.238-2.088 1.525-6.1c.276-1.116 1.276-1.9 2.425-1.9h4.688c.566 2.942 3.14 5.07 6.137 5.07 2.997 0 5.572-2.128 6.138-5.07h4.687c1.146 0 2.145.777 2.425 1.887l1.525 6.113-5.237 2.087c-.44.173-.745.58-.788 1.05l-.675 7.5 2.5.225.613-6.737 5.537-2.213c.59-.222.923-.85.775-1.462z"/>
    </defs>
    <g fill="none" fill-rule="evenodd" transform="translate(1 3)">
        <path fill="#FDDBCA" d="M6.07 10.886l5.356 2.508c.325.152.543.466.573.824l1.08 13.147c.127 1.556 1.428 2.755 2.99 2.755H26.67c1.534 0 2.821-1.158 2.984-2.683l1.4-13.141c.036-.341.244-.64.552-.792l5.353-2.634c.427-.21.647-.692.526-1.152l-1.649-6.256C35.374 1.705 33.786.48 31.968.48h-5.573c-.652 3.683-2.339 5.525-5.062 5.525-2.722 0-4.335-1.842-4.837-5.525h-5.003c-1.72 0-3.249 1.1-3.794 2.732l-2.154 6.45c-.16.482.065 1.008.525 1.223z"/>
        <use fill="#F50" fill-rule="nonzero" xlink:href="#prefix__a"/>
    </g>
</svg>
