<?xml version="1.0" encoding="UTF-8"?>
<svg width="24px" height="24px" viewBox="0 0 24 24" version="1.1" xmlns="http://www.w3.org/2000/svg" xmlns:xlink="http://www.w3.org/1999/xlink">
    <title>otros-rubros</title>
    <defs>
        <path d="M21.75,8.99999999 L21.75,8.99999999 C21.7542109,8.95760429 21.7542109,8.91489569 21.75,8.87249999 C21.75,8.82749999 21.75,8.78249999 21.75,8.73749999 L19.2675,2.24999997 L4.73249998,2.24999997 L2.29499997,8.73749999 C2.29499997,8.78249999 2.29499997,8.82749999 2.29499997,8.87249999 C2.27619185,8.91355847 2.26113066,8.95623183 2.24999997,8.99999999 L2.24999997,8.99999999 C2.24999997,8.99999999 2.24999997,8.99999999 2.24999997,8.99999999 C2.2747957,10.0464987 2.8432816,11.0043975 3.74999997,11.5275 L3.74999997,18.75 C3.74999997,20.4068543 5.09314573,21.75 6.74999997,21.75 L17.25,21.75 C18.9068543,21.75 20.25,20.4068543 20.25,18.75 L20.25,11.58 C21.1567184,11.0568975 21.7252043,10.0989987 21.75,9.05249999 C21.75,9.05249999 21.75,8.99999999 21.75,8.99999999 Z M5.76749998,3.74999997 L18.2325,3.74999997 L20.25,9.10499999 C20.221005,9.9334271 19.5259271,10.5814949 18.6975,10.5524999 C17.8690729,10.523505 17.2210051,9.8284271 17.25,8.99999999 C17.25,8.58578643 16.9142136,8.24999997 16.5,8.24999997 C16.0857865,8.24999997 15.75,8.58578643 15.75,8.99999999 C15.75,9.82842712 15.0784271,10.5 14.25,10.5 C13.4215729,10.5 12.75,9.82842712 12.75,8.99999999 C12.75,8.58578643 12.4142136,8.24999997 12,8.24999997 C11.5857864,8.24999997 11.25,8.58578643 11.25,8.99999999 C11.25,9.82842712 10.5784271,10.5 9.74999997,10.5 C8.92157287,10.5 8.24999997,9.82842712 8.24999997,8.99999999 C8.24999997,8.58578643 7.91421355,8.24999997 7.49999999,8.24999997 C7.08578642,8.24999997 6.74999997,8.58578643 6.74999997,8.99999999 C6.76875643,9.53589838 6.50018971,10.0410954 6.04546632,10.3252881 C5.59074292,10.6094809 5.01894615,10.6294937 4.54546631,10.3777881 C4.07198647,10.1260825 3.76875642,9.64089838 3.74999997,9.10499999 L5.76749998,3.74999997 Z M13.5,20.25 L10.5,20.25 L10.5,15.75 L13.5,15.75 L13.5,20.25 Z M18.75,18.75 C18.75,19.5784271 18.0784271,20.25 17.25,20.25 L15,20.25 L15,15.75 C15,14.9215729 14.3284271,14.25 13.5,14.25 L10.5,14.25 C9.67157287,14.25 8.99999999,14.9215729 8.99999999,15.75 L8.99999999,20.25 L6.74999998,20.25 C5.92157286,20.25 5.24999998,19.5784271 5.24999998,18.75 L5.24999998,12 C6.11168144,11.9989088 6.93129046,11.6273528 7.49999999,10.98 C8.06949911,11.6257513 8.88899824,11.9956865 9.74999998,11.9956865 C10.6110017,11.9956865 11.4305009,11.6257513 12,10.98 C12.5694991,11.6257513 13.3889983,11.9956865 14.25,11.9956865 C15.1110018,11.9956865 15.9305009,11.6257513 16.5,10.98 C17.0687095,11.6273528 17.8883186,11.9989088 18.75,12 L18.75,18.75 Z" id="path-1"></path>
    </defs>
    <g id="Filtros-V2" stroke="none" stroke-width="1" fill="none" fill-rule="evenodd">
        <g id="Categorias" transform="translate(-53.000000, -443.000000)">
            <g id="icons-/-finance-and-shopping-/-box" transform="translate(53.000000, 443.000000)">
                <mask id="mask-2" fill="white">
                    <use xlink:href="#path-1"></use>
                </mask>
                <g id="icon-store" fill-rule="nonzero"></g>
                <g id="Group" mask="url(#mask-2)" fill="#333333">
                    <g id="🎨-Icon-color">
                        <rect id="Rectangle" x="0" y="0" width="24" height="24"></rect>
                    </g>
                </g>
            </g>
        </g>
    </g>
</svg>