<?xml version="1.0" encoding="UTF-8"?>
<svg width="40px" height="40px" viewBox="0 0 40 40" version="1.1" xmlns="http://www.w3.org/2000/svg" xmlns:xlink="http://www.w3.org/1999/xlink">
    <title>Otros rubros_empty</title>
    <defs>
        <path d="M33.2499999,12 L33.2499999,12 C33.2570182,11.9293405 33.2570182,11.8581595 33.2499999,11.7875 C33.2499999,11.7125 33.2499999,11.6375 33.2499999,11.5625 L29.1125,0.749999949 L4.88749996,0.749999949 L0.824999949,11.5625 C0.824999949,11.6375 0.824999949,11.7125 0.824999949,11.7875 C0.793653085,11.8559308 0.768551108,11.9270531 0.749999949,12 L0.749999949,12 C0.749999949,12 0.749999949,12 0.749999949,12 C0.791326162,13.7441646 1.73880267,15.3406625 3.24999995,16.2125 L3.24999995,28.2499999 C3.24999995,31.0114238 5.48857621,33.2499999 8.24999995,33.2499999 L25.7499999,33.2499999 C28.5114238,33.2499999 30.7499999,31.0114238 30.7499999,28.2499999 L30.7499999,16.3 C32.2611973,15.4281625 33.2086738,13.8316646 33.2499999,12.0875 C33.2499999,12.0875 33.2499999,12 33.2499999,12 Z" id="path-1"></path>
        <path d="M36.2499999,15 L36.2499999,15 C36.2570182,14.9293405 36.2570182,14.8581595 36.2499999,14.7875 C36.2499999,14.7125 36.2499999,14.6375 36.2499999,14.5625 L32.1125,3.74999995 L7.88749996,3.74999995 L3.82499995,14.5625 C3.82499995,14.6375 3.82499995,14.7125 3.82499995,14.7875 C3.79365309,14.8559308 3.76855111,14.9270531 3.74999995,15 L3.74999995,15 C3.74999995,15 3.74999995,15 3.74999995,15 C3.79132616,16.7441646 4.73880267,18.3406625 6.24999995,19.2125 L6.24999995,31.2499999 C6.24999995,34.0114238 8.48857621,36.2499999 11.2499999,36.2499999 L28.7499999,36.2499999 C31.5114238,36.2499999 33.7499999,34.0114238 33.7499999,31.2499999 L33.7499999,19.3 C35.2611973,18.4281625 36.2086738,16.8316646 36.2499999,15.0875 C36.2499999,15.0875 36.2499999,15 36.2499999,15 Z M9.61249997,6.24999996 L30.3875,6.24999996 L33.75,15.175 C33.7016751,16.5557118 32.5432119,17.6358248 31.1625,17.5874999 C29.7817882,17.539175 28.7016752,16.3807118 28.75,15 C28.75,14.309644 28.190356,13.75 27.5,13.75 C26.8096441,13.75 26.25,14.309644 26.25,15 C26.25,16.3807119 25.1307119,17.5 23.75,17.5 C22.3692881,17.5 21.25,16.3807119 21.25,15 C21.25,14.309644 20.6903559,13.75 20,13.75 C19.3096441,13.75 18.75,14.309644 18.75,15 C18.75,16.3807119 17.6307119,17.5 16.25,17.5 C14.8692881,17.5 13.75,16.3807119 13.75,15 C13.75,14.309644 13.1903559,13.75 12.5,13.75 C11.809644,13.75 11.25,14.309644 11.25,15 C11.2812607,15.893164 10.8336495,16.7351589 10.0757772,17.2088135 C9.31790487,17.6824681 8.36491025,17.7158229 7.57577718,17.2963135 C6.78664412,16.8768041 6.2812607,16.068164 6.24999996,15.175 L9.61249997,6.24999996 Z M22.5,33.75 L17.5,33.75 L17.5,26.25 L22.5,26.25 L22.5,33.75 Z M31.25,31.25 C31.25,32.6307119 30.1307119,33.75 28.75,33.75 L25,33.75 L25,26.25 C25,24.8692881 23.8807119,23.75 22.5,23.75 L17.5,23.75 C16.1192881,23.75 15,24.8692881 15,26.25 L15,33.75 L11.25,33.75 C9.86928809,33.75 8.74999996,32.6307119 8.74999996,31.25 L8.74999996,20 C10.1861357,19.9981814 11.5521508,19.3789213 12.5,18.3 C13.4491652,19.3762522 14.8149971,19.9928109 16.25,19.9928109 C17.6850029,19.9928109 19.0508348,19.3762522 20,18.3 C20.9491652,19.3762522 22.3149971,19.9928109 23.75,19.9928109 C25.1850029,19.9928109 26.5508348,19.3762522 27.5,18.3 C28.4478492,19.3789213 29.8138643,19.9981814 31.25,20 L31.25,31.25 Z" id="path-3"></path>
    </defs>
    <g id="V-2" stroke="none" stroke-width="1" fill="none" fill-rule="evenodd">
        <g id="Categorias-Empty-State---Mobile" transform="translate(-31.000000, -510.000000)">
            <g id="Otros-Copy-2" transform="translate(30.000000, 510.000000)">
                <g id="Group" transform="translate(0.000000, 1.000000)">
                    <g id="icons-/-finance-and-shopping-/-box" transform="translate(6.000000, 1.000000)">
                        <mask id="mask-2" fill="white">
                            <use xlink:href="#path-1"></use>
                        </mask>
                        <use id="icon-store" fill="#FDDBCA" fill-rule="nonzero" xlink:href="#path-1"></use>
                    </g>
                    <g id="icons-/-finance-and-shopping-/-box-copy">
                        <mask id="mask-4" fill="white">
                            <use xlink:href="#path-3"></use>
                        </mask>
                        <g id="icon-store" fill-rule="nonzero"></g>
                        <g id="Group" mask="url(#mask-4)" fill="#FE5000">
                            <g id="🎨-Icon-color">
                                <rect id="Rectangle" x="0" y="0" width="40" height="40"></rect>
                            </g>
                        </g>
                    </g>
                </g>
            </g>
        </g>
    </g>
</svg>