<?xml version="1.0" encoding="UTF-8"?>
<svg width="40px" height="40px" viewBox="0 0 40 40" version="1.1" xmlns="http://www.w3.org/2000/svg" xmlns:xlink="http://www.w3.org/1999/xlink">
    <title>salud-bienestar_empty</title>
    <defs>
        <path d="M35.5000544,9.99999998 C35.5020862,12.6529629 34.4498858,15.198029 32.575,17.075 L18.9,30.7625 C18.6652918,30.9991409 18.3457969,31.132248 18.0125,31.132248 C17.6792031,31.132248 17.3597082,30.9991409 17.125,30.7625 L3.42499995,17.075 C0.561698035,14.2148842 -0.295400761,9.91092385 1.25377564,6.17209883 C2.80295204,2.43327381 6.45293315,-0.00318495355 10.5,-4.68749052e-08 C13.4617579,-0.0470431121 16.2605797,1.35236781 18,3.74999996 C19.7394203,1.35236781 22.5382421,-0.0470431121 25.5,-4.6874903e-08 C31.0228475,-4.68749018e-08 35.5000544,4.47715247 35.5000544,9.99999998 Z" id="path-1"></path>
        <path d="M37.5000032,15 C37.5020862,17.6529629 36.4498858,20.198029 34.575,22.075 L33.95,22.7 L32.175,20.925 L32.8,20.3 C34.2151681,18.9003572 35.0079863,16.9903861 35,15 C35,10.8578643 31.6421357,7.49999996 27.5,7.49999996 C24.475,7.49999996 21.25,9.42499997 21.25,13.0125 C21.25,13.7028559 20.6903559,14.2625 20,14.2625 C19.3096441,14.2625 18.75,13.7028559 18.75,13.0125 C18.75,9.42499997 15.525,7.49999996 12.5,7.49999996 C8.35786434,7.49999996 4.99999995,10.8578643 4.99999995,15 C4.99201371,16.9903861 5.78483187,18.9003572 7.19999996,20.3 L20,33.1125 L28.425,24.675 L28.425,24.675 C28.9151527,24.1848473 29.7098473,24.1848473 30.2,24.675 C30.6901527,25.1651528 30.6901527,25.9598473 30.2,26.45 L30.2,26.45 L20.9,35.7625 C20.6652918,35.9991409 20.3457969,36.132248 20.0125,36.132248 C19.6792031,36.132248 19.3597082,35.9991409 19.125,35.7625 L5.42499995,22.075 C2.56169803,19.2148842 1.70459924,14.9109239 3.25377564,11.1720988 C4.80295204,7.43327381 8.45293315,4.99681505 12.5,4.99999995 C15.4617579,4.95295689 18.2605797,6.35236781 20,8.74999996 C21.7394203,6.35236781 24.5382421,4.95295689 27.5,4.99999995 C33.0228475,4.99999995 37.5000032,9.47715247 37.5000032,15 Z" id="path-3"></path>
    </defs>
    <g id="V-2" stroke="none" stroke-width="1" fill="none" fill-rule="evenodd">
        <g id="Categorias-Empty-State---Mobile" transform="translate(-32.000000, -83.000000)">
            <g id="icons-/-parfum-copy" transform="translate(30.000000, 83.000000)">
                <g id="icons-/-house-and-home-items-/-medicine" transform="translate(6.000000, 4.000000)">
                    <mask id="mask-2" fill="white">
                        <use xlink:href="#path-1"></use>
                    </mask>
                    <use id="icon-heart" fill="#FDDBCA" fill-rule="nonzero" xlink:href="#path-1"></use>
                </g>
                <g id="icons-/-house-and-home-items-/-medicine-copy">
                    <mask id="mask-4" fill="white">
                        <use xlink:href="#path-3"></use>
                    </mask>
                    <g id="icon-heart" fill-rule="nonzero"></g>
                    <g id="Group" mask="url(#mask-4)" fill="#FE5000">
                        <g id="🎨-Icon-color">
                            <rect id="Rectangle" x="0" y="0" width="40" height="40"></rect>
                        </g>
                    </g>
                </g>
            </g>
        </g>
    </g>
</svg>