<?xml version="1.0" encoding="UTF-8"?>
<svg width="24px" height="24px" viewBox="0 0 24 24" version="1.1" xmlns="http://www.w3.org/2000/svg" xmlns:xlink="http://www.w3.org/1999/xlink">
    <title>Servicios</title>
    <defs>
        <path d="M19.5,2.24999997 L19.5,14.2875 L19.5,14.2875 C19.5,14.7017136 19.1642136,15.0375 18.75,15.0375 C18.3357865,15.0375 18,14.7017136 18,14.2875 L18,14.2875 L18,3.65249997 L16.9125,4.40249998 C16.6622006,4.56733532 16.3377994,4.56733532 16.0875,4.40249998 L14.25,3.14999997 L12.4125,4.37249998 C12.1622006,4.53733532 11.8377994,4.53733532 11.5875,4.37249998 L9.74999999,3.14999997 L7.91249999,4.37249998 C7.66220061,4.53733532 7.33779936,4.53733532 7.08749998,4.37249998 L5.99999998,3.65249997 L5.99999998,20.3475 L7.08749998,19.5975 C7.33779936,19.4326647 7.66220061,19.4326647 7.91249999,19.5975 L9.74999999,20.85 L11.5875,19.6275 C11.8377994,19.4626647 12.1622006,19.4626647 12.4125,19.6275 L14.25,20.85 L16.0875,19.6275 C16.3377994,19.4626647 16.6622006,19.4626647 16.9125,19.6275 L18,20.3775 L18,18 L19.5,18 L19.5,21.75 C19.4992624,22.0264453 19.3465104,22.2800713 19.1025,22.41 C18.8637927,22.532568 18.5777906,22.5182679 18.3525,22.3725 L16.5,21.15 L14.6625,22.3725 C14.4122006,22.5373354 14.0877994,22.5373354 13.8375,22.3725 L12,21.15 L10.1625,22.3725 C9.91220062,22.5373354 9.58779936,22.5373354 9.33749999,22.3725 L7.49999998,21.15 L5.66249998,22.3725 C5.4372094,22.5182679 5.15120735,22.532568 4.91249998,22.41 C4.6626759,22.2841428 4.50365657,22.0297119 4.49999998,21.75 L4.49999998,2.24999997 C4.50073762,1.97355466 4.6534896,1.71992874 4.89749998,1.58999997 C5.12955079,1.45602537 5.41544917,1.45602537 5.64749998,1.58999997 L7.49999998,2.84999997 L9.33749999,1.62749997 C9.58779936,1.46266462 9.91220062,1.46266462 10.1625,1.62749997 L12,2.84999997 L13.8375,1.62749997 C14.0877994,1.46266462 14.4122006,1.46266462 14.6625,1.62749997 L16.5,2.84999997 L18.3375,1.62749997 C18.5695508,1.49352537 18.8554492,1.49352537 19.0875,1.62749997 C19.325872,1.74693012 19.4829204,1.98393031 19.5,2.24999997 L19.5,2.24999997 Z M15.75,7.49999999 C15.75,7.08578642 15.4142136,6.74999998 15,6.74999998 L8.24999999,6.74999998 C7.83578642,6.74999998 7.49999999,7.08578642 7.49999999,7.49999999 C7.49999999,7.91421355 7.83578642,8.24999998 8.24999999,8.24999998 L15,8.24999998 C15.4142136,8.24999998 15.75,7.91421355 15.75,7.49999999 Z M13.5,10.5 C13.5,10.0857864 13.1642136,9.74999999 12.75,9.74999999 L8.24999999,9.74999999 C7.83578642,9.74999999 7.49999999,10.0857864 7.49999999,10.5 C7.49999999,10.9142136 7.83578642,11.25 8.24999999,11.25 L12.75,11.25 C13.1642136,11.25 13.5,10.9142136 13.5,10.5 Z M8.24999999,15 C7.83578642,15 7.49999999,15.3357864 7.49999999,15.75 C7.49999999,16.1642136 7.83578642,16.5 8.24999999,16.5 L11.25,16.5 C11.6642136,16.5 12,16.1642136 12,15.75 C12,15.3357864 11.6642136,15 11.25,15 L8.24999999,15 Z" id="path-1"></path>
    </defs>
    <g id="Filtros-V2" stroke="none" stroke-width="1" fill="none" fill-rule="evenodd">
        <g id="Categorias" transform="translate(-53.000000, -485.000000)">
            <g id="icons-/-finance-and-shopping-/-box" transform="translate(53.000000, 485.000000)">
                <mask id="mask-2" fill="white">
                    <use xlink:href="#path-1"></use>
                </mask>
                <g id="icon-ticket" fill-rule="nonzero"></g>
                <g id="Group" mask="url(#mask-2)" fill="#333333">
                    <g id="🎨-Icon-color">
                        <rect id="Rectangle" x="0" y="0" width="24" height="24"></rect>
                    </g>
                </g>
            </g>
        </g>
    </g>
</svg>