<?xml version="1.0" encoding="UTF-8"?>
<svg width="40px" height="40px" viewBox="0 0 40 40" version="1.1" xmlns="http://www.w3.org/2000/svg" xmlns:xlink="http://www.w3.org/1999/xlink">
    <title>Servicios_empty</title>
    <defs>
        <path d="M25.5,34.2500001 C25.4987706,34.7107422 25.244184,35.1334521 24.8375,35.3500001 C24.4396544,35.55428 23.9629843,35.5304465 23.5875,35.2875001 L20.5,33.25 L17.4375,35.2875001 C17.0203344,35.5622256 16.4796656,35.5622256 16.0625,35.2875001 L13,33.25 L9.93749999,35.2875001 C9.52033437,35.5622256 8.97966561,35.5622256 8.56249999,35.2875001 L5.49999996,33.25 L2.43749997,35.2875001 C2.06201567,35.5304465 1.58534558,35.55428 1.18749996,35.3500001 C0.771126501,35.1402381 0.506094285,34.7161865 0.499999961,34.2500001 L0.499999961,1.74999995 C0.501229368,1.28925777 0.755815996,0.8665479 1.16249996,0.649999946 C1.54925131,0.426708951 2.02574862,0.426708951 2.41249997,0.649999946 L5.49999996,2.74999995 L8.56249999,0.712499946 C8.97966561,0.437774369 9.52033437,0.437774369 9.93749999,0.712499946 L13,2.74999995 L16.0625,0.712499946 C16.4796656,0.437774369 17.0203344,0.437774369 17.4375,0.712499946 L20.5,2.74999995 L23.5625,0.712499946 C23.9492514,0.489208952 24.4257487,0.489208952 24.8125,0.712499946 C25.2097867,0.911550201 25.4715339,1.30655051 25.5,1.74999995 L25.5,34.2500001 Z" id="path-1"></path>
        <path d="M32.5,3.74999995 L32.5,23.8125 L32.5,23.8125 C32.5,24.502856 31.940356,25.0625 31.25,25.0625 C30.5596441,25.0625 30,24.502856 30,23.8125 L30,23.8125 L30,6.08749996 L28.1875,7.33749996 C27.7703344,7.61222554 27.2296656,7.61222554 26.8125,7.33749996 L23.75,5.24999995 L20.6875,7.28749996 C20.2703344,7.56222554 19.7296656,7.56222554 19.3125,7.28749996 L16.25,5.24999995 L13.1875,7.28749996 C12.7703344,7.56222554 12.2296656,7.56222554 11.8125,7.28749996 L9.99999996,6.08749996 L9.99999996,33.9125 L11.8125,32.6625 C12.2296656,32.3877745 12.7703344,32.3877745 13.1875,32.6625 L16.25,34.75 L19.3125,32.7125 C19.7296656,32.4377745 20.2703344,32.4377745 20.6875,32.7125 L23.75,34.75 L26.8125,32.7125 C27.2296656,32.4377745 27.7703344,32.4377745 28.1875,32.7125 L30,33.9625 L30,30 L32.5,30 L32.5,36.2500001 C32.4987706,36.7107422 32.244184,37.1334521 31.8375,37.3500001 C31.4396544,37.55428 30.9629843,37.5304465 30.5875,37.2875001 L27.5,35.25 L24.4375,37.2875001 C24.0203344,37.5622256 23.4796656,37.5622256 23.0625,37.2875001 L20,35.25 L16.9375,37.2875001 C16.5203344,37.5622256 15.9796656,37.5622256 15.5625,37.2875001 L12.5,35.25 L9.43749997,37.2875001 C9.06201567,37.5304465 8.58534558,37.55428 8.18749996,37.3500001 C7.7711265,37.1402381 7.50609429,36.7161865 7.49999996,36.2500001 L7.49999996,3.74999995 C7.50122937,3.28925777 7.755816,2.8665479 8.16249996,2.64999995 C8.54925131,2.42670895 9.02574862,2.42670895 9.41249997,2.64999995 L12.5,4.74999995 L15.5625,2.71249995 C15.9796656,2.43777437 16.5203344,2.43777437 16.9375,2.71249995 L20,4.74999995 L23.0625,2.71249995 C23.4796656,2.43777437 24.0203344,2.43777437 24.4375,2.71249995 L27.5,4.74999995 L30.5625,2.71249995 C30.9492514,2.48920895 31.4257487,2.48920895 31.8125,2.71249995 C32.2097867,2.9115502 32.4715339,3.30655051 32.5,3.74999995 L32.5,3.74999995 Z M26.25,12.5 C26.25,11.809644 25.690356,11.25 25,11.25 L13.75,11.25 C13.059644,11.25 12.5,11.809644 12.5,12.5 C12.5,13.1903559 13.059644,13.75 13.75,13.75 L25,13.75 C25.690356,13.75 26.25,13.1903559 26.25,12.5 Z M22.5,17.5 C22.5,16.8096441 21.9403559,16.25 21.25,16.25 L13.75,16.25 C13.059644,16.25 12.5,16.8096441 12.5,17.5 C12.5,18.1903559 13.059644,18.75 13.75,18.75 L21.25,18.75 C21.9403559,18.75 22.5,18.1903559 22.5,17.5 Z M13.75,25 C13.059644,25 12.5,25.5596441 12.5,26.25 C12.5,26.940356 13.059644,27.5 13.75,27.5 L18.75,27.5 C19.4403559,27.5 20,26.940356 20,26.25 C20,25.5596441 19.4403559,25 18.75,25 L13.75,25 Z" id="path-3"></path>
    </defs>
    <g id="V-2" stroke="none" stroke-width="1" fill="none" fill-rule="evenodd">
        <g id="Categorias-Empty-State---Mobile" transform="translate(-32.000000, -562.000000)">
            <g id="Servicios-Copy-2" transform="translate(31.000000, 562.000000)">
                <g id="icons-/-tools-copy" transform="translate(0.000000, 1.000000)">
                    <g id="icons-/-finance-and-shopping-/-box" transform="translate(10.000000, 0.000000)">
                        <mask id="mask-2" fill="white">
                            <use xlink:href="#path-1"></use>
                        </mask>
                        <use id="icon-ticket" fill="#FDDBCA" fill-rule="nonzero" xlink:href="#path-1"></use>
                    </g>
                    <g id="icons-/-finance-and-shopping-/-box-copy-2" transform="translate(0.000000, 1.000000)">
                        <mask id="mask-4" fill="white">
                            <use xlink:href="#path-3"></use>
                        </mask>
                        <g id="icon-ticket" fill-rule="nonzero"></g>
                        <g id="Group" mask="url(#mask-4)" fill="#FE5000">
                            <g id="🎨-Icon-color">
                                <rect id="Rectangle" x="0" y="0" width="40" height="40"></rect>
                            </g>
                        </g>
                    </g>
                </g>
            </g>
        </g>
    </g>
</svg>