<svg xmlns="http://www.w3.org/2000/svg" xmlns:xlink="http://www.w3.org/1999/xlink" width="40" height="40" viewBox="0 0 40 40">
    <defs>
        <path id="prefix__a" d="M27.017 30.03c1.38 0 2.5 1.118 2.5 2.5 0 1.38-1.12 2.5-2.5 2.5-1.381 0-2.5-1.12-2.5-2.5 0-1.382 1.119-2.5 2.5-2.5zm-15.075 0c1.38 0 2.5 1.118 2.5 2.5 0 1.38-1.12 2.5-2.5 2.5-1.381 0-2.5-1.12-2.5-2.5 0-1.382 1.119-2.5 2.5-2.5zM2.592 1.303c2.445-.003 4.534 1.763 4.937 4.175l2.25 14.563 16.688-1.05c1.139-.071 2.085-.904 2.3-2.025l1.25-6.45c.14-.732-.052-1.488-.525-2.063-.476-.571-1.182-.901-1.925-.9H13.354c-.69 0-1.25-.56-1.25-1.25s.56-1.25 1.25-1.25h14.213c1.489 0 2.9.665 3.85 1.813.964 1.141 1.368 2.654 1.1 4.125l-1.25 6.437c-.43 2.242-2.322 3.908-4.6 4.05l-16.438 1.05v.463c.193 1.227 1.258 2.127 2.5 2.112h15.538c.69 0 1.25.56 1.25 1.25s-.56 1.25-1.25 1.25h-15.5c-2.462 0-4.556-1.793-4.938-4.225L5.092 5.88c-.21-1.213-1.27-2.093-2.5-2.075h-.575c-.69 0-1.25-.56-1.25-1.25s.56-1.25 1.25-1.25z"/>
    </defs>
    <g fill="none" fill-rule="evenodd" transform="translate(3 2)">
        <path fill="#FDDBCA" fill-rule="nonzero" d="M29.017 29.03c1.38 0 2.5 1.118 2.5 2.5 0 1.38-1.12 2.5-2.5 2.5-1.381 0-2.5-1.12-2.5-2.5 0-1.382 1.119-2.5 2.5-2.5zm-15.075 0c1.38 0 2.5 1.118 2.5 2.5 0 1.38-1.12 2.5-2.5 2.5-1.381 0-2.5-1.12-2.5-2.5 0-1.382 1.119-2.5 2.5-2.5zM4.592.303C6.872.301 8.842 1.837 9.425 4L29.753 4c.824 0 1.59.249 2.226.676.543.3 1.032.701 1.438 1.19.908 1.075 1.319 2.479 1.14 3.866l-.04.26-1.25 6.437c-.415 2.167-2.198 3.797-4.374 4.03l-.226.02-16.438 1.05v.463c.184 1.171 1.163 2.045 2.332 2.109l.168.003h15.538c.69 0 1.25.56 1.25 1.25 0 .647-.492 1.18-1.123 1.244l-.127.006h-15.5c-2.387 0-4.429-1.686-4.898-4.006l-.04-.219-2.737-17.5c-.2-1.157-1.175-2.012-2.334-2.072l-.166-.003h-.575c-.69 0-1.25-.56-1.25-1.25 0-.647.492-1.18 1.122-1.243l.128-.007h.575z"/>
        <use fill="#F50" fill-rule="nonzero" xlink:href="#prefix__a"/>
    </g>
</svg>
