<svg xmlns="http://www.w3.org/2000/svg" xmlns:xlink="http://www.w3.org/1999/xlink" width="24" height="24" viewBox="0 0 24 24">
    <defs>
        <path id="a" d="M16.21 17.418a1.5 1.5 0 1 1 0 3 1.5 1.5 0 0 1 0-3zm-9.045 0a1.5 1.5 0 1 1 0 3 1.5 1.5 0 0 1 0-3zM1.555.181a3 3 0 0 1 2.962 2.505l1.35 8.738 10.013-.63a1.5 1.5 0 0 0 1.38-1.215l.75-3.87a1.5 1.5 0 0 0-.315-1.238 1.5 1.5 0 0 0-1.155-.54H8.012a.75.75 0 0 1 0-1.5h8.528a3 3 0 0 1 2.31 1.088 3 3 0 0 1 .66 2.475l-.75 3.862a3 3 0 0 1-2.76 2.43l-9.863.63v.278a1.5 1.5 0 0 0 1.5 1.268h9.323a.75.75 0 0 1 0 1.5h-9.3a3 3 0 0 1-2.963-2.535l-1.642-10.5a1.5 1.5 0 0 0-1.5-1.246H1.21a.75.75 0 1 1 0-1.5z"/>
    </defs>
    <use fill="#000" fill-rule="nonzero" transform="translate(2 2)" xlink:href="#a"/>
</svg>
