<svg xmlns="http://www.w3.org/2000/svg" width="24" height="24" viewBox="0 0 24 24">
    <g fill="none" fill-rule="evenodd">
        <path d="M0 0h24v24H0z"/>
        <path fill="#333" fill-rule="nonzero" d="M15 3.75a1.5 1.5 0 0 1 1.493 1.356l.007.144v1.5H21a1.5 1.5 0 0 1 1.5 1.5v10.5a1.5 1.5 0 0 1-1.5 1.5H3a1.5 1.5 0 0 1-1.5-1.5V16.5H3v2.25h1.875V8.25H3v5.25a.75.75 0 0 1-1.493.102L1.5 13.5V8.25A1.5 1.5 0 0 1 3 6.75h4.5v-1.5a1.5 1.5 0 0 1 1.356-1.493L9 3.75h6zm-7.5 4.5H6.375v10.5H7.5V8.25zm10.5 0h-1.125v10.5H18V8.25zm-2.625 0H9v10.5h6.375V8.25zm5.625 0h-1.5v10.5H21V8.25zm-6-3H9v1.5h6v-1.5z"/>
    </g>
</svg>
