<?xml version="1.0" encoding="UTF-8"?>
<svg width="40px" height="40px" viewBox="0 0 40 40" version="1.1" xmlns="http://www.w3.org/2000/svg" xmlns:xlink="http://www.w3.org/1999/xlink">
    <title>Viajes_empty</title>
    <defs>
        <path d="M35.4999999,9.99999995 C35.4999999,7.23857623 33.2614238,4.99999995 30.4999999,4.99999995 L24.25,4.99999995 L24.25,2.49999995 C24.25,1.11928808 23.1307119,-4.68749022e-08 21.75,-4.68749022e-08 L14.25,-4.68749022e-08 C12.8692881,-4.68749022e-08 11.75,1.11928808 11.75,2.49999995 L11.75,4.99999995 L5.49999995,4.99999995 C2.7385762,4.99999995 0.499999945,7.23857623 0.499999945,9.99999995 L0.499999945,25 C0.499999945,27.7614238 2.7385762,30 5.49999995,30 L30.4999999,30 C33.2614238,30 35.4999999,27.7614238 35.4999999,25 L35.4999999,23.75 L35.4999999,9.99999995 Z M14.25,2.49999996 L21.75,2.49999996 L21.75,4.99999996 L14.25,4.99999996 L14.25,2.49999996 Z" id="path-1"></path>
        <path d="M37.4999999,22.5 L37.4999999,15 C37.4999999,12.2385762 35.2614238,9.99999995 32.4999999,9.99999995 L26.25,9.99999995 L26.25,7.49999995 C26.25,6.11928808 25.1307119,4.99999995 23.75,4.99999995 L16.25,4.99999995 C14.8692881,4.99999995 13.75,6.11928808 13.75,7.49999995 L13.75,9.99999995 L7.49999995,9.99999995 C4.7385762,9.99999995 2.49999995,12.2385762 2.49999995,15 L2.49999995,30 C2.49999995,32.7614238 4.7385762,35 7.49999995,35 L32.4999999,35 C35.2614238,35 37.4999999,32.7614238 37.4999999,30 L37.4999999,28.75 L37.4999999,28.75 C37.4999999,28.0596441 36.940356,27.5 36.2500001,27.5 C35.5596441,27.5 34.9999999,28.0596441 34.9999999,28.75 L34.9999999,28.75 L34.9999999,30 C34.9999999,31.3807119 33.8807119,32.5 32.4999999,32.5 L7.49999995,32.5 C6.11928808,32.5 4.99999995,31.3807119 4.99999995,30 L4.99999995,15 C4.99999995,13.6192881 6.11928808,12.5 7.49999995,12.5 L8.74999996,12.5 L8.74999996,21.25 C8.74999996,21.9403559 9.30964403,22.5 9.99999995,22.5 C10.6903559,22.5 11.25,21.9403559 11.25,21.25 L11.25,12.5 L18.75,12.5 L18.75,18.75 C18.75,19.4403559 19.3096441,20 19.9999999,20 C20.6903559,20 21.25,19.4403559 21.25,18.75 L21.25,12.5 L28.75,12.5 L28.75,21.25 C28.75,21.9403559 29.3096441,22.5 29.9999999,22.5 C30.690356,22.5 31.25,21.9403559 31.25,21.25 L31.25,12.5 L32.4999999,12.5 C33.8807119,12.5 34.9999999,13.6192881 34.9999999,15 L34.9999999,22.5 L37.4999999,22.5 Z M16.25,7.49999996 L23.75,7.49999996 L23.75,9.99999996 L16.25,9.99999996 L16.25,7.49999996 Z" id="path-3"></path>
    </defs>
    <g id="V-2" stroke="none" stroke-width="1" fill="none" fill-rule="evenodd">
        <g id="Categorias-Empty-State---Mobile" transform="translate(-32.000000, -616.000000)">
            <g id="Viajes-Copy-2" transform="translate(31.000000, 616.000000)">
                <g id="Group" transform="translate(0.000000, 1.000000)">
                    <g id="icons-/-travel-and-location-/-baggage" transform="translate(5.000000, 2.000000)">
                        <mask id="mask-2" fill="white">
                            <use xlink:href="#path-1"></use>
                        </mask>
                        <use id="icon-baggage" fill="#FDDBCA" fill-rule="nonzero" xlink:href="#path-1"></use>
                    </g>
                    <g id="icons-/-travel-and-location-/-baggage-copy">
                        <mask id="mask-4" fill="white">
                            <use xlink:href="#path-3"></use>
                        </mask>
                        <g id="icon-baggage" fill-rule="nonzero"></g>
                        <g id="Group" mask="url(#mask-4)" fill="#FE5000">
                            <g id="🎨-Icon-color">
                                <rect id="Rectangle" x="0" y="0" width="40" height="40"></rect>
                            </g>
                        </g>
                    </g>
                </g>
            </g>
        </g>
    </g>
</svg>