<svg xmlns="http://www.w3.org/2000/svg" xmlns:xlink="http://www.w3.org/1999/xlink" width="32" height="32" viewBox="0 0 32 32">
    <defs>
        <path id="a" d="M29 16a1 1 0 0 1-1 1H6.41l10.3 10.29a1 1 0 0 1 0 1.42 1 1 0 0 1-1.42 0l-12-12a1 1 0 0 1 0-1.42l12-12a1.004 1.004 0 1 1 1.42 1.42L6.41 15H28a1 1 0 0 1 1 1z"/>
    </defs>
    <g fill="none" fill-rule="evenodd">
        <mask id="b" fill="#fff">
            <use xlink:href="#a"/>
        </mask>
        <g fill="#333" mask="url(#b)">
            <path d="M0 0h32v32H0z"/>
        </g>
    </g>
</svg>
