<svg xmlns="http://www.w3.org/2000/svg" xmlns:xlink="http://www.w3.org/1999/xlink" width="32" height="32" viewBox="0 0 32 32">
    <defs>
        <path id="a" d="M24.71 23.29a1 1 0 0 1 0 1.42 1 1 0 0 1-1.42 0L16 17.41l-7.29 7.3a1 1 0 0 1-1.42 0 1 1 0 0 1 0-1.42l7.3-7.29-7.3-7.29a1.004 1.004 0 1 1 1.42-1.42l7.29 7.3 7.29-7.3a1.004 1.004 0 0 1 1.42 1.42L17.41 16l7.3 7.29z"/>
    </defs>
    <g fill="none" fill-rule="evenodd">
        <mask id="b" fill="#fff">
            <use xlink:href="#a"/>
        </mask>
        <g fill="#333" mask="url(#b)">
            <path d="M0 0h32v32H0z"/>
        </g>
    </g>
</svg>
