<?xml version="1.0" encoding="UTF-8"?>
<svg width="128px" height="128px" viewBox="0 0 128 128" version="1.1" xmlns="http://www.w3.org/2000/svg" xmlns:xlink="http://www.w3.org/1999/xlink">
    <!-- Generator: Sketch 58 (84663) - https://sketch.com -->
    <title>ilustracion-mapa</title>
    <desc>Created with Sketch.</desc>
    <g id="NOL-Web---Mobile" stroke="none" stroke-width="1" fill="none" fill-rule="evenodd">
        <g id="1.2-NOL-Mobile---Mapa-onboarding-01" transform="translate(-120.000000, -145.000000)">
            <g id="ilustracion" transform="translate(120.000000, 145.000000)">
                <g id="ilustracion-mapa" transform="translate(4.000000, 7.000000)">
                    <path d="M2.32044199,38.121547 L2.32044199,24.085166 C2.32044199,22.5371711 3.21847464,21.1297651 4.62236908,20.4775621 L40.7666075,3.68614428 C43.0633163,2.61916932 45.7307969,2.70935887 47.9501926,3.92902677 L77.2165571,20.0123442 C79.6932768,21.3734244 82.7061409,21.3184649 85.1315728,19.8679615 L109.008035,5.58890072 C110.893519,4.46130718 113.336102,5.07569902 114.463695,6.9611833 C114.832739,7.57827255 115.027624,8.28385025 115.027624,9.00287201 L115.027624,92.8213746 C115.027624,94.2532977 114.25802,95.5747242 113.012557,96.2812846 L84.4229341,112.500398 C82.0179533,113.864762 79.0770546,113.882577 76.6557211,112.547449 L48.5345286,97.0413709 C46.3595738,95.8420968 43.7493282,95.7273622 41.4775355,96.7311776 L7.90606614,111.565083 C5.89656021,112.453004 3.54773142,111.54378 2.65981019,109.534274 C2.43603032,109.027825 2.32044199,108.480236 2.32044199,107.92655 L2.32044199,73.5911602 L2.32044199,73.5911602" id="Path-15" stroke="#AAAAAA" stroke-width="1.32596685" fill="#FFFFFF" stroke-linecap="round" stroke-linejoin="round"></path>
                    <path d="M6.29834254,26.3697536 L6.29834254,56.9619888 C6.29834254,57.6943001 6.89199812,58.2879557 7.62430939,58.2879557 C7.81047396,58.2879557 7.9945522,58.2487544 8.16456349,58.1729032 L27.0290647,49.7564334 C27.5224159,49.5363229 27.8329057,49.0389162 27.813962,48.4990225 L27.2105921,31.3029797 C27.1932236,30.807979 27.4531901,30.3445656 27.8846764,30.1013642 L44.7351493,20.603825 C45.1544055,20.3675169 45.668788,20.3769314 46.0791163,20.6284229 L53.6717409,25.281967 C54.2961104,25.6646451 55.1124838,25.4687155 55.4951619,24.844346 C55.6229656,24.6358241 55.6906077,24.3960175 55.6906077,24.151446 L55.6906077,14.023036 C55.6906077,13.5504825 55.439115,13.1136405 55.0304559,12.8763546 L46.0129651,7.64039217 C45.6379123,7.42261956 45.1800659,7.40202473 44.7869756,7.58524477 L7.06413492,25.1679248 C6.59699315,25.3856603 6.29834254,25.8543604 6.29834254,26.3697536 Z" id="Path-19" fill="#EBEBEB"></path>
                    <polygon id="Path-24" fill="#D8D8D8" opacity="0.256905692" points="44.7513812 96.1325967 45.0828729 3.31491713 79.2265193 20.8839779 80.8839779 20.8839779 80.8839779 113.701657"></polygon>
                    <polygon id="Path-20" fill="#EBEBEB" points="84.198895 108.729282 105.082873 96.7955801 105.414365 64.3093923 83.8674033 82.8729282"></polygon>
                    <polygon id="Path-21" fill="#EBEBEB" points="66.2983425 101.642726 77.5690608 108.729282 77.5690608 90.4677716 66.2983425 84.198895"></polygon>
                    <polygon id="Path-22" fill="#EBEBEB" points="5.63535912 78.2320442 5.63535912 108.066298 39.4475138 93.1491713 39.4475138 57.679558"></polygon>
                    <path d="M103.756906,40.8871068 C90.4972376,42.8760571 84.8618785,49.0639024 86.8508287,59.4506427 C86.8508287,59.4506427 86.8508287,59.4506427 86.8508287,59.4506427 C87.7271001,64.0267268 84.7278094,68.4467342 80.1517254,69.3230056 C76.5871702,70.00558 72.9855408,68.3318798 71.2088351,65.1671874 C69.8570975,62.7593269 67.7782596,62.2902863 64.9723757,63.760035 C58.0110497,67.4064438 59.3370166,102.544565 41.4364641,92.2683223 C29.5027624,85.4174936 23.2044199,85.8594825 22.5414365,93.5942891" id="Path-25" stroke="#AAAAAA" stroke-width="1.32596685" stroke-linecap="round" stroke-dasharray="0.6629834254143646,3.977900552486187" transform="translate(63.149171, 67.515377) scale(-1, -1) translate(-63.149171, -67.515377) "></path>
                    <g id="Group-26" transform="translate(91.823204, 0.000000)">
                        <path d="M13.9226519,0 C21.6119203,0 27.8453039,6.23338359 27.8453039,13.9226519 C27.8453039,17.174177 26.7306808,20.165368 24.8626837,22.5349755 L24.8618785,22.5414365 L14.4777078,37.1270718 L2.98342541,22.5414365 C1.1146231,20.165368 0,17.174177 0,13.9226519 C0,6.23338359 6.23338359,0 13.9226519,0 Z" id="Combined-Shape-Copy-3" stroke="#D04600" stroke-width="1.32596685" fill="#FE5500"></path>
                        <circle id="Oval-Copy-2" fill="#FFFAFA" cx="13.9226519" cy="13.5911602" r="4.64088398"></circle>
                    </g>
                    <g id="Group-26-Copy" transform="translate(0.331492, 48.397790)">
                        <path d="M16.5745856,0 C25.7284765,0 33.1491713,7.42069475 33.1491713,16.5745856 C33.1491713,20.4452772 31.8223567,24.0060746 29.5987289,26.8269765 L29.5974743,26.8350434 L17.2353665,44.198895 L3.55169692,26.8350434 C1.32681458,24.0060746 0,20.4452772 0,16.5745856 C0,7.42069475 7.42069475,0 16.5745856,0 Z" id="Combined-Shape-Copy-3" stroke="#D04600" stroke-width="1.57853197" fill="#FE5500"></path>
                        <circle id="Oval-Copy-2" fill="#FFFAFA" cx="16.5745856" cy="16.1799526" r="5.52486188"></circle>
                    </g>
                    <circle id="Oval" fill="#8F9BFC" opacity="0.6695266" cx="65.9668508" cy="61.6574586" r="8.61878453"></circle>
                    <circle id="Oval-Copy-3" stroke="#4252CE" stroke-width="1.32596685" fill="#5063FB" cx="65.9668508" cy="61.6574586" r="6.62983425"></circle>
                    <path d="M2.32044199,51.7127072 L2.32044199,43.0939227" id="Line-18" stroke="#AAAAAA" stroke-width="1.32596685" stroke-linecap="round"></path>
                </g>
            </g>
        </g>
    </g>
</svg>