<svg xmlns="http://www.w3.org/2000/svg" xmlns:xlink="http://www.w3.org/1999/xlink" width="64" height="48" viewBox="0 0 64 48">
    <defs>
        <path id="b" d="M4 0h148a4 4 0 0 1 4 4v202a4 4 0 0 1-4 4H4a4 4 0 0 1-4-4V4a4 4 0 0 1 4-4z"/>
        <filter id="a" width="109%" height="107.1%" x="-4.5%" y="-2.9%" filterUnits="objectBoundingBox">
            <feOffset dy="1" in="SourceAlpha" result="shadowOffsetOuter1"/>
            <feGaussianBlur in="shadowOffsetOuter1" result="shadowBlurOuter1" stdDeviation="2"/>
            <feColorMatrix in="shadowBlurOuter1" result="shadowMatrixOuter1" values="0 0 0 0 0 0 0 0 0 0 0 0 0 0 0 0 0 0 0.2 0"/>
            <feOffset dy="2" in="SourceAlpha" result="shadowOffsetOuter2"/>
            <feGaussianBlur in="shadowOffsetOuter2" result="shadowBlurOuter2" stdDeviation="2"/>
            <feColorMatrix in="shadowBlurOuter2" result="shadowMatrixOuter2" values="0 0 0 0 0 0 0 0 0 0 0 0 0 0 0 0 0 0 0.04 0"/>
            <feMerge>
                <feMergeNode in="shadowMatrixOuter1"/>
                <feMergeNode in="shadowMatrixOuter2"/>
            </feMerge>
        </filter>
        <path id="c" d="M6.72.772A1.547 1.547 0 0 1 8.06 0h37.91c.548 0 1.054.29 1.333.761l6.85 11.617-2.49 2.502a4.384 4.384 0 0 1-5.678.457l-2.662-1.927-2.665 2.074a4.384 4.384 0 0 1-5.314.053l-2.852-2.127-2.802 2.114a4.384 4.384 0 0 1-5.313-.025l-2.715-2.09-2.938 2.151a4.384 4.384 0 0 1-5.316-.104L10.83 13.41l-2.743 1.95a4.384 4.384 0 0 1-5.68-.512L0 12.378z"/>
    </defs>
    <g fill="none" fill-rule="evenodd">
        <path fill="#F2F2F2" d="M-62-1241h360V349H-62z"/>
        <g transform="translate(-46 -16)">
            <use fill="#000" filter="url(#a)" xlink:href="#b"/>
            <use fill="#FFF" xlink:href="#b"/>
        </g>
        <path fill="#F1F1F1" stroke="#CECECE" stroke-linecap="round" stroke-width=".564" d="M10.158 30.464V15.636h44.87v30.43h-44.87v-7.221"/>
        <path fill="#FFF" stroke="#CCC" stroke-width=".564" d="M15.573 22.599h34.04c.854 0 1.547.692 1.547 1.547v21.146H14.026V24.146c0-.855.692-1.547 1.547-1.547z"/>
        <path stroke="#CCC" stroke-linecap="round" stroke-width=".564" d="M18.491 33.865l6.026-7.319M19.183 30.85l3.095-3.868M22.793 30.85l2.063-2.578M20.73 33.43l1.29-1.548M39.684 44.776V25.95"/>
        <path fill="#F1F1F1" stroke="#CCC" stroke-width=".564" d="M9.126 44.776h46.418c.854 0 1.547.693 1.547 1.547H7.579c0-.854.692-1.547 1.547-1.547z"/>
        <path stroke="#CCC" stroke-linecap="round" stroke-width=".564" d="M10.158 31.624v4.642"/>
        <path fill="#F1F1F1" d="M10.415 45.807H54.77V44.26H10.415z"/>
        <g transform="translate(5 3)">
            <mask id="d" fill="#fff">
                <use xlink:href="#c"/>
            </mask>
            <path stroke="#CCC" stroke-width=".564" d="M43.33 13.762l-2.499 1.944a4.666 4.666 0 0 1-5.656.057l-2.682-2-2.633 1.986a4.666 4.666 0 0 1-5.655-.027l-2.548-1.96-2.766 2.026a4.666 4.666 0 0 1-5.659-.111l-2.41-1.915-2.57 1.828a4.666 4.666 0 0 1-6.046-.545L-.35 12.422 6.476.63A1.83 1.83 0 0 1 8.06-.282h37.91a1.83 1.83 0 0 1 1.577.9l6.962 11.805-2.645 2.656a4.666 4.666 0 0 1-6.044.487l-2.49-1.804z"/>
            <path fill="#F1F1F1" d="M15.473 0l-4.9 11.991v1.676l.075.116a6.516 6.516 0 0 0 11.014-.116v-1.676L23.725 0h-8.252z" mask="url(#d)"/>
            <path fill="#F1F1F1" d="M35.329 0l-4.9 11.991v1.676l.075.116a6.516 6.516 0 0 0 11.014-.116v-1.676L43.58 0h-8.252z" mask="url(#d)" transform="matrix(-1 0 0 1 74.01 0)"/>
            <path fill="#C3C2C2" d="M0 12.12h55.959v5.415H0z" mask="url(#d)" opacity=".567"/>
        </g>
    </g>
</svg>
