<?xml version="1.0" encoding="UTF-8"?>
<svg width="24px" height="24px" viewBox="0 0 24 24" version="1.1" xmlns="http://www.w3.org/2000/svg" xmlns:xlink="http://www.w3.org/1999/xlink">
    <!-- Generator: Sketch 62 (91390) - https://sketch.com -->
    <title>navigation-logo</title>
    <desc>Created with Sketch.</desc>
    <defs>
        <linearGradient x1="27.2737835%" y1="65.189809%" x2="64.6686999%" y2="28.1437155%" id="linearGradient-1">
            <stop stop-color="#FDA118" offset="0%"></stop>
            <stop stop-color="#E43121" offset="100%"></stop>
        </linearGradient>
    </defs>
    <g id="NOL-Web---Mobile---Navigation" stroke="none" stroke-width="1" fill="none" fill-rule="evenodd">
        <g id="DESDE---EMAIL---LOGUEADO" transform="translate(-1231.000000, -333.000000)">
            <g id="N-Copy" transform="translate(1231.000000, 333.000000)">
                <rect id="Rectangle" fill="#FFFFFF" x="0" y="4.54747351e-13" width="24" height="24"></rect>
                <g id="Group" transform="translate(0.000000, 2.149254)" fill="url(#linearGradient-1)" fill-rule="nonzero">
                    <path d="M0.0107678369,16.6527434 L0.0107678369,12.387016 C3.72567156,12.387016 6.75143371,9.50559922 6.75143371,5.96791666 L6.75143371,0.0102541523 L11.2308711,0.0102541523 L11.2308711,5.94740836 C11.2416217,11.8538001 6.20227403,16.6527434 0.0107678369,16.6527434 Z" id="Shape"></path>
                </g>
                <path d="M23.8344412,0.909476409 C23.9448137,1.02069545 24,1.15213613 24,1.31390928 C24,1.49590407 23.9227392,1.63745557 23.779255,1.75878544 C23.6578452,1.85989365 23.514361,1.91044776 23.337765,1.91044776 C23.1611689,1.91044776 23.0066474,1.84978283 22.8742004,1.73856379 C22.7417534,1.61723393 22.6865672,1.47568243 22.6865672,1.30379846 C22.6865672,1.13191449 22.7638279,0.990362983 22.9073122,0.869033122 C23.0287219,0.767924904 23.1722062,0.717370796 23.337765,0.717370796 C23.5474727,0.707259974 23.7130315,0.778035726 23.8344412,0.909476409 Z M22.9735357,1.0004738 C22.8852377,1.0914712 22.8410887,1.20269024 22.8410887,1.3240201 C22.8410887,1.44534996 22.9073122,1.57679064 23.0066474,1.66778804 C23.1059827,1.74867461 23.2163552,1.7891179 23.3488022,1.7891179 C23.5033237,1.7891179 23.6247335,1.73856379 23.735106,1.63745557 C23.823404,1.54645818 23.867553,1.44534996 23.867553,1.3240201 C23.867553,1.1824686 23.8123667,1.07124956 23.7019942,0.980252161 C23.602659,0.899365587 23.4922865,0.8589223 23.3488022,0.8589223 C23.2053179,0.838700657 23.0728709,0.889254765 22.9735357,1.0004738 Z M23.55851,1.19257942 C23.4812492,1.11169284 23.4371002,1.0914712 23.3708767,1.0914712 C23.3046532,1.0914712 23.249467,1.11169284 23.2053179,1.15213613 C23.1611689,1.19257942 23.1390944,1.24313353 23.1390944,1.30379846 C23.1390944,1.36446339 23.1611689,1.4150175 23.2053179,1.45546078 C23.249467,1.49590407 23.3046532,1.51612571 23.3708767,1.51612571 C23.4039885,1.51612571 23.4371002,1.50601489 23.4591747,1.49590407 C23.4812492,1.48579325 23.514361,1.45546078 23.5695472,1.4150175 L23.6799197,1.51612571 C23.6688825,1.52623654 23.6688825,1.52623654 23.6578452,1.53634736 C23.5695472,1.61723393 23.4812492,1.6475664 23.381914,1.6475664 C23.2605042,1.6475664 23.1722062,1.60712311 23.0949454,1.52623654 C23.0287219,1.45546078 22.9956102,1.38468503 22.9956102,1.29368763 C22.9956102,1.19257942 23.0397592,1.10158202 23.1280572,1.03080627 C23.2053179,0.970141339 23.293616,0.939808874 23.3929512,0.939808874 C23.5033237,0.939808874 23.602659,0.980252161 23.690957,1.08136038 L23.55851,1.19257942 Z" id="Shape" fill="#FF5001" fill-rule="nonzero"></path>
                <path d="M19.847194,22.6865672 C19.0464765,22.6865672 18.2674,22.2877018 17.8670413,21.5717895 L7.07899616,3.14216222 C6.48386829,2.10920309 6.89504754,0.820561007 7.98791872,0.25805851 C9.08078989,-0.304443987 10.4441737,0.0841941022 11.0393016,1.11715323 L21.8165262,19.5570078 C22.4116541,20.5899669 22.0004748,21.878609 20.9076037,22.4411115 C20.572168,22.6047486 20.2150912,22.6865672 19.847194,22.6865672 Z" id="Shape" fill="#99252B" fill-rule="nonzero"></path>
                <path d="M19.8208955,22.6865672 C18.5665901,22.6865672 17.5522388,21.7357557 17.5522388,20.560021 L17.5522388,2.12654618 C17.5522388,0.950811513 18.5665901,0 19.8208955,0 C21.0752009,0 22.0895522,0.950811513 22.0895522,2.12654618 L22.0895522,20.560021 C22.0895522,21.7357557 21.0752009,22.6865672 19.8208955,22.6865672 Z" id="Shape" fill="#FF5001" fill-rule="nonzero"></path>
            </g>
        </g>
        <g id="-Connections" transform="translate(-518.000000, -9071.000000)"></g>
    </g>
</svg>