<svg xmlns="http://www.w3.org/2000/svg" xmlns:xlink="http://www.w3.org/1999/xlink" width="44" height="61" viewBox="0 0 44 61">
  <defs>
    <clipPath id="clip-hero-icon">
      <rect width="44" height="61"/>
    </clipPath>
  </defs>
  <g id="hero-icon" clip-path="url(#clip-hero-icon)">
    <g id="Group_38" data-name="Group 38" transform="translate(123.668 -322.377)">
      <g id="Group_823" data-name="Group 823">
        <g id="Rectangle_30-2" data-name="Rectangle 30-2">
          <g id="Group_821" data-name="Group 821">
            <path id="Path_599" data-name="Path 599" d="M-101.667,376.1h0a15,15,0,0,1-15-15V344.377a15,15,0,0,1,15-15h0a15,15,0,0,1,15,15V361.1A15,15,0,0,1-101.667,376.1Z" fill="none"/>
          </g>
          <g id="Group_822" data-name="Group 822">
            <path id="Path_600" data-name="Path 600" d="M-101.667,376.1a15.017,15.017,0,0,1-15-15V344.377a15.017,15.017,0,0,1,15-15,15.017,15.017,0,0,1,15,15V361.1A15.017,15.017,0,0,1-101.667,376.1Zm0-43.721a12.015,12.015,0,0,0-12,12V361.1a12.014,12.014,0,0,0,12,12,12.013,12.013,0,0,0,12-12V344.377A12.014,12.014,0,0,0-101.667,332.377Z" fill="#fff"/>
          </g>
        </g>
      </g>
      <g id="Path_51" data-name="Path 51">
        <path id="Path_601" data-name="Path 601" d="M-101.667,348.473a1.5,1.5,0,0,1-1.5-1.5v-8.736a1.5,1.5,0,0,1,1.5-1.5,1.5,1.5,0,0,1,1.5,1.5v8.736A1.5,1.5,0,0,1-101.667,348.473Z" fill="#fff"/>
      </g>
    </g>
  </g>
</svg>
