<?xml version="1.0" encoding="UTF-8"?>
<svg width="97px" height="56px" viewBox="0 0 97 56" version="1.1" xmlns="http://www.w3.org/2000/svg" xmlns:xlink="http://www.w3.org/1999/xlink">
    <title>15%_dark</title>
    <defs>
        <path d="M52,0 C63.045695,-2.02906125e-15 72,8.954305 72,20 C72,31.045695 63.045695,40 52,40 L42.606,40 L36.5,46.1066017 L30.393,40 L20,40 C8.954305,40 1.3527075e-15,31.045695 0,20 C-1.3527075e-15,8.954305 8.954305,2.02906125e-15 20,0 L52,0 Z" id="path-1"></path>
        <filter x="-6.2%" y="-9.8%" width="112.5%" height="119.5%" filterUnits="objectBoundingBox" id="filter-2">
            <feOffset dx="0" dy="0" in="SourceAlpha" result="shadowOffsetOuter1"></feOffset>
            <feGaussianBlur stdDeviation="1.5" in="shadowOffsetOuter1" result="shadowBlurOuter1"></feGaussianBlur>
            <feColorMatrix values="0 0 0 0 0   0 0 0 0 0   0 0 0 0 0  0 0 0 0.3 0" type="matrix" in="shadowBlurOuter1"></feColorMatrix>
        </filter>
    </defs>
    <g id="Icons-old" stroke="none" stroke-width="1" fill="none" fill-rule="evenodd">
        <g id="Group-9-Copy-8" transform="translate(1.000000, 0.000000)">
            <g id="Group-3-Copy-4" transform="translate(11.000000, 6.000000)">
                <g id="Combined-Shape">
                    <use fill="black" fill-opacity="1" filter="url(#filter-2)" xlink:href="#path-1"></use>
                    <use fill="#FF5500" fill-rule="evenodd" xlink:href="#path-1"></use>
                </g>
                <path d="M29.3920573,24 L29.3920573,14.0332031 L29.1801433,14.0332031 L25.0580729,15.5097656 L25.0580729,17.1162109 L27.4164714,16.3847656 L27.4164714,24 L29.3920573,24 Z M35.9588108,24.1367188 C36.6469618,24.1367188 37.243967,23.996582 37.7498264,23.7163086 C38.2556858,23.4360352 38.6441949,23.0418294 38.9153537,22.5336914 C39.1865126,22.0255534 39.322092,21.4501953 39.322092,20.8076172 C39.322092,19.7503255 39.0532118,18.9277344 38.5154514,18.3398438 C37.977691,17.7519531 37.2348524,17.4580078 36.2869358,17.4580078 C35.7582899,17.4580078 35.2592665,17.5833333 34.7898655,17.8339844 L34.7898655,17.8339844 L35.0359592,15.6943359 L38.993967,15.6943359 L38.993967,14.046875 L33.415842,14.046875 L32.8416233,19.1054688 L34.4138889,19.4951172 L34.6052952,19.3173828 C34.8969618,19.0712891 35.2774957,18.9482422 35.7468967,18.9482422 C36.2573134,18.9482422 36.6515191,19.0986328 36.9295139,19.3994141 C37.2075087,19.7001953 37.3465061,20.133138 37.3465061,20.6982422 C37.3465061,21.2861328 37.2257379,21.7407227 36.9842014,22.0620117 C36.7426649,22.3833008 36.3985894,22.5439453 35.9519748,22.5439453 C35.5509332,22.5439453 35.2262261,22.4288737 34.9778537,22.1987305 C34.7294813,21.9685872 34.5847873,21.6461589 34.5437717,21.2314453 L34.5437717,21.2314453 L32.5886936,21.2314453 C32.6069228,21.7965495 32.7652886,22.3001302 33.0637912,22.7421875 C33.3622938,23.1842448 33.7690321,23.527181 34.2840061,23.7709961 C34.79898,24.0148112 35.3572483,24.1367188 35.9588108,24.1367188 Z M42.6417752,18.53125 C43.2843533,18.53125 43.8038845,18.344401 44.2003689,17.9707031 C44.5968533,17.5970052 44.7950955,17.1025391 44.7950955,16.4873047 L44.7950955,16.4873047 L44.7950955,15.9951172 C44.7950955,15.3525391 44.5968533,14.8432617 44.2003689,14.4672852 C43.8038845,14.0913086 43.279796,13.9033203 42.6281033,13.9033203 C41.9855252,13.9033203 41.4659939,14.0935872 41.0695095,14.4741211 C40.6730252,14.8546549 40.474783,15.3502604 40.474783,15.9609375 L40.474783,15.9609375 L40.474783,16.4462891 C40.474783,17.0843099 40.6741645,17.5913086 41.0729275,17.9672852 C41.4716905,18.3432617 41.9946397,18.53125 42.6417752,18.53125 Z M43.0314236,23.2548828 L47.8917752,15.4755859 L46.927908,14.9560547 L42.0675564,22.7353516 L43.0314236,23.2548828 Z M42.6417752,17.3964844 C42.3865668,17.3964844 42.1803494,17.3133138 42.0231228,17.1469727 C41.8658963,16.9806315 41.787283,16.7607422 41.787283,16.4873047 L41.787283,16.4873047 L41.787283,15.9882812 C41.787283,15.6920573 41.8647569,15.4607747 42.0197048,15.2944336 C42.1746528,15.1280924 42.3774522,15.0449219 42.6281033,15.0449219 C42.8924262,15.0449219 43.099783,15.1292318 43.2501736,15.2978516 C43.4005642,15.4664714 43.4757595,15.6875 43.4757595,15.9609375 L43.4757595,15.9609375 L43.4757595,16.4667969 C43.4757595,16.749349 43.4005642,16.9749349 43.2501736,17.1435547 C43.099783,17.3121745 42.8969835,17.3964844 42.6417752,17.3964844 Z M47.4064236,24.1367188 C48.0581163,24.1367188 48.5799262,23.9487305 48.9718533,23.5727539 C49.3637804,23.1967773 49.5597439,22.7034505 49.5597439,22.0927734 L49.5597439,22.0927734 L49.5597439,21.6005859 C49.5597439,20.9488932 49.3603624,20.4373372 48.9615994,20.065918 C48.5628364,19.6944987 48.0398871,19.5087891 47.3927517,19.5087891 C46.7547309,19.5087891 46.2351996,19.6967773 45.834158,20.0727539 C45.4331163,20.4487305 45.2325955,20.9443359 45.2325955,21.5595703 L45.2325955,21.5595703 L45.2325955,22.0654297 C45.2325955,22.6897786 45.4308377,23.1910807 45.827322,23.5693359 C46.2238064,23.9475911 46.7501736,24.1367188 47.4064236,24.1367188 Z M47.4064236,23.0019531 C47.1603298,23.0019531 46.9552517,22.9130859 46.7911892,22.7353516 C46.6271267,22.5576172 46.5450955,22.3434245 46.5450955,22.0927734 L46.5450955,22.0927734 L46.5450955,21.5800781 C46.5450955,21.2929688 46.6225694,21.0662435 46.7775173,20.8999023 C46.9324653,20.7335612 47.1375434,20.6503906 47.3927517,20.6503906 C47.6479601,20.6503906 47.8530382,20.7335612 48.0079861,20.8999023 C48.162934,21.0662435 48.240408,21.2861328 48.240408,21.5595703 L48.240408,21.5595703 L48.240408,22.0791016 C48.240408,22.6943359 47.9624132,23.0019531 47.4064236,23.0019531 Z" id="15%" fill="#FFFFFF" fill-rule="nonzero"></path>
            </g>
        </g>
    </g>
</svg>