<?xml version="1.0" encoding="UTF-8"?>
<svg width="97px" height="56px" viewBox="0 0 97 56" version="1.1" xmlns="http://www.w3.org/2000/svg" xmlns:xlink="http://www.w3.org/1999/xlink">
    <title>2x1_dark</title>
    <defs>
        <path d="M52,0 C63.045695,-2.02906125e-15 72,8.954305 72,20 C72,31.045695 63.045695,40 52,40 L42.606,40 L36.5,46.1066017 L30.393,40 L20,40 C8.954305,40 1.3527075e-15,31.045695 0,20 C-1.3527075e-15,8.954305 8.954305,2.02906125e-15 20,0 L52,0 Z" id="path-1"></path>
        <filter x="-6.2%" y="-9.8%" width="112.5%" height="119.5%" filterUnits="objectBoundingBox" id="filter-2">
            <feOffset dx="0" dy="0" in="SourceAlpha" result="shadowOffsetOuter1"></feOffset>
            <feGaussianBlur stdDeviation="1.5" in="shadowOffsetOuter1" result="shadowBlurOuter1"></feGaussianBlur>
            <feColorMatrix values="0 0 0 0 0   0 0 0 0 0   0 0 0 0 0  0 0 0 0.3 0" type="matrix" in="shadowBlurOuter1"></feColorMatrix>
        </filter>
    </defs>
    <g id="Icons-old" stroke="none" stroke-width="1" fill="none" fill-rule="evenodd">
        <g id="Group-6-Copy-3" transform="translate(1.000000, 0.000000)">
            <g id="Group-3-Copy-4" transform="translate(12.000000, 6.000000)">
                <g id="Combined-Shape">
                    <use fill="black" fill-opacity="1" filter="url(#filter-2)" xlink:href="#path-1"></use>
                    <use fill="#FF5500" fill-rule="evenodd" xlink:href="#path-1"></use>
                </g>
                <path d="M33.0219401,24 L33.0219401,22.4072266 L28.7426433,22.4072266 L31.0053386,20.0214844 C31.6251302,19.3424479 32.0626302,18.7477214 32.3178386,18.2373047 C32.5730469,17.726888 32.7006511,17.2255859 32.7006511,16.7333984 C32.7006511,15.835612 32.4169597,15.140625 31.8495769,14.6484375 C31.282194,14.15625 30.4858073,13.9101562 29.4604167,13.9101562 C28.7904948,13.9101562 28.191211,14.0525716 27.6625651,14.3374023 C27.1339193,14.6222331 26.7249024,15.0152995 26.4355144,15.5166016 C26.1461263,16.0179036 26.0014323,16.5716146 26.0014323,17.1777344 L26.0014323,17.1777344 L27.9838542,17.1777344 C27.9838542,16.6764323 28.1125977,16.2719727 28.3700847,15.9643555 C28.6275716,15.6567383 28.9796224,15.5029297 29.426237,15.5029297 C29.8409506,15.5029297 30.159961,15.6293945 30.3832683,15.8823242 C30.6065756,16.1352539 30.7182292,16.4827474 30.7182292,16.9248047 C30.7182292,17.2483724 30.6122722,17.5901693 30.4003581,17.9501953 C30.188444,18.3102214 29.8614584,18.7317708 29.4194011,19.2148438 L29.4194011,19.2148438 L26.1996745,22.6464844 L26.1996745,24 L33.0219401,24 Z M35.7468967,24 L37.0593967,21.6757812 L38.3787327,24 L40.4978733,24 L38.3035373,20.2265625 L40.4090061,16.6035156 L38.2967014,16.6035156 L37.0525608,18.8115234 L35.8357639,16.6035156 L33.7166233,16.6035156 L35.8152561,20.2265625 L33.6209202,24 L35.7468967,24 Z M45.9982205,24 L45.9982205,14.0332031 L45.7863064,14.0332031 L41.6642361,15.5097656 L41.6642361,17.1162109 L44.0226345,16.3847656 L44.0226345,24 L45.9982205,24 Z" id="2x1" fill="#FFFFFF" fill-rule="nonzero"></path>
            </g>
        </g>
    </g>
</svg>