<?xml version="1.0" encoding="UTF-8"?>
<svg width="97px" height="56px" viewBox="0 0 97 56" version="1.1" xmlns="http://www.w3.org/2000/svg" xmlns:xlink="http://www.w3.org/1999/xlink">
    <title>30%_dark</title>
    <defs>
        <path d="M52,0 C63.045695,-2.02906125e-15 72,8.954305 72,20 C72,31.045695 63.045695,40 52,40 L42.606,40 L36.5,46.1066017 L30.393,40 L20,40 C8.954305,40 1.3527075e-15,31.045695 0,20 C-1.3527075e-15,8.954305 8.954305,2.02906125e-15 20,0 L52,0 Z" id="path-1"></path>
        <filter x="-6.2%" y="-9.8%" width="112.5%" height="119.5%" filterUnits="objectBoundingBox" id="filter-2">
            <feOffset dx="0" dy="0" in="SourceAlpha" result="shadowOffsetOuter1"></feOffset>
            <feGaussianBlur stdDeviation="1.5" in="shadowOffsetOuter1" result="shadowBlurOuter1"></feGaussianBlur>
            <feColorMatrix values="0 0 0 0 0   0 0 0 0 0   0 0 0 0 0  0 0 0 0.3 0" type="matrix" in="shadowBlurOuter1"></feColorMatrix>
        </filter>
    </defs>
    <g id="Icons-old" stroke="none" stroke-width="1" fill="none" fill-rule="evenodd">
        <g id="Group-9-Copy-7" transform="translate(1.000000, 0.000000)">
            <g id="Group-3-Copy-4" transform="translate(11.000000, 6.000000)">
                <g id="Combined-Shape">
                    <use fill="black" fill-opacity="1" filter="url(#filter-2)" xlink:href="#path-1"></use>
                    <use fill="#FF5500" fill-rule="evenodd" xlink:href="#path-1"></use>
                </g>
                <path d="M27.7377604,24.1367188 C28.7996094,24.1367188 29.6529623,23.8701172 30.297819,23.3369141 C30.9426758,22.8037109 31.2651042,22.0950521 31.2651042,21.2109375 C31.2651042,20.6640625 31.1272461,20.1901042 30.85153,19.7890625 C30.5758138,19.3880208 30.1576823,19.0872396 29.5971354,18.8867188 C30.0483073,18.6816406 30.4128907,18.3876953 30.6908854,18.0048828 C30.9688802,17.6220703 31.1078776,17.2027995 31.1078776,16.7470703 C31.1078776,15.8629557 30.809375,15.1691081 30.2123698,14.6655273 C29.6153646,14.1619466 28.7904948,13.9101562 27.7377604,13.9101562 C27.1316407,13.9101562 26.5767904,14.0263672 26.0732097,14.2587891 C25.5696289,14.4912109 25.1777019,14.8136393 24.8974284,15.2260742 C24.617155,15.6385091 24.4770183,16.1044922 24.4770183,16.6240234 L24.4770183,16.6240234 L26.4526042,16.6240234 C26.4526042,16.2913411 26.5802084,16.0213216 26.8354167,15.8139648 C27.090625,15.6066081 27.4073568,15.5029297 27.785612,15.5029297 C28.2048828,15.5029297 28.5341472,15.6145833 28.773405,15.8378906 C29.0126628,16.0611979 29.1322917,16.3733724 29.1322917,16.7744141 C29.1322917,17.1891276 29.0115235,17.5218099 28.769987,17.7724609 C28.5284506,18.023112 28.1570313,18.1484375 27.6557292,18.1484375 L27.6557292,18.1484375 L26.6029948,18.1484375 L26.6029948,19.6933594 L27.6488933,19.6933594 C28.7426433,19.6933594 29.2895183,20.1901042 29.2895183,21.1835938 C29.2895183,21.59375 29.1562175,21.9230143 28.8896159,22.1713867 C28.6230144,22.4197591 28.2550131,22.5439453 27.785612,22.5439453 C27.3754558,22.5439453 27.0302409,22.4254557 26.7499675,22.1884766 C26.469694,21.9514974 26.3295573,21.6461589 26.3295573,21.2724609 L26.3295573,21.2724609 L24.3539714,21.2724609 C24.3539714,22.1337891 24.6695638,22.8264974 25.3007487,23.3505859 C25.9319336,23.8746745 26.7442709,24.1367188 27.7377604,24.1367188 Z M35.8904514,24.1367188 C36.9887587,24.1367188 37.8227431,23.7721354 38.3924045,23.0429688 C38.962066,22.3138021 39.2468967,21.2610677 39.2468967,19.8847656 L39.2468967,19.8847656 L39.2468967,18.0527344 C39.2332248,16.7174479 38.9392795,15.6931966 38.3650608,14.9799805 C37.790842,14.2667643 36.9614149,13.9101562 35.8767795,13.9101562 C34.7921441,13.9101562 33.9615777,14.2701823 33.3850803,14.9902344 C32.8085829,15.7102865 32.5203342,16.7652995 32.5203342,18.1552734 L32.5203342,18.1552734 L32.5203342,19.9873047 C32.5340061,21.3225911 32.8279514,22.3479818 33.4021702,23.0634766 C33.9763889,23.7789714 34.805816,24.1367188 35.8904514,24.1367188 Z M35.8904514,22.5439453 C35.4028212,22.5439453 35.0484918,22.3468424 34.8274631,21.9526367 C34.6064345,21.558431 34.4959202,20.9557292 34.4959202,20.1445312 L34.4959202,20.1445312 L34.4959202,17.7246094 C34.509592,16.9635417 34.6269423,16.4041341 34.8479709,16.0463867 C35.0689996,15.6886393 35.4119358,15.5097656 35.8767795,15.5097656 C36.3552952,15.5097656 36.7073459,15.6977539 36.9329319,16.0737305 C37.1585178,16.449707 37.2713108,17.0501302 37.2713108,17.875 L37.2713108,17.875 L37.2713108,20.2402344 C37.2621962,21.0195312 37.1505425,21.5983073 36.9363498,21.9765625 C36.7221571,22.3548177 36.3735243,22.5439453 35.8904514,22.5439453 Z M42.6417752,18.53125 C43.2843533,18.53125 43.8038845,18.344401 44.2003689,17.9707031 C44.5968533,17.5970052 44.7950955,17.1025391 44.7950955,16.4873047 L44.7950955,16.4873047 L44.7950955,15.9951172 C44.7950955,15.3525391 44.5968533,14.8432617 44.2003689,14.4672852 C43.8038845,14.0913086 43.279796,13.9033203 42.6281033,13.9033203 C41.9855252,13.9033203 41.4659939,14.0935872 41.0695095,14.4741211 C40.6730252,14.8546549 40.474783,15.3502604 40.474783,15.9609375 L40.474783,15.9609375 L40.474783,16.4462891 C40.474783,17.0843099 40.6741645,17.5913086 41.0729275,17.9672852 C41.4716905,18.3432617 41.9946397,18.53125 42.6417752,18.53125 Z M43.0314236,23.2548828 L47.8917752,15.4755859 L46.927908,14.9560547 L42.0675564,22.7353516 L43.0314236,23.2548828 Z M42.6417752,17.3964844 C42.3865668,17.3964844 42.1803494,17.3133138 42.0231228,17.1469727 C41.8658963,16.9806315 41.787283,16.7607422 41.787283,16.4873047 L41.787283,16.4873047 L41.787283,15.9882812 C41.787283,15.6920573 41.8647569,15.4607747 42.0197048,15.2944336 C42.1746528,15.1280924 42.3774522,15.0449219 42.6281033,15.0449219 C42.8924262,15.0449219 43.099783,15.1292318 43.2501736,15.2978516 C43.4005642,15.4664714 43.4757595,15.6875 43.4757595,15.9609375 L43.4757595,15.9609375 L43.4757595,16.4667969 C43.4757595,16.749349 43.4005642,16.9749349 43.2501736,17.1435547 C43.099783,17.3121745 42.8969835,17.3964844 42.6417752,17.3964844 Z M47.4064236,24.1367188 C48.0581163,24.1367188 48.5799262,23.9487305 48.9718533,23.5727539 C49.3637804,23.1967773 49.5597439,22.7034505 49.5597439,22.0927734 L49.5597439,22.0927734 L49.5597439,21.6005859 C49.5597439,20.9488932 49.3603624,20.4373372 48.9615994,20.065918 C48.5628364,19.6944987 48.0398871,19.5087891 47.3927517,19.5087891 C46.7547309,19.5087891 46.2351996,19.6967773 45.834158,20.0727539 C45.4331163,20.4487305 45.2325955,20.9443359 45.2325955,21.5595703 L45.2325955,21.5595703 L45.2325955,22.0654297 C45.2325955,22.6897786 45.4308377,23.1910807 45.827322,23.5693359 C46.2238064,23.9475911 46.7501736,24.1367188 47.4064236,24.1367188 Z M47.4064236,23.0019531 C47.1603298,23.0019531 46.9552517,22.9130859 46.7911892,22.7353516 C46.6271267,22.5576172 46.5450955,22.3434245 46.5450955,22.0927734 L46.5450955,22.0927734 L46.5450955,21.5800781 C46.5450955,21.2929688 46.6225694,21.0662435 46.7775173,20.8999023 C46.9324653,20.7335612 47.1375434,20.6503906 47.3927517,20.6503906 C47.6479601,20.6503906 47.8530382,20.7335612 48.0079861,20.8999023 C48.162934,21.0662435 48.240408,21.2861328 48.240408,21.5595703 L48.240408,21.5595703 L48.240408,22.0791016 C48.240408,22.6943359 47.9624132,23.0019531 47.4064236,23.0019531 Z" id="30%" fill="#FFFFFF" fill-rule="nonzero"></path>
            </g>
        </g>
    </g>
</svg>