<?xml version="1.0" encoding="UTF-8"?>
<svg width="96px" height="56px" viewBox="0 0 96 56" version="1.1" xmlns="http://www.w3.org/2000/svg" xmlns:xlink="http://www.w3.org/1999/xlink">
    <title>7_cuotas_fijas_dark</title>
    <defs>
        <path d="M62,0 C73.045695,-2.02906125e-15 82,8.954305 82,20 C82,31.045695 73.045695,40 62,40 L48.523,40 L41.5694444,46.1066017 L34.615,40 L20,40 C8.954305,40 1.3527075e-15,31.045695 0,20 C-1.3527075e-15,8.954305 8.954305,2.02906125e-15 20,0 L62,0 Z" id="path-1"></path>
        <filter x="-5.5%" y="-9.8%" width="111.0%" height="119.5%" filterUnits="objectBoundingBox" id="filter-2">
            <feOffset dx="0" dy="0" in="SourceAlpha" result="shadowOffsetOuter1"></feOffset>
            <feGaussianBlur stdDeviation="1.5" in="shadowOffsetOuter1" result="shadowBlurOuter1"></feGaussianBlur>
            <feColorMatrix values="0 0 0 0 0   0 0 0 0 0   0 0 0 0 0  0 0 0 0.3 0" type="matrix" in="shadowBlurOuter1"></feColorMatrix>
        </filter>
    </defs>
    <g id="Icons-old" stroke="none" stroke-width="1" fill="none" fill-rule="evenodd">
        <g id="Group-3-Copy-4" transform="translate(6.000000, 6.000000)">
            <g id="Combined-Shape">
                <use fill="black" fill-opacity="1" filter="url(#filter-2)" xlink:href="#path-1"></use>
                <use fill="#FF5500" fill-rule="evenodd" xlink:href="#path-1"></use>
            </g>
            <path d="M21.5401042,18 L24.9502605,10.2597656 L24.9502605,9.46875 L19.0381511,9.46875 L19.0381511,10.6113281 L23.4502605,10.6113281 L20.0459636,18 L21.5401042,18 Z M31.6606771,18.1171875 C32.1177084,18.1171875 32.5434896,18.0175781 32.9380209,17.8183594 C33.3325521,17.6191406 33.6450521,17.3486328 33.8755209,17.0068359 C34.1059896,16.6650391 34.2290365,16.296875 34.2446615,15.9023438 L34.2446615,15.9023438 L32.9028646,15.9023438 C32.8872396,16.2070312 32.7622396,16.4628906 32.5278646,16.6699219 C32.2934896,16.8769531 31.9985677,16.9804688 31.643099,16.9804688 C31.174349,16.9804688 30.8159506,16.8115234 30.5679037,16.4736328 C30.3198568,16.1357422 30.1958334,15.6230469 30.1958334,14.9355469 L30.1958334,14.9355469 L30.1958334,14.7070312 C30.1997396,14.0273438 30.3266927,13.5205078 30.5766927,13.1865234 C30.8266927,12.8525391 31.1821615,12.6855469 31.643099,12.6855469 C32.002474,12.6855469 32.2983724,12.8027344 32.5307943,13.0371094 C32.7632162,13.2714844 32.8872396,13.5703125 32.9028646,13.9335938 L32.9028646,13.9335938 L34.2446615,13.9335938 C34.221224,13.21875 33.9722006,12.6416016 33.4975912,12.2021484 C33.0229818,11.7626953 32.408724,11.5429688 31.6548177,11.5429688 C30.7641927,11.5429688 30.0610677,11.8330078 29.5454427,12.4130859 C29.0298177,12.9931641 28.7720052,13.765625 28.7720052,14.7304688 L28.7720052,14.7304688 L28.7720052,14.8769531 C28.7720052,15.8886719 29.0317709,16.6816406 29.5513021,17.2558594 C30.0708334,17.8300781 30.7739584,18.1171875 31.6606771,18.1171875 Z M37.3127604,18.1171875 C38.0822917,18.1171875 38.6760417,17.8710938 39.0940104,17.3789062 L39.0940104,17.3789062 L39.1291667,18 L40.4709636,18 L40.4709636,11.6601562 L39.0471354,11.6601562 L39.0471354,16.2128906 C38.8049479,16.7089844 38.3381511,16.9570312 37.6467448,16.9570312 C36.9787761,16.9570312 36.6447917,16.5546875 36.6447917,15.75 L36.6447917,15.75 L36.6447917,11.6601562 L35.2209636,11.6601562 L35.2209636,15.7675781 C35.2209636,16.5292969 35.3977214,17.1113281 35.751237,17.5136719 C36.1047526,17.9160156 36.6252604,18.1171875 37.3127604,18.1171875 Z M44.5410156,18.1171875 C45.1269531,18.1171875 45.6435547,17.9824219 46.0908203,17.7128906 C46.5380859,17.4433594 46.8818359,17.0625 47.1220703,16.5703125 C47.3623047,16.078125 47.4824219,15.5195312 47.4824219,14.8945312 L47.4824219,14.8945312 L47.4765625,14.5605469 C47.4335938,13.6503906 47.1455078,12.9199219 46.6123047,12.3691406 C46.0791016,11.8183594 45.3847656,11.5429688 44.5292969,11.5429688 C43.9511719,11.5429688 43.4394531,11.6767578 42.9941406,11.9443359 C42.5488281,12.2119141 42.203125,12.5947266 41.9570313,13.0927734 C41.7109375,13.5908203 41.5878906,14.1503906 41.5878906,14.7714844 L41.5878906,14.7714844 L41.5878906,14.8417969 C41.5878906,15.8339844 41.8564453,16.6279297 42.3935547,17.2236328 C42.9306641,17.8193359 43.6464844,18.1171875 44.5410156,18.1171875 Z M44.5410156,16.9804688 C44.0605469,16.9804688 43.6855469,16.7958984 43.4160156,16.4267578 C43.1464844,16.0576172 43.0117188,15.546875 43.0117188,14.8945312 C43.0117188,14.1601562 43.1484375,13.6083984 43.421875,13.2392578 C43.6953125,12.8701172 44.0644531,12.6855469 44.5292969,12.6855469 C45.0019531,12.6855469 45.3759766,12.8730469 45.6513672,13.2480469 C45.9267578,13.6230469 46.0644531,14.1308594 46.0644531,14.7714844 C46.0644531,15.4941406 45.9306641,16.0429688 45.6630859,16.4179688 C45.3955078,16.7929688 45.0214844,16.9804688 44.5410156,16.9804688 Z M50.6208333,18.1171875 C50.9216146,18.1171875 51.2341146,18.0722656 51.5583333,17.9824219 L51.5583333,17.9824219 L51.5583333,16.8808594 C51.3903646,16.9199219 51.2243489,16.9394531 51.0602864,16.9394531 C50.8141927,16.9394531 50.6432943,16.8857422 50.5475911,16.7783203 C50.451888,16.6708984 50.4040364,16.4960938 50.4040364,16.2539062 L50.4040364,16.2539062 L50.4040364,12.7148438 L51.5231771,12.7148438 L51.5231771,11.6601562 L50.4040364,11.6601562 L50.4040364,10.1191406 L48.9802083,10.1191406 L48.9802083,11.6601562 L47.9372396,11.6601562 L47.9372396,12.7148438 L48.9802083,12.7148438 L48.9802083,16.3066406 C48.9802083,17.5136719 49.5270833,18.1171875 50.6208333,18.1171875 Z M54.5033854,18.1171875 C55.1596354,18.1171875 55.7143229,17.8808594 56.1674479,17.4082031 C56.2143229,17.6816406 56.2690104,17.8789062 56.3315104,18 L56.3315104,18 L57.7846354,18 L57.7846354,17.9003906 C57.6244791,17.5605469 57.544401,17.1054688 57.544401,16.5351562 L57.544401,16.5351562 L57.544401,13.6757812 C57.5326823,13 57.3061198,12.4755859 56.8647135,12.1025391 C56.4233073,11.7294922 55.8315104,11.5429688 55.0893229,11.5429688 C54.6010416,11.5429688 54.1586588,11.6289062 53.7621744,11.8007812 C53.3656901,11.9726562 53.0522135,12.2099609 52.8217448,12.5126953 C52.591276,12.8154297 52.4760416,13.140625 52.4760416,13.4882812 L52.4760416,13.4882812 L53.8998698,13.4882812 C53.8998698,13.2382812 54.0033854,13.0322266 54.2104166,12.8701172 C54.4174479,12.7080078 54.6830729,12.6269531 55.0072916,12.6269531 C55.3822916,12.6269531 55.6615885,12.7255859 55.8451823,12.9228516 C56.028776,13.1201172 56.1205729,13.3828125 56.1205729,13.7109375 L56.1205729,13.7109375 L56.1205729,14.1269531 L55.247526,14.1269531 C54.3139323,14.1269531 53.5961588,14.3076172 53.0942057,14.6689453 C52.5922526,15.0302734 52.341276,15.5488281 52.341276,16.2246094 C52.341276,16.7597656 52.5424479,17.2089844 52.9447916,17.5722656 C53.3471354,17.9355469 53.8666666,18.1171875 54.5033854,18.1171875 Z M54.7670573,16.9746094 C54.4623698,16.9746094 54.2192057,16.8935547 54.0375651,16.7314453 C53.8559244,16.5693359 53.7651041,16.3515625 53.7651041,16.078125 C53.7651041,15.7421875 53.8979166,15.4824219 54.1635416,15.2988281 C54.4291666,15.1152344 54.825651,15.0234375 55.3529948,15.0234375 L55.3529948,15.0234375 L56.1205729,15.0234375 L56.1205729,16.21875 C55.9955729,16.4492188 55.8090494,16.6328125 55.5610026,16.7695312 C55.3129557,16.90625 55.0483073,16.9746094 54.7670573,16.9746094 Z M61.3566406,18.1171875 C62.1222656,18.1171875 62.7414062,17.9404297 63.2140624,17.5869141 C63.6867187,17.2333984 63.9230468,16.7714844 63.9230468,16.2011719 C63.9230468,15.8613281 63.8458984,15.5722656 63.6916015,15.3339844 C63.5373046,15.0957031 63.3009765,14.8916016 62.9826171,14.7216797 C62.6642578,14.5517578 62.2257812,14.4052734 61.6671874,14.2822266 C61.1085937,14.1591797 60.7374999,14.0371094 60.5539062,13.9160156 C60.3703124,13.7949219 60.2785156,13.625 60.2785156,13.40625 C60.2785156,13.1640625 60.3771484,12.9707031 60.574414,12.8261719 C60.7716796,12.6816406 61.0265624,12.609375 61.3390624,12.609375 C61.6749999,12.609375 61.9445312,12.7001953 62.1476562,12.8818359 C62.3507812,13.0634766 62.4523437,13.2910156 62.4523437,13.5644531 L62.4523437,13.5644531 L63.8761718,13.5644531 C63.8761718,12.9667969 63.6427734,12.4804688 63.1759765,12.1054688 C62.7091796,11.7304688 62.0968749,11.5429688 61.3390624,11.5429688 C60.6281249,11.5429688 60.0421874,11.7265625 59.5812499,12.09375 C59.1203124,12.4609375 58.8898437,12.9179688 58.8898437,13.4648438 C58.8898437,14.1171875 59.2453124,14.6152344 59.9562499,14.9589844 C60.2804687,15.1152344 60.6847656,15.2441406 61.1691406,15.3457031 C61.6535156,15.4472656 62.0001953,15.5644531 62.2091796,15.6972656 C62.418164,15.8300781 62.5226562,16.0234375 62.5226562,16.2773438 C62.5226562,16.5078125 62.4249999,16.6943359 62.2296874,16.8369141 C62.0343749,16.9794922 61.7492187,17.0507812 61.3742187,17.0507812 C60.9874999,17.0507812 60.6769531,16.9599609 60.4425781,16.7783203 C60.2082031,16.5966797 60.0812499,16.3378906 60.0617187,16.0019531 L60.0617187,16.0019531 L58.6789062,16.0019531 C58.6789062,16.3808594 58.7921874,16.734375 59.0187499,17.0625 C59.2453124,17.390625 59.5617187,17.6484375 59.9679687,17.8359375 C60.3742187,18.0234375 60.8371093,18.1171875 61.3566406,18.1171875 Z M32.7944662,30 L32.7944662,24.4980469 L34.0893881,24.4980469 L34.0893881,23.6601562 L32.7944662,23.6601562 L32.7944662,23.109375 C32.7944662,22.6914062 32.8970052,22.3779297 33.1020834,22.1689453 C33.3071615,21.9599609 33.6421224,21.8554688 34.1069662,21.8554688 C34.5483724,21.8554688 35.0132162,21.953125 35.5014974,22.1484375 L35.5014974,22.1484375 L35.6831381,21.234375 C35.0151693,20.9960938 34.4624349,20.8769531 34.0249349,20.8769531 C33.2866537,20.8769531 32.7153646,21.0742188 32.3110677,21.46875 C31.9067709,21.8632812 31.7046224,22.4140625 31.7046224,23.1210938 L31.7046224,23.1210938 L31.7046224,23.6601562 L30.7026693,23.6601562 L30.7026693,24.4980469 L31.7046224,24.4980469 L31.7046224,30 L32.7944662,30 Z M36.2222006,30 L36.2222006,23.6601562 L35.1323568,23.6601562 L35.1323568,30 L36.2222006,30 Z M38.4758464,22.59375 C38.6867839,22.59375 38.8469401,22.5351562 38.9563151,22.4179688 C39.0656901,22.3007812 39.1203776,22.1542969 39.1203776,21.9785156 C39.1203776,21.8027344 39.0656901,21.6542969 38.9563151,21.5332031 C38.8469401,21.4121094 38.6867839,21.3515625 38.4758464,21.3515625 C38.2688151,21.3515625 38.1115886,21.4130859 38.0041667,21.5361328 C37.8967448,21.6591797 37.8430339,21.8066406 37.8430339,21.9785156 C37.8430339,22.1542969 37.8957682,22.3007812 38.001237,22.4179688 C38.1067057,22.5351562 38.2649089,22.59375 38.4758464,22.59375 Z M37.3801432,32.5605469 C38.485612,32.5605469 39.0383464,31.9511719 39.0383464,30.7324219 L39.0383464,30.7324219 L39.0383464,23.6601562 L37.954362,23.6601562 L37.954362,30.7558594 C37.954362,31.0800781 37.8908854,31.3076172 37.7639323,31.4384766 C37.6369792,31.5693359 37.4524089,31.6347656 37.2102214,31.6347656 C37.0070964,31.6347656 36.8430339,31.6191406 36.7180339,31.5878906 L36.7180339,31.5878906 L36.7180339,32.4550781 C36.9211589,32.5253906 37.141862,32.5605469 37.3801432,32.5605469 Z M42.6748047,30.1171875 C43.3740234,30.1171875 43.9755859,29.8554688 44.4794922,29.3320312 C44.5185547,29.6523438 44.5693359,29.875 44.6318359,30 L44.6318359,30 L45.7685547,30 L45.7685547,29.90625 C45.6201172,29.5625 45.5458984,29.0996094 45.5458984,28.5175781 L45.5458984,28.5175781 L45.5458984,25.5996094 C45.5302734,24.9589844 45.3154297,24.4560547 44.9013672,24.0908203 C44.4873047,23.7255859 43.9150391,23.5429688 43.1845703,23.5429688 C42.7236328,23.5429688 42.3007812,23.6289062 41.9160156,23.8007812 C41.53125,23.9726562 41.2265625,24.2060547 41.0019531,24.5009766 C40.7773438,24.7958984 40.6650391,25.1015625 40.6650391,25.4179688 L40.6650391,25.4179688 L41.7548828,25.4179688 C41.7548828,25.140625 41.8857422,24.9042969 42.1474609,24.7089844 C42.4091797,24.5136719 42.7333984,24.4160156 43.1201172,24.4160156 C43.5615234,24.4160156 43.8955078,24.5283203 44.1220703,24.7529297 C44.3486328,24.9775391 44.4619141,25.2792969 44.4619141,25.6582031 L44.4619141,25.6582031 L44.4619141,26.15625 L43.4072266,26.15625 C42.4970703,26.15625 41.7910156,26.3388672 41.2890625,26.7041016 C40.7871094,27.0693359 40.5361328,27.5820312 40.5361328,28.2421875 C40.5361328,28.7851562 40.7363281,29.2333984 41.1367188,29.5869141 C41.5371094,29.9404297 42.0498047,30.1171875 42.6748047,30.1171875 Z M42.8330078,29.1738281 C42.4775391,29.1738281 42.1865234,29.078125 41.9599609,28.8867188 C41.7333984,28.6953125 41.6201172,28.4296875 41.6201172,28.0898438 C41.6201172,27.3125 42.2841797,26.9238281 43.6123047,26.9238281 L43.6123047,26.9238281 L44.4619141,26.9238281 L44.4619141,28.2246094 C44.3251953,28.5058594 44.1044922,28.734375 43.7998047,28.9101562 C43.4951172,29.0859375 43.1728516,29.1738281 42.8330078,29.1738281 Z M49.5104818,30.1171875 C50.233138,30.1171875 50.8210286,29.9462891 51.2741536,29.6044922 C51.7272786,29.2626953 51.9538411,28.8085938 51.9538411,28.2421875 C51.9538411,27.9023438 51.8727864,27.6142578 51.7106771,27.3779297 C51.5485677,27.1416016 51.2995443,26.9394531 50.9636068,26.7714844 C50.6276693,26.6035156 50.1891927,26.4589844 49.6481771,26.3378906 C49.1071614,26.2167969 48.733138,26.0898438 48.5261068,25.9570312 C48.3190755,25.8242188 48.2155599,25.6269531 48.2155599,25.3652344 C48.2155599,25.0878906 48.326888,24.8632812 48.5495443,24.6914062 C48.7722005,24.5195312 49.0807943,24.4335938 49.4753255,24.4335938 C49.858138,24.4335938 50.1755208,24.5410156 50.4274739,24.7558594 C50.6794271,24.9707031 50.8054036,25.2265625 50.8054036,25.5234375 L50.8054036,25.5234375 L51.8952474,25.5234375 C51.8952474,24.9453125 51.6716146,24.4707031 51.2243489,24.0996094 C50.7770833,23.7285156 50.1940755,23.5429688 49.4753255,23.5429688 C48.7917318,23.5429688 48.2302083,23.7226562 47.7907552,24.0820312 C47.3513021,24.4414062 47.1315755,24.8808594 47.1315755,25.4003906 C47.1315755,25.7128906 47.2087239,25.9824219 47.3630208,26.2089844 C47.5173177,26.4355469 47.7555989,26.6308594 48.0778646,26.7949219 C48.4001302,26.9589844 48.8356771,27.0996094 49.3845052,27.2167969 C49.9333333,27.3339844 50.3180989,27.4736328 50.5388021,27.6357422 C50.7595052,27.7978516 50.8698568,28.0253906 50.8698568,28.3183594 C50.8698568,28.5957031 50.7458333,28.8173828 50.4977864,28.9833984 C50.2497396,29.1494141 49.920638,29.2324219 49.5104818,29.2324219 C49.0651693,29.2324219 48.7067708,29.1259766 48.4352864,28.9130859 C48.1638021,28.7001953 48.0182943,28.4121094 47.998763,28.0488281 L47.998763,28.0488281 L46.9147786,28.0488281 C46.9147786,28.4238281 47.0251302,28.7724609 47.2458333,29.0947266 C47.4665364,29.4169922 47.7722005,29.6679688 48.1628255,29.8476562 C48.5534505,30.0273438 49.0026693,30.1171875 49.5104818,30.1171875 Z" id="7cuotasfjas" fill="#FFFFFF" fill-rule="nonzero"></path>
        </g>
    </g>
</svg>