<?xml version="1.0" encoding="UTF-8"?>
<svg width="96px" height="56px" viewBox="0 0 96 56" version="1.1" xmlns="http://www.w3.org/2000/svg" xmlns:xlink="http://www.w3.org/1999/xlink">
    <title>diferimiento_pago_dark</title>
    <defs>
        <path d="M62,0 C73.045695,-2.02906125e-15 82,8.954305 82,20 C82,31.045695 73.045695,40 62,40 L48.523,40 L41.5694444,46.1066017 L34.615,40 L20,40 C8.954305,40 1.3527075e-15,31.045695 0,20 C-1.3527075e-15,8.954305 8.954305,2.02906125e-15 20,0 L62,0 Z" id="path-1"></path>
        <filter x="-5.5%" y="-9.8%" width="111.0%" height="119.5%" filterUnits="objectBoundingBox" id="filter-2">
            <feOffset dx="0" dy="0" in="SourceAlpha" result="shadowOffsetOuter1"></feOffset>
            <feGaussianBlur stdDeviation="1.5" in="shadowOffsetOuter1" result="shadowBlurOuter1"></feGaussianBlur>
            <feColorMatrix values="0 0 0 0 0   0 0 0 0 0   0 0 0 0 0  0 0 0 0.3 0" type="matrix" in="shadowBlurOuter1"></feColorMatrix>
        </filter>
    </defs>
    <g id="Icons-old" stroke="none" stroke-width="1" fill="none" fill-rule="evenodd">
        <g id="Group-3-Copy-4" transform="translate(6.000000, 6.000000)">
            <g id="Combined-Shape">
                <use fill="black" fill-opacity="1" filter="url(#filter-2)" xlink:href="#path-1"></use>
                <use fill="#FF5500" fill-rule="evenodd" xlink:href="#path-1"></use>
            </g>
            <path d="M14.6593914,18 C15.364795,18 15.9905274,17.847819 16.5365886,17.543457 C17.0826498,17.2390951 17.5033855,16.8058268 17.7987957,16.2436523 C18.0942058,15.6814779 18.2419109,15.0297852 18.2419109,14.2885742 L18.2419109,14.2885742 L18.2419109,13.8964844 C18.2419109,13.1660156 18.095101,12.5179036 17.8014812,11.9521484 C17.5078614,11.3863932 17.093392,10.9495443 16.558073,10.6416016 C16.022754,10.3336589 15.4095541,10.1796875 14.7184734,10.1796875 L14.7184734,10.1796875 L12.4089031,10.1796875 L12.4089031,18 L14.6593914,18 Z M14.6540203,16.9150391 L13.7677898,16.9150391 L13.7677898,11.2753906 L14.7184734,11.2753906 C15.4202963,11.2753906 15.9556153,11.4991862 16.3244304,11.9467773 C16.6932455,12.3943685 16.8776531,13.0424805 16.8776531,13.8911133 L16.8776531,13.8911133 L16.8776531,14.3261719 C16.8704916,15.1604818 16.6762371,15.8005371 16.2948894,16.2463379 C15.9135418,16.6921387 15.3665854,16.9150391 14.6540203,16.9150391 L14.6540203,16.9150391 Z M20.1466201,11.3666992 C20.3829482,11.3666992 20.5655654,11.3013509 20.6944717,11.1706543 C20.8233779,11.0399577 20.887831,10.8761393 20.887831,10.6791992 C20.887831,10.4786784 20.8233779,10.3121745 20.6944717,10.1796875 C20.5655654,10.0472005 20.3829482,9.98095703 20.1466201,9.98095703 C19.910292,9.98095703 19.72857,10.0472005 19.6014541,10.1796875 C19.4743382,10.3121745 19.4107803,10.4786784 19.4107803,10.6791992 C19.4107803,10.8761393 19.4743382,11.0399577 19.6014541,11.1706543 C19.72857,11.3013509 19.910292,11.3666992 20.1466201,11.3666992 Z M20.7965224,18 L20.7965224,12.1884766 L19.4913467,12.1884766 L19.4913467,18 L20.7965224,18 Z M23.9204699,18 L23.9204699,13.1552734 L25.1021105,13.1552734 L25.1021105,12.1884766 L23.9204699,12.1884766 L23.9204699,11.6728516 C23.9204699,11.031901 24.2319933,10.7114258 24.8550402,10.7114258 C25.0448189,10.7114258 25.2113228,10.7257487 25.3545519,10.7543945 L25.3545519,10.7543945 L25.3867785,9.73388672 C25.128966,9.66943359 24.8854764,9.63720703 24.6563097,9.63720703 C24.0117785,9.63720703 23.5104764,9.81266276 23.1524035,10.1635742 C22.7943306,10.5144857 22.6152941,11.012207 22.6152941,11.6567383 L22.6152941,11.6567383 L22.6152941,12.1884766 L21.7290637,12.1884766 L21.7290637,13.1552734 L22.6152941,13.1552734 L22.6152941,18 L23.9204699,18 Z M28.4247885,18.1074219 C28.9081869,18.1074219 29.3441407,18.0116374 29.7326498,17.8200684 C30.1211589,17.6284993 30.4317872,17.3590495 30.6645346,17.0117188 L30.6645346,17.0117188 L29.9609213,16.340332 C29.5849447,16.8237305 29.0979655,17.0654297 28.4999838,17.0654297 C28.073877,17.0654297 27.72028,16.9257812 27.4391928,16.6464844 C27.1581055,16.3671875 26.9978679,15.9876302 26.9584799,15.5078125 L26.9584799,15.5078125 L30.7558432,15.5078125 L30.7558432,14.9814453 C30.7558432,14.0576172 30.5401042,13.3432617 30.1086264,12.8383789 C29.6771485,12.3334961 29.065739,12.0810547 28.2743978,12.0810547 C27.7766765,12.0810547 27.3255046,12.2081706 26.9208822,12.4624023 C26.5162598,12.7166341 26.2020508,13.0720215 25.9782553,13.5285645 C25.7544597,13.9851074 25.6425619,14.503418 25.6425619,15.0834961 L25.6425619,15.0834961 L25.6425619,15.2446289 C25.6425619,16.1111654 25.8994792,16.8049316 26.4133139,17.3259277 C26.9271485,17.8469238 27.59764,18.1074219 28.4247885,18.1074219 Z M29.4667807,14.5517578 L26.9799642,14.5517578 C27.0408366,14.1041667 27.1813803,13.7550456 27.4015951,13.5043945 C27.6218099,13.2537435 27.9109538,13.128418 28.2690267,13.128418 C28.6306804,13.128418 28.913558,13.2403158 29.1176596,13.4641113 C29.3217611,13.6879069 29.4381348,14.0182292 29.4667807,14.4550781 L29.4667807,14.4550781 L29.4667807,14.5517578 Z M33.0096734,18 L33.0096734,14.0253906 C33.2173557,13.5670573 33.6201878,13.3378906 34.2181695,13.3378906 C34.4007867,13.3378906 34.5780328,13.3522135 34.7499078,13.3808594 L34.7499078,13.3808594 L34.7552789,12.15625 C34.6335341,12.1061198 34.4795628,12.0810547 34.2933648,12.0810547 C33.7347711,12.0810547 33.2979221,12.3334961 32.982818,12.8383789 L32.982818,12.8383789 L32.9505914,12.1884766 L31.7044976,12.1884766 L31.7044976,18 L33.0096734,18 Z M36.251785,11.3666992 C36.4881131,11.3666992 36.6707303,11.3013509 36.7996365,11.1706543 C36.9285428,11.0399577 36.9929959,10.8761393 36.9929959,10.6791992 C36.9929959,10.4786784 36.9285428,10.3121745 36.7996365,10.1796875 C36.6707303,10.0472005 36.4881131,9.98095703 36.251785,9.98095703 C36.0154568,9.98095703 35.8337348,10.0472005 35.7066189,10.1796875 C35.5795031,10.3121745 35.5159451,10.4786784 35.5159451,10.6791992 C35.5159451,10.8761393 35.5795031,11.0399577 35.7066189,11.1706543 C35.8337348,11.3013509 36.0154568,11.3666992 36.251785,11.3666992 Z M36.9016873,18 L36.9016873,12.1884766 L35.5965115,12.1884766 L35.5965115,18 L36.9016873,18 Z M39.5637207,18 L39.5637207,13.7890625 C39.7821452,13.3629557 40.1527507,13.1499023 40.6755371,13.1499023 C41.3558757,13.1499023 41.7049967,13.491862 41.7229004,14.1757812 L41.7229004,14.1757812 L41.7229004,18 L43.0280762,18 L43.0227051,14.0146484 C43.0979004,13.7568359 43.2294922,13.5482585 43.4174805,13.388916 C43.6054687,13.2295736 43.8480632,13.1499023 44.1452637,13.1499023 C44.5176595,13.1499023 44.7844238,13.2358398 44.9455566,13.4077148 C45.1066895,13.5795898 45.1872559,13.8499349 45.1872559,14.21875 L45.1872559,14.21875 L45.1872559,18 L46.4924316,18 L46.4924316,14.1811523 C46.4852702,13.4900716 46.3250326,12.9672852 46.0117187,12.612793 C45.6984049,12.2583008 45.2212728,12.0810547 44.5803223,12.0810547 C43.8140462,12.0810547 43.2196452,12.3782552 42.7971191,12.9726562 C42.5106608,12.3782552 41.9789225,12.0810547 41.2019043,12.0810547 C40.4929199,12.0810547 39.9343262,12.3191732 39.526123,12.7954102 L39.526123,12.7954102 L39.4885254,12.1884766 L38.2585449,12.1884766 L38.2585449,18 L39.5637207,18 Z M48.5099338,11.3666992 C48.7462619,11.3666992 48.9288791,11.3013509 49.0577854,11.1706543 C49.1866916,11.0399577 49.2511447,10.8761393 49.2511447,10.6791992 C49.2511447,10.4786784 49.1866916,10.3121745 49.0577854,10.1796875 C48.9288791,10.0472005 48.7462619,9.98095703 48.5099338,9.98095703 C48.2736057,9.98095703 48.0918837,10.0472005 47.9647678,10.1796875 C47.8376519,10.3121745 47.7740939,10.4786784 47.7740939,10.6791992 C47.7740939,10.8761393 47.8376519,11.0399577 47.9647678,11.1706543 C48.0918837,11.3013509 48.2736057,11.3666992 48.5099338,11.3666992 Z M49.1598361,18 L49.1598361,12.1884766 L47.8546604,12.1884766 L47.8546604,18 L49.1598361,18 Z M53.0787055,18.1074219 C53.5621039,18.1074219 53.9980577,18.0116374 54.3865668,17.8200684 C54.7750759,17.6284993 55.0857042,17.3590495 55.3184516,17.0117188 L55.3184516,17.0117188 L54.6148383,16.340332 C54.2388617,16.8237305 53.7518826,17.0654297 53.1539008,17.0654297 C52.727794,17.0654297 52.374197,16.9257812 52.0931098,16.6464844 C51.8120225,16.3671875 51.6517849,15.9876302 51.6123969,15.5078125 L51.6123969,15.5078125 L55.4097602,15.5078125 L55.4097602,14.9814453 C55.4097602,14.0576172 55.1940212,13.3432617 54.7625434,12.8383789 C54.3310655,12.3334961 53.719656,12.0810547 52.9283149,12.0810547 C52.4305935,12.0810547 51.9794216,12.2081706 51.5747992,12.4624023 C51.1701768,12.7166341 50.8559678,13.0720215 50.6321723,13.5285645 C50.4083767,13.9851074 50.2964789,14.503418 50.2964789,15.0834961 L50.2964789,15.0834961 L50.2964789,15.2446289 C50.2964789,16.1111654 50.5533962,16.8049316 51.0672309,17.3259277 C51.5810655,17.8469238 52.251557,18.1074219 53.0787055,18.1074219 Z M54.1206977,14.5517578 L51.6338813,14.5517578 C51.6947537,14.1041667 51.8352973,13.7550456 52.0555121,13.5043945 C52.275727,13.2537435 52.5648708,13.128418 52.9229438,13.128418 C53.2845974,13.128418 53.567475,13.2403158 53.7715766,13.4641113 C53.9756781,13.6879069 54.0920518,14.0182292 54.1206977,14.4550781 L54.1206977,14.4550781 L54.1206977,14.5517578 Z M57.6474772,18 L57.6474772,13.8642578 C57.9052897,13.3880208 58.2973795,13.1499023 58.8237467,13.1499023 C59.1854003,13.1499023 59.4458984,13.2385254 59.6052408,13.4157715 C59.7645833,13.5930176 59.8442545,13.8660482 59.8442545,14.2348633 L59.8442545,14.2348633 L59.8442545,18 L61.1494303,18 L61.1494303,14.159668 C61.1279459,12.7739258 60.5120605,12.0810547 59.301774,12.0810547 C58.6035318,12.0810547 58.039567,12.3406576 57.6098795,12.8598633 L57.6098795,12.8598633 L57.5722818,12.1884766 L56.3423014,12.1884766 L56.3423014,18 L57.6474772,18 Z M64.2518934,18.1074219 C64.5276095,18.1074219 64.8140679,18.0662435 65.1112684,17.9838867 L65.1112684,17.9838867 L65.1112684,16.9741211 C64.957297,17.0099284 64.805116,17.027832 64.6547254,17.027832 C64.4291395,17.027832 64.2724826,16.978597 64.1847547,16.880127 C64.0970268,16.7816569 64.0531629,16.6214193 64.0531629,16.3994141 L64.0531629,16.3994141 L64.0531629,13.1552734 L65.0790418,13.1552734 L65.0790418,12.1884766 L64.0531629,12.1884766 L64.0531629,10.7758789 L62.7479871,10.7758789 L62.7479871,12.1884766 L61.7919324,12.1884766 L61.7919324,13.1552734 L62.7479871,13.1552734 L62.7479871,16.4477539 C62.7479871,17.5541992 63.2492892,18.1074219 64.2518934,18.1074219 Z M68.3157822,18.1074219 C68.8528916,18.1074219 69.3264431,17.9838867 69.7364365,17.7368164 C70.14643,17.4897461 70.4615342,17.140625 70.681749,16.6894531 C70.9019639,16.2382812 71.0120713,15.726237 71.0120713,15.1533203 L71.0120713,15.1533203 L71.0067002,14.847168 C70.9673122,14.0128581 70.7032334,13.3432617 70.2144639,12.8383789 C69.7256944,12.3334961 69.0892197,12.0810547 68.3050401,12.0810547 C67.7750921,12.0810547 67.3060166,12.2036947 66.8978135,12.4489746 C66.4896104,12.6942546 66.1727158,13.045166 65.9471299,13.501709 C65.721544,13.958252 65.608751,14.4711914 65.608751,15.0405273 L65.608751,15.0405273 L65.608751,15.1049805 C65.608751,16.0144857 65.8549261,16.7422689 66.3472764,17.2883301 C66.8396266,17.8343913 67.4957953,18.1074219 68.3157822,18.1074219 Z M68.3157822,17.0654297 C67.8753526,17.0654297 67.5316026,16.8962402 67.2845322,16.5578613 C67.0374619,16.2194824 66.9139268,15.7513021 66.9139268,15.1533203 C66.9139268,14.4801432 67.0392523,13.9743652 67.2899033,13.6359863 C67.5405544,13.2976074 67.8789333,13.128418 68.3050401,13.128418 C68.7383083,13.128418 69.0811631,13.300293 69.3336045,13.644043 C69.5860459,13.987793 69.7122666,14.4532878 69.7122666,15.0405273 C69.7122666,15.7029622 69.5896266,16.2060547 69.3443467,16.5498047 C69.0990668,16.8935547 68.7562119,17.0654297 68.3157822,17.0654297 Z M24.6955784,30.1074219 C25.3472711,30.1074219 25.8682672,29.8710938 26.2585667,29.3984375 L26.2585667,29.3984375 L26.3230198,30 L27.5046604,30 L27.5046604,21.75 L26.1994847,21.75 L26.1994847,24.7255859 C25.8199274,24.2958984 25.322206,24.0810547 24.7063206,24.0810547 C24.0080784,24.0810547 23.451275,24.3522949 23.0359104,24.8947754 C22.6205459,25.4372559 22.4128636,26.1560872 22.4128636,27.0512695 C22.4128636,27.9930013 22.6232314,28.737793 23.0439671,29.2856445 C23.4647028,29.8334961 24.0152399,30.1074219 24.6955784,30.1074219 Z M25.0285862,29.0439453 C24.6096409,29.0439453 24.2864801,28.8783366 24.0591038,28.5471191 C23.8317275,28.2159017 23.7180393,27.7548828 23.7180393,27.1640625 C23.7180393,26.4908854 23.8326227,25.9868978 24.0617893,25.6520996 C24.290956,25.3173014 24.6168024,25.1499023 25.0393284,25.1499023 C25.572857,25.1499023 25.9595758,25.3826497 26.1994847,25.8481445 L26.1994847,25.8481445 L26.1994847,28.3295898 C25.9524143,28.8058268 25.5621149,29.0439453 25.0285862,29.0439453 Z M31.3644477,30.1074219 C31.8478462,30.1074219 32.2838,30.0116374 32.6723091,29.8200684 C33.0608182,29.6284993 33.3714464,29.3590495 33.6041938,29.0117188 L33.6041938,29.0117188 L32.9005806,28.340332 C32.524604,28.8237305 32.0376248,29.0654297 31.4396431,29.0654297 C31.0135363,29.0654297 30.6599393,28.9257812 30.378852,28.6464844 C30.0977648,28.3671875 29.9375272,27.9876302 29.8981391,27.5078125 L29.8981391,27.5078125 L33.6955024,27.5078125 L33.6955024,26.9814453 C33.6955024,26.0576172 33.4797635,25.3432617 33.0482856,24.8383789 C32.6168078,24.3334961 32.0053983,24.0810547 31.2140571,24.0810547 C30.7163358,24.0810547 30.2651639,24.2081706 29.8605415,24.4624023 C29.4559191,24.7166341 29.1417101,25.0720215 28.9179145,25.5285645 C28.694119,25.9851074 28.5822212,26.503418 28.5822212,27.0834961 L28.5822212,27.0834961 L28.5822212,27.2446289 C28.5822212,28.1111654 28.8391385,28.8049316 29.3529731,29.3259277 C29.8668078,29.8469238 30.5372993,30.1074219 31.3644477,30.1074219 Z M32.4064399,26.5517578 L29.9196235,26.5517578 C29.9804959,26.1041667 30.1210395,25.7550456 30.3412544,25.5043945 C30.5614692,25.2537435 30.8506131,25.128418 31.208686,25.128418 C31.5703397,25.128418 31.8532173,25.2403158 32.0573188,25.4641113 C32.2614204,25.6879069 32.3777941,26.0182292 32.4064399,26.4550781 L32.4064399,26.4550781 L32.4064399,26.5517578 Z M38.4018935,32.234375 L38.4018935,29.4360352 C38.8065159,29.8836263 39.3615289,30.1074219 40.0669325,30.1074219 C40.7580132,30.1074219 41.3058648,29.8370768 41.7104872,29.2963867 C42.1151096,28.7556966 42.3174208,28.0431315 42.3174208,27.1586914 L42.3174208,27.1586914 L42.3174208,27.0673828 C42.3174208,26.1292318 42.1142144,25.3969727 41.7078017,24.8706055 C41.3013889,24.3442383 40.7490614,24.0810547 40.0508192,24.0810547 C39.3310927,24.0810547 38.7689182,24.3317057 38.3642958,24.8330078 L38.3642958,24.8330078 L38.315956,24.1884766 L37.4082411,24.1884766 L37.4082411,32.234375 L38.4018935,32.234375 Z M39.7661513,29.2963867 C39.1538466,29.2963867 38.699094,29.0314128 38.4018935,28.5014648 L38.4018935,28.5014648 L38.4018935,25.7246094 C38.7026747,25.1910807 39.1538466,24.9243164 39.7554091,24.9243164 C40.2423882,24.9243164 40.6255263,25.1140951 40.9048231,25.4936523 C41.18412,25.8732096 41.3237685,26.390625 41.3237685,27.0458984 C41.3237685,27.7906901 41.1832248,28.3519694 40.9021376,28.7297363 C40.6210504,29.1075033 40.2423882,29.2963867 39.7661513,29.2963867 Z M45.312462,30.1074219 C45.9534125,30.1074219 46.5048448,29.867513 46.9667589,29.3876953 C47.0025662,29.6813151 47.0491157,29.8854167 47.1064073,30 L47.1064073,30 L48.1483995,30 L48.1483995,29.9140625 C48.0123318,29.5989583 47.944298,29.1746419 47.944298,28.6411133 L47.944298,28.6411133 L47.944298,25.9663086 C47.929975,25.379069 47.7330349,24.9180501 47.3534776,24.583252 C46.9739203,24.2484538 46.4493435,24.0810547 45.7797472,24.0810547 C45.3572211,24.0810547 44.9696072,24.1598307 44.6169054,24.3173828 C44.2642036,24.4749349 43.9849067,24.6888835 43.7790147,24.9592285 C43.5731228,25.2295736 43.4701769,25.5097656 43.4701769,25.7998047 L43.4701769,25.7998047 L44.4692003,25.7998047 C44.4692003,25.5455729 44.5891547,25.3289388 44.8290636,25.1499023 C45.0689724,24.9708659 45.366173,24.8813477 45.7206651,24.8813477 C46.1252875,24.8813477 46.4314399,24.9842936 46.6391222,25.1901855 C46.8468045,25.3960775 46.9506456,25.6726888 46.9506456,26.0200195 L46.9506456,26.0200195 L46.9506456,26.4765625 L45.9838487,26.4765625 C45.1495388,26.4765625 44.502322,26.6439616 44.0421983,26.9787598 C43.5820746,27.3135579 43.3520128,27.7835286 43.3520128,28.3886719 C43.3520128,28.8863932 43.5355252,29.2972819 43.9025499,29.6213379 C44.2695746,29.9453939 44.7395453,30.1074219 45.312462,30.1074219 Z M45.4574815,29.2426758 C45.1316352,29.2426758 44.8648709,29.1549479 44.6571886,28.9794922 C44.4495063,28.8040365 44.3456651,28.5605469 44.3456651,28.2490234 C44.3456651,27.5364583 44.9543891,27.1801758 46.171837,27.1801758 L46.171837,27.1801758 L46.9506456,27.1801758 L46.9506456,28.3725586 C46.8253201,28.6303711 46.6230089,28.8398438 46.343712,29.0009766 C46.0644151,29.1621094 45.769005,29.2426758 45.4574815,29.2426758 Z M51.6483235,32.2880859 C52.4002767,32.2880859 52.9991536,32.0714518 53.4449544,31.6381836 C53.8907552,31.2049154 54.1136556,30.6123047 54.1136556,29.8603516 L54.1136556,29.8603516 L54.1136556,24.1884766 L53.2059407,24.1884766 L53.1576009,24.8330078 C52.7601399,24.3317057 52.2069173,24.0810547 51.4979329,24.0810547 C50.8068522,24.0810547 50.2518392,24.3487142 49.8328939,24.8840332 C49.4139485,25.4193522 49.2044759,26.139974 49.2044759,27.0458984 C49.2044759,27.9912109 49.4148437,28.737793 49.8355794,29.2856445 C50.2563151,29.8334961 50.8068522,30.1074219 51.4871907,30.1074219 C52.1746907,30.1074219 52.7171712,29.8782552 53.1146321,29.4199219 L53.1146321,29.4199219 L53.1146321,29.9194336 C53.1146321,30.4135742 52.9794596,30.7967122 52.7091146,31.0688477 C52.4387695,31.3409831 52.0618978,31.4770508 51.5784993,31.4770508 C50.9626139,31.4770508 50.4416178,31.2138672 50.015511,30.6875 L50.015511,30.6875 L49.499886,31.2836914 C49.7111491,31.5952148 50.0173014,31.8404948 50.4183431,32.0195312 C50.8193847,32.1985677 51.2293782,32.2880859 51.6483235,32.2880859 Z M51.734261,29.2641602 C51.2508626,29.2641602 50.874886,29.0770671 50.6063314,28.7028809 C50.3377767,28.3286947 50.2034993,27.8139648 50.2034993,27.1586914 C50.2034993,26.4210612 50.339567,25.8642578 50.6117024,25.4882812 C50.8838379,25.1123047 51.2616048,24.9243164 51.7450032,24.9243164 C52.3537272,24.9243164 52.8102702,25.2018229 53.1146321,25.7568359 L53.1146321,25.7568359 L53.1146321,28.4101562 C52.8210123,28.9794922 52.3608886,29.2641602 51.734261,29.2641602 Z M57.9358452,30.1074219 C58.4586317,30.1074219 58.9214409,29.9820964 59.324273,29.7314453 C59.727105,29.4807943 60.0368381,29.130778 60.2534722,28.6813965 C60.4701063,28.232015 60.5784234,27.7244466 60.5784234,27.1586914 L60.5784234,27.1586914 L60.5784234,27.0888672 C60.5784234,26.179362 60.3340386,25.4506836 59.8452691,24.902832 C59.3564995,24.3549805 58.7164442,24.0810547 57.925103,24.0810547 C57.4130588,24.0810547 56.957411,24.2045898 56.5581597,24.4516602 C56.1589084,24.6987305 55.8473849,25.0496419 55.6235894,25.5043945 C55.3997938,25.9591471 55.287896,26.4711914 55.287896,27.0405273 L55.287896,27.0405273 L55.287896,27.1103516 C55.287896,28.0126953 55.5322808,28.737793 56.0210503,29.2856445 C56.5098198,29.8334961 57.1480848,30.1074219 57.9358452,30.1074219 Z M57.9358452,29.2963867 C57.4345431,29.2963867 57.0343967,29.101237 56.7354058,28.7109375 C56.4364149,28.320638 56.2869194,27.8032227 56.2869194,27.1586914 C56.2869194,26.4318034 56.4373101,25.8732096 56.7380913,25.4829102 C57.0388726,25.0926107 57.4345431,24.8974609 57.925103,24.8974609 C58.4264051,24.8974609 58.828342,25.0952962 59.1309136,25.4909668 C59.4334852,25.8866374 59.584771,26.4031576 59.584771,27.0405273 C59.584771,27.7530924 59.4361707,28.3072103 59.1389702,28.7028809 C58.8417697,29.0985514 58.440728,29.2963867 57.9358452,29.2963867 Z" id="Diferimientodepago" fill="#FFFFFF" fill-rule="nonzero"></path>
        </g>
    </g>
</svg>