<?xml version="1.0" encoding="UTF-8"?>
<svg width="97px" height="56px" viewBox="0 0 97 56" version="1.1" xmlns="http://www.w3.org/2000/svg" xmlns:xlink="http://www.w3.org/1999/xlink">
    <title>plan_z_dark</title>
    <defs>
        <path d="M52,0 C63.045695,-2.02906125e-15 72,8.954305 72,20 C72,31.045695 63.045695,40 52,40 L42.606,40 L36.5,46.1066017 L30.393,40 L20,40 C8.954305,40 1.3527075e-15,31.045695 0,20 C-1.3527075e-15,8.954305 8.954305,2.02906125e-15 20,0 L52,0 Z" id="path-1"></path>
        <filter x="-6.2%" y="-9.8%" width="112.5%" height="119.5%" filterUnits="objectBoundingBox" id="filter-2">
            <feOffset dx="0" dy="0" in="SourceAlpha" result="shadowOffsetOuter1"></feOffset>
            <feGaussianBlur stdDeviation="1.5" in="shadowOffsetOuter1" result="shadowBlurOuter1"></feGaussianBlur>
            <feColorMatrix values="0 0 0 0 0   0 0 0 0 0   0 0 0 0 0  0 0 0 0.3 0" type="matrix" in="shadowBlurOuter1"></feColorMatrix>
        </filter>
    </defs>
    <g id="Icons-old" stroke="none" stroke-width="1" fill="none" fill-rule="evenodd">
        <g id="Group-6-Copy-2" transform="translate(1.000000, 0.000000)">
            <g id="Group-3-Copy-4" transform="translate(12.000000, 6.000000)">
                <g id="Combined-Shape">
                    <use fill="black" fill-opacity="1" filter="url(#filter-2)" xlink:href="#path-1"></use>
                    <use fill="#FF5500" fill-rule="evenodd" xlink:href="#path-1"></use>
                </g>
                <path d="M20.1434896,24 L20.1434896,20.4931641 L21.9413412,20.4931641 C23.1216798,20.4931641 24.0456706,20.2117513 24.7133139,19.6489258 C25.3809571,19.0861003 25.7147787,18.3170573 25.7147787,17.3417969 C25.7147787,16.6992188 25.5621094,16.1261393 25.2567709,15.6225586 C24.9514324,15.1189779 24.5150717,14.7304688 23.9476889,14.4570312 C23.3803061,14.1835938 22.7229167,14.046875 21.9755209,14.046875 L21.9755209,14.046875 L18.0927084,14.046875 L18.0927084,24 L20.1434896,24 Z M21.9755209,18.8320312 L20.1434896,18.8320312 L20.1434896,15.7080078 L22.0233725,15.7080078 C22.5292318,15.7171224 22.9257162,15.8720703 23.2128256,16.1728516 C23.499935,16.4736328 23.6434896,16.8678385 23.6434896,17.3554688 C23.6434896,17.8294271 23.5010743,18.1940104 23.2162436,18.4492188 C22.9314128,18.7044271 22.5178386,18.8320312 21.9755209,18.8320312 L21.9755209,18.8320312 Z M29.0002822,24 L29.0002822,13.5 L27.0178603,13.5 L27.0178603,24 L29.0002822,24 Z M32.7711372,24.1367188 C33.5367622,24.1367188 34.1588325,23.8701172 34.6373481,23.3369141 C34.6783637,23.601237 34.7444445,23.8222656 34.8355903,24 L34.8355903,24 L36.831684,24 L36.831684,23.8837891 C36.6402778,23.523763 36.542296,22.9928385 36.5377387,22.2910156 L36.5377387,22.2910156 L36.5377387,19.0849609 C36.5377387,18.2555339 36.2699979,17.6118164 35.7345161,17.1538086 C35.1990343,16.6958008 34.4755643,16.4667969 33.5641059,16.4667969 C32.9625434,16.4667969 32.4202257,16.5704753 31.9371528,16.777832 C31.4540799,16.9851888 31.080382,17.2711589 30.816059,17.6357422 C30.5517361,18.0003255 30.4195747,18.3968099 30.4195747,18.8251953 L30.4195747,18.8251953 L32.3951606,18.8251953 C32.3951606,18.5472005 32.4897244,18.3284505 32.678852,18.1689453 C32.8679796,18.0094401 33.1288846,17.9296875 33.4615669,17.9296875 C33.8398221,17.9296875 34.1166775,18.0322266 34.2921333,18.2373047 C34.467589,18.4423828 34.5553169,18.7158203 34.5553169,19.0576172 L34.5553169,19.0576172 L34.5553169,19.4814453 L33.6461372,19.4814453 C32.5478299,19.4860026 31.7081489,19.6979167 31.1270942,20.1171875 C30.5460395,20.5364583 30.2555122,21.1380208 30.2555122,21.921875 C30.2555122,22.5598958 30.4936307,23.0885417 30.9698676,23.5078125 C31.4461046,23.9270833 32.0465278,24.1367188 32.7711372,24.1367188 Z M33.2018012,22.6259766 C32.90102,22.6259766 32.6640408,22.546224 32.4908637,22.3867188 C32.3176867,22.2272135 32.2310981,22.0244141 32.2310981,21.7783203 L32.2310981,21.7783203 L32.237934,21.6621094 C32.3017361,20.9785156 32.8281033,20.6367188 33.8170356,20.6367188 L33.8170356,20.6367188 L34.5553169,20.6367188 L34.5553169,21.9082031 C34.4368273,22.1269531 34.2545356,22.3012695 34.0084419,22.4311523 C33.7623481,22.5610352 33.4934679,22.6259766 33.2018012,22.6259766 Z M39.9121094,24 L39.9121094,18.7841797 C40.1901042,18.3102214 40.6070964,18.0732422 41.1630859,18.0732422 C41.5869141,18.0732422 41.889974,18.167806 42.0722656,18.3569336 C42.2545573,18.5460612 42.3457031,18.8502604 42.3457031,19.2695312 L42.3457031,19.2695312 L42.3457031,24 L44.3212891,24 L44.3212891,19.2216797 C44.3121745,18.3056641 44.1162109,17.617513 43.7333984,17.1572266 C43.3505859,16.6969401 42.7672526,16.4667969 41.9833984,16.4667969 C41.0947266,16.4667969 40.3860677,16.7972005 39.8574219,17.4580078 L39.8574219,17.4580078 L39.7958984,16.6035156 L37.9365234,16.6035156 L37.9365234,24 L39.9121094,24 Z M56.470421,24 L56.470421,22.3525391 L51.4528428,22.3525391 L56.361046,15.2226562 L56.361046,14.046875 L48.8962022,14.046875 L48.8962022,15.7080078 L53.8112413,15.7080078 L48.8893663,22.796875 L48.8893663,24 L56.470421,24 Z" id="PlanZ" fill="#FFFFFF" fill-rule="nonzero"></path>
            </g>
        </g>
    </g>
</svg>